<svg width="168" height="60" viewBox="0 0 168 60" fill="none" xmlns="http://www.w3.org/2000/svg">
<path d="M61.6522 17.6032C61.49 17.5721 61.3388 17.5494 61.1911 17.5339H61.1887H61.1863C61.179 17.5339 61.1706 17.5327 61.1633 17.5315C60.9455 17.51 60.7217 17.498 60.4966 17.498H50.2056V22.6015H60.4906C61.3847 22.6015 62.112 23.3198 62.112 24.203C62.112 25.0862 61.4005 25.7866 60.5208 25.8033C60.5123 25.8033 60.5039 25.8033 60.4954 25.8033H50.2043V40.4514H55.3614V30.8996H60.2244C60.303 30.9044 60.3925 30.9091 60.4893 30.9091C60.7434 30.9091 61.0145 30.8912 61.317 30.8554C61.8361 30.8016 62.3177 30.6892 62.7496 30.5219C65.4588 29.5765 67.2787 27.0392 67.2787 24.203C67.2787 22.6122 66.7039 21.0692 65.6597 19.8597C64.6312 18.6681 63.2082 17.8662 61.6522 17.6008V17.6032Z" fill="#111111"/>
<path d="M99.2481 35.3105V17.5H94.0898V40.4546H108.97L104.755 35.3105H99.2481Z" fill="#111111"/>
<path d="M114.45 35.3105V17.5H109.292V40.4546H124.172L119.956 35.3105H114.45Z" fill="#111111"/>
<path d="M30.2673 40.4973L42.2596 29.167V40.4973H47.4166V17.5068L23 40.4973H30.2673Z" fill="#111111"/>
<path d="M88.0447 20.3593C86.1075 18.6836 83.6488 17.6785 81.1223 17.5303C80.8815 17.516 80.6383 17.5088 80.4 17.5088C76.8994 17.5088 73.6191 19.0338 71.4 21.6919C69.1808 24.35 68.2915 27.8303 68.9618 31.2426C69.4434 33.6975 70.7756 35.9731 72.7128 37.6487C74.65 39.3244 77.1088 40.3295 79.6364 40.4777C79.876 40.4921 80.1192 40.4992 80.3576 40.4992C83.8581 40.4992 87.1384 38.9754 89.3576 36.3173C91.5767 33.6604 92.4661 30.1789 91.7969 26.7666C91.3154 24.3117 89.9832 22.0361 88.0459 20.3605L88.0447 20.3593ZM80.3782 35.4042C76.805 35.4042 73.8974 32.5334 73.8974 29.0028C73.8974 25.4723 76.805 22.6014 80.3782 22.6014C83.9513 22.6014 86.8589 25.4723 86.8589 29.0028C86.8589 32.5334 83.9525 35.4042 80.3782 35.4042Z" fill="#111111"/>
<path d="M143.782 26.7654C143.301 24.3105 141.969 22.0349 140.031 20.3593C138.094 18.6836 135.635 17.6785 133.109 17.5303C132.868 17.516 132.625 17.5088 132.387 17.5088C128.886 17.5088 125.606 19.0338 123.387 21.6919C121.167 24.35 120.278 27.8303 120.948 31.2426C121.43 33.6975 122.762 35.9731 124.699 37.6487C126.637 39.3244 129.095 40.3295 131.623 40.4777C131.863 40.4921 132.106 40.4992 132.344 40.4992C135.845 40.4992 139.125 38.9754 141.344 36.3173C143.563 33.6604 144.453 30.1789 143.784 26.7666L143.782 26.7654ZM132.365 35.4042C128.792 35.4042 125.884 32.5334 125.884 29.0028C125.884 25.4723 128.792 22.6014 132.365 22.6014C135.938 22.6014 138.846 25.4723 138.846 29.0028C138.846 32.5334 135.939 35.4042 132.365 35.4042Z" fill="#111111"/>
</svg>
