<?xml version="1.0" standalone="no"?>
<!DOCTYPE svg PUBLIC "-//W3C//DTD SVG 20010904//EN"
 "http://www.w3.org/TR/2001/REC-SVG-20010904/DTD/svg10.dtd">
<svg version="1.0" xmlns="http://www.w3.org/2000/svg"
 viewBox="0 0 2109 1489" preserveAspectRatio="xMidYMid meet">

<g transform="translate(0.000000,1489.000000) scale(0.100000,-0.100000)"
fill="#000000" stroke="none">
<path d="M0 7445 l0 -7445 10545 0 10545 0 0 7445 0 7445 -10545 0 -10545 0 0
-7445z m21065 0 l0 -7420 -10520 0 -10520 0 -3 7410 c-1 4076 0 7416 3 7423 3
10 2113 12 10522 10 l10518 -3 0 -7420z"/>
<path d="M16768 10682 c-114 -23 -128 -28 -128 -47 0 -11 14 -110 30 -220 16
-110 30 -206 30 -212 0 -10 -973 -13 -4830 -13 l-4830 0 -2 -522 -3 -523 -124
368 -123 367 -416 -2 -415 -3 -129 -385 -128 -385 0 -1070 0 -1070 128 -385
129 -385 415 -3 414 -2 127 372 126 373 0 -552 1 -553 5495 0 5495 0 2 383 3
383 284 -412 284 -413 47 42 c25 23 106 96 178 162 l131 120 -464 465 -465
465 0 229 c0 178 3 227 13 223 6 -2 182 -106 390 -230 l378 -226 23 52 c13 29
52 110 85 181 35 72 58 132 52 135 -5 3 -219 80 -475 171 l-466 165 0 163 0
162 48 0 c26 0 452 -22 947 -50 494 -27 900 -48 901 -47 1 1 0 42 -3 91 l-6
88 -266 -6 c-146 -3 -571 -9 -943 -12 l-678 -6 0 120 0 120 48 10 c26 6 211
43 412 83 201 40 367 74 369 75 7 6 -42 164 -51 164 -5 0 -178 -52 -384 -115
-205 -63 -378 -115 -384 -115 -7 0 -10 114 -10 329 l0 329 151 133 c146 128
150 133 131 148 -11 9 -56 44 -99 78 l-79 61 -50 -60 -49 -60 -3 391 -2 391
-545 0 -545 0 0 229 c0 251 -4 292 -29 290 -9 -1 -73 -13 -143 -27z m-1784
-849 c7 -50 156 -1494 156 -1506 0 -4 -193 -7 -430 -7 l-430 0 0 -245 0 -245
302 0 301 0 -6 -527 c-4 -289 -7 -658 -7 -820 l0 -293 -304 0 -305 0 0 1845 0
1845 359 0 358 0 6 -47z m1096 -490 l0 -536 -22 20 c-13 11 -182 154 -375 317
-305 256 -353 301 -353 324 0 15 9 106 20 202 11 96 20 183 20 193 0 16 24 17
355 17 l355 0 0 -537z m670 529 c0 -5 25 -178 55 -386 l55 -376 0 -395 0 -395
-98 0 c-114 0 -88 -15 -306 170 l-136 115 0 260 0 259 128 378 127 378 88 0
c48 0 87 -4 87 -8z m645 -9 c4 -10 61 -177 126 -372 118 -350 119 -355 119
-446 l0 -92 -217 -252 -218 -253 -3 306 -2 306 -120 0 -120 0 0 123 c0 68 -3
253 -7 410 l-6 287 220 0 c201 0 222 -2 228 -17z m-9401 -30 c6 -41 156 -1471
156 -1491 0 -7 14 -12 35 -12 26 0 35 4 36 18 0 9 37 355 82 767 l82 750 353
3 352 2 0 -770 0 -770 159 0 160 0 5 43 c3 23 26 341 51 707 25 366 48 689 51
718 l5 52 428 0 428 0 6 -77 c4 -43 25 -370 47 -728 23 -357 43 -665 46 -682
l5 -33 274 0 275 0 0 395 0 395 -220 0 -220 0 0 365 0 365 660 0 660 0 -2
-367 -3 -368 -217 -3 -218 -2 0 -390 0 -390 290 0 290 0 0 760 0 760 208 0
209 0 6 -532 c4 -293 7 -635 7 -760 l0 -228 126 0 126 0 -8 23 c-4 12 -10 182
-12 377 l-3 355 128 382 128 383 406 0 c378 0 407 -1 414 -17 4 -10 61 -178
126 -372 l119 -355 0 -243 0 -243 -260 0 -260 0 0 250 0 250 -135 0 -135 0 0
-385 0 -385 290 0 289 0 11 -40 c6 -22 53 -163 105 -312 l95 -272 0 -395 0
-395 -126 -373 -127 -373 -405 2 -406 3 -127 375 -128 375 0 303 -1 302 265 0
265 0 0 -315 0 -316 133 3 132 3 0 445 0 445 -512 3 -513 2 0 -815 0 -815
-217 2 -218 3 0 813 0 812 -287 0 -288 0 0 -815 0 -815 -220 0 -220 0 0 815 0
815 -260 0 -261 0 7 -87 c3 -49 27 -413 53 -810 l46 -723 -272 0 -273 0 0 380
0 380 -130 0 -130 0 0 -380 0 -380 -274 0 -274 0 4 43 c3 23 27 368 54 767 27
399 51 744 54 768 l4 42 -144 0 -144 0 0 -800 0 -800 -298 0 -299 0 -6 98 c-4
53 -7 413 -7 800 0 452 -3 702 -10 702 -13 0 -1 59 -151 -750 -71 -387 -132
-706 -134 -708 -2 -2 -6 9 -9 25 -10 49 -266 1423 -266 1428 0 3 -4 5 -10 5
-7 0 -10 -141 -10 -402 0 -222 -3 -582 -7 -800 l-6 -398 -299 0 -298 0 0 800
0 800 -395 0 -395 0 0 -435 0 -435 -120 0 -120 0 0 1085 0 1085 120 0 120 0 0
-395 0 -395 395 0 395 0 0 770 0 770 354 0 354 0 6 -37z m7709 -1048 l377
-219 0 -123 0 -123 -435 0 -435 0 0 25 c0 13 16 170 35 347 19 178 35 327 35
331 0 10 -21 21 423 -238z m1937 -243 l0 -218 -210 -64 c-115 -35 -208 -65
-206 -67 3 -3 327 58 394 74 22 5 22 3 22 -81 l0 -86 -177 -2 c-174 -1 -176
-2 -68 -8 61 -4 140 -8 178 -9 l67 -1 0 -105 c0 -58 -4 -105 -9 -105 -4 0
-102 33 -217 74 l-209 74 -3 180 -2 180 217 191 c119 105 218 191 220 191 2 0
3 -98 3 -218z m-1228 -169 l82 -48 -73 -3 c-41 -2 -80 -1 -88 2 -12 5 -20 96
-8 96 3 0 42 -21 87 -47z m1016 -527 l212 -127 0 -152 0 -152 -220 220 -220
220 0 63 c0 35 3 61 8 59 4 -2 103 -61 220 -131z m-2425 -32 c-18 -8 -33 -17
-33 -22 0 -4 14 -35 32 -68 l32 -61 86 50 c138 80 132 75 120 97 -10 19 -7 20
100 20 l112 0 -6 -27 c-5 -23 -35 -182 -72 -383 -2 -14 -48 -265 -102 -558
-56 -312 -100 -526 -104 -515 -4 10 -62 317 -128 683 -67 366 -128 695 -135
733 l-13 67 72 -1 c70 -1 71 -1 39 -15z m1077 -804 l0 -820 -271 0 c-257 0
-271 1 -258 17 8 10 62 73 122 139 59 67 107 126 107 132 0 14 -153 177 -164
174 -5 -2 -34 -22 -65 -46 -31 -23 -62 -46 -68 -50 -10 -6 -13 71 -13 371 l0
377 29 -34 28 -34 139 124 c76 68 150 133 163 146 l24 22 -63 81 c-34 45 -67
81 -72 81 -5 0 -61 -39 -125 -86 -63 -47 -116 -84 -118 -82 -6 7 -13 296 -8
302 4 3 143 6 310 6 l303 0 0 -820z m279 817 c-2 -1 -12 -9 -21 -16 -15 -12
-18 -11 -18 3 0 10 8 16 22 16 12 0 19 -1 17 -3z m215 -299 c-125 -167 -233
-310 -240 -318 -12 -12 -14 26 -14 249 0 254 1 263 18 248 17 -16 23 -12 103
53 l84 69 138 1 137 0 -226 -302z m854 -51 l212 -308 0 -100 0 -101 -126 -374
c-70 -206 -130 -374 -135 -374 -11 0 -3 -33 -99 423 l-80 378 0 391 c0 216 4
388 8 383 5 -6 104 -149 220 -318z m-478 -587 l90 0 1 -42 c0 -24 6 -173 12
-332 8 -196 9 -290 2 -292 -6 -3 -115 -3 -244 -2 l-233 3 -84 244 c-46 134
-84 253 -84 265 0 11 100 250 222 531 l223 510 3 -443 2 -442 90 0z"/>
<path d="M14632 8887 c-51 -137 -65 -178 -60 -182 8 -8 391 -125 395 -121 13
12 72 191 66 196 -5 4 -78 35 -163 70 -85 35 -169 69 -187 77 l-32 13 -19 -53z"/>
<path d="M9627 7808 c5 -7 80 -111 167 -230 86 -120 160 -218 164 -218 6 0
291 429 300 452 2 4 -141 8 -318 8 -256 0 -320 -3 -313 -12z"/>
<path d="M2820 8423 l0 -1458 131 -387 132 -388 412 0 413 0 131 388 131 387
0 1458 0 1457 -275 0 -275 0 0 -1465 0 -1465 -125 0 -125 0 0 1465 0 1465
-275 0 -275 0 0 -1457z"/>
<path d="M4300 9500 l0 -380 220 0 220 0 0 -1465 0 -1465 230 0 230 0 0 1460
0 1460 220 0 220 0 0 385 0 385 -670 0 -670 0 0 -380z"/>
<path d="M1965 9860 l-380 -5 -3 -30 c-6 -72 -252 -3609 -252 -3626 0 -19 9
-19 283 -17 l282 3 3 383 2 382 120 0 120 0 0 -385 0 -385 280 0 280 0 0 43
c0 60 -230 3620 -235 3635 -3 8 -23 11 -62 10 -32 -2 -229 -5 -438 -8z m220
-1274 c126 -230 228 -424 228 -431 0 -9 -498 -760 -524 -789 -4 -4 -5 133 -3
305 2 173 7 565 10 872 l6 559 28 -49 c15 -26 130 -237 255 -467z"/>
<path d="M18839 9804 c-30 -26 -71 -62 -92 -81 l-38 -34 39 -49 39 -49 99 71
c54 39 101 72 103 74 4 3 -82 113 -90 113 -3 1 -30 -20 -60 -45z"/>
<path d="M18958 9262 l-187 -107 46 -85 c25 -47 49 -89 54 -94 10 -11 401 164
397 178 -5 20 -113 216 -118 215 -3 0 -89 -48 -192 -107z"/>
<path d="M18376 9005 c-65 -41 -123 -78 -128 -83 -9 -9 15 -72 27 -72 11 0
285 140 285 146 0 13 -46 84 -55 84 -5 -1 -64 -34 -129 -75z"/>
</g>
</svg>
