<?xml version="1.0" standalone="no"?>
<!DOCTYPE svg PUBLIC "-//W3C//DTD SVG 20010904//EN"
 "http://www.w3.org/TR/2001/REC-SVG-20010904/DTD/svg10.dtd">
<svg version="1.0" xmlns="http://www.w3.org/2000/svg"
 viewBox="0 0 2822 1886" preserveAspectRatio="xMidYMid meet">

<g transform="translate(0.000000,1886.000000) scale(0.100000,-0.100000)"
fill="#000000" stroke="none">
<path d="M10 18853 c0 -7 9303 -7 23095 0 2811 1 -1236 3 -8992 5 -7757 1
-14103 -1 -14103 -5z"/>
<path d="M20195 12904 c-22 -2 -110 -11 -195 -20 -626 -63 -1224 -238 -1648
-481 -453 -259 -818 -689 -967 -1135 l-34 -103 5 60 c15 191 55 816 60 964 l7
174 -319 -7 c-1199 -26 -2457 -99 -3231 -187 l-103 -12 0 -155 0 -154 -37 34
c-94 84 -260 187 -409 252 -274 120 -519 173 -849 183 -376 11 -757 -48 -1305
-202 -51 -14 -94 -24 -96 -22 -2 2 -11 50 -18 106 -8 57 -16 105 -18 107 -3 2
-141 -30 -280 -67 l-37 -9 14 -40 c23 -66 63 -257 84 -405 72 -496 87 -1098
45 -1775 -16 -259 -41 -560 -47 -567 -3 -2 -7 16 -11 39 -26 163 -123 521
-208 768 -204 590 -536 1209 -925 1725 -142 188 -318 395 -337 395 -7 0 -224
-51 -482 -114 -258 -63 -470 -111 -472 -107 -1 4 7 33 18 66 11 32 19 60 17
61 -5 5 -312 43 -316 38 -14 -13 -703 -2632 -756 -2873 -14 -64 -28 -123 -30
-131 -4 -13 35 -15 313 -15 231 0 364 -5 492 -18 159 -17 557 -67 654 -84 l39
-6 -6 169 c-4 93 -14 221 -22 284 -10 78 -11 116 -4 121 10 6 399 23 404 17 1
-2 -16 -128 -38 -281 -22 -153 -37 -280 -34 -283 3 -3 72 2 154 12 221 28 650
25 871 -4 166 -22 413 -73 557 -115 l80 -23 -3 -60 c-2 -32 -20 -179 -41 -327
-20 -147 -35 -270 -32 -272 2 -3 29 -5 60 -5 85 0 382 -27 611 -56 378 -47
755 -125 974 -200 55 -19 102 -31 105 -28 14 14 2 444 -18 668 -11 132 -21
251 -21 266 l0 27 179 6 c559 21 846 132 1171 457 119 118 216 243 281 361 24
43 47 79 50 79 3 0 13 -18 22 -40 l15 -40 104 62 c165 98 454 241 568 281 126
44 213 65 338 81 77 10 95 10 99 0 3 -8 3 -313 1 -679 -1 -366 1 -665 5 -665
4 0 129 50 277 110 180 74 314 122 407 146 126 33 151 36 288 38 l149 1 19
-110 c10 -60 19 -110 20 -112 2 -1 68 8 147 21 l145 22 -3 30 c-2 16 -41 245
-87 509 -102 585 -145 838 -145 858 0 23 66 34 444 72 188 19 362 37 388 41
46 6 46 5 53 -28 92 -425 392 -854 780 -1113 519 -347 1393 -556 2325 -556
260 1 394 10 670 47 1025 137 1568 350 2000 784 196 197 347 429 431 665 l29
80 -5 -305 c-5 -344 -16 -550 -46 -923 -12 -142 -19 -260 -17 -262 1 -2 107
10 233 25 431 54 862 92 1184 106 l164 7 -7 91 c-10 142 -55 591 -70 691 -7
50 -13 91 -12 92 1 2 76 -183 165 -410 90 -226 167 -416 172 -421 6 -6 129 4
326 27 474 56 686 77 911 91 111 7 205 15 207 18 3 3 -6 99 -19 214 -46 386
-78 762 -108 1239 -17 271 -17 1150 0 1375 16 218 48 503 67 605 8 42 15 82
15 89 0 8 -52 17 -167 29 -93 10 -175 17 -184 17 -14 0 -18 -21 -24 -155 -7
-148 -8 -155 -29 -160 -36 -8 -787 -103 -1031 -130 -298 -34 -271 -27 -268
-72 1 -21 9 -159 18 -308 8 -148 17 -298 19 -332 2 -35 2 -63 1 -63 -6 0 -177
313 -205 375 -19 43 -35 65 -46 65 -9 0 -71 -9 -138 -21 -301 -51 -785 -99
-1010 -99 l-129 0 6 -177 c4 -98 9 -279 12 -403 l6 -225 -29 75 c-96 249 -233
467 -434 692 -311 346 -873 635 -1563 803 -405 99 -677 135 -1040 140 -148 1
-288 1 -310 -1z m590 -264 c859 -73 1651 -390 2025 -812 227 -255 345 -467
411 -738 9 -33 14 -110 13 -195 0 -120 -4 -154 -27 -240 -83 -303 -328 -606
-675 -833 -308 -201 -940 -392 -1532 -463 -224 -27 -847 -38 -1100 -20 -640
47 -1089 180 -1511 448 -197 126 -276 187 -409 322 -253 257 -370 501 -371
781 -1 129 10 204 47 318 101 312 374 654 694 869 426 286 1107 496 1760 543
85 6 196 15 245 19 133 12 295 12 430 1z m5540 -767 c0 -257 5 -476 13 -568
41 -472 93 -910 162 -1360 22 -143 40 -267 40 -276 0 -14 -21 -17 -145 -22
-158 -8 -411 -29 -623 -52 -74 -8 -144 -15 -157 -15 -20 0 -63 59 -271 368
-309 460 -537 793 -540 789 -1 -1 2 -139 6 -307 5 -168 12 -454 15 -636 l7
-331 -153 -7 c-197 -9 -459 -31 -668 -56 -91 -11 -167 -17 -170 -14 -3 3 -9
510 -13 1127 -4 617 -10 1155 -14 1195 l-6 72 199 0 c238 0 465 14 662 40 80
11 145 19 146 17 1 -1 19 -33 40 -72 87 -161 291 -474 439 -673 l91 -123 3 44
c2 25 -6 200 -18 389 -11 188 -24 447 -27 575 l-6 232 34 5 c19 3 205 17 414
32 341 23 540 39 540 43 0 0 0 -187 0 -416z m-9238 210 c10 -45 6 -784 -4
-1038 l-8 -180 -45 -3 c-120 -7 -411 -34 -642 -59 -256 -28 -258 -28 -258 -51
0 -38 77 -564 130 -891 28 -167 50 -304 50 -306 0 -2 -46 -6 -102 -9 -219 -15
-443 -54 -623 -111 -44 -13 -83 -25 -87 -25 -5 0 -8 286 -8 636 l0 635 -57 -6
c-302 -33 -615 -100 -863 -186 -80 -27 -153 -52 -162 -55 -12 -5 -19 3 -26 28
-5 18 -24 81 -41 140 -58 197 -101 416 -140 718 -17 126 -50 460 -51 506 0 6
21 14 48 17 26 3 139 20 252 36 946 138 1870 226 2532 239 l97 2 8 -37z
m-7734 -218 c135 -179 368 -524 479 -710 323 -544 535 -1059 622 -1516 l22
-117 -100 -6 c-286 -18 -559 -44 -814 -78 -89 -12 -165 -18 -168 -15 -4 4 3
86 15 184 34 284 26 439 -23 428 -22 -6 -650 -89 -752 -100 l-61 -7 4 -177 c3
-97 1 -192 -4 -211 -11 -41 14 -39 -299 -25 -117 5 -263 4 -418 -5 -130 -6
-239 -10 -241 -8 -10 9 86 347 273 963 127 419 425 1389 427 1392 4 6 872 181
890 180 12 -1 65 -62 148 -172z m3332 146 c563 -96 978 -408 1145 -860 55
-149 73 -260 74 -436 0 -290 -67 -513 -229 -756 -151 -227 -384 -397 -650
-474 -179 -52 -323 -68 -614 -67 l-263 0 8 -131 c9 -157 8 -659 -1 -726 l-6
-47 -112 13 c-217 25 -485 43 -721 50 l-238 6 6 40 c16 98 56 437 70 587 37
398 41 509 40 1140 0 662 -5 797 -54 1324 -11 115 -20 215 -20 222 0 26 228
81 451 109 228 29 332 34 664 30 277 -3 349 -6 450 -24z"/>
<path d="M20255 11094 c-173 -33 -366 -112 -462 -191 -96 -78 -123 -183 -70
-273 119 -203 390 -300 797 -287 291 10 449 58 572 175 126 120 153 210 93
307 -111 179 -622 327 -930 269z"/>
<path d="M8730 10945 c0 -320 -16 -291 139 -249 146 40 266 97 312 150 67 77
66 181 -2 257 -68 78 -196 117 -386 117 l-63 0 0 -275z"/>
<path d="M12230 10760 c0 -224 3 -280 13 -280 7 0 49 9 93 21 277 72 394 157
394 283 -1 140 -100 217 -314 242 -61 7 -128 13 -148 14 l-38 0 0 -280z"/>
<path d="M4510 12526 l0 -105 -42 -5 c-24 -3 -101 -10 -173 -16 -797 -68
-1608 -321 -2114 -660 -327 -220 -634 -591 -770 -931 -184 -462 -103 -909 243
-1339 127 -158 348 -358 511 -463 405 -260 1265 -471 2245 -552 319 -26 840
-45 840 -30 0 3 -32 135 -70 293 -153 621 -241 1043 -274 1315 -8 65 -16 120
-18 123 -2 2 -49 -14 -104 -36 -195 -76 -385 -113 -499 -95 -57 8 -105 49
-105 90 0 80 164 129 520 155 79 6 145 12 146 13 1 1 -4 72 -11 157 -25 294
-37 758 -37 1473 l-1 717 -143 0 -144 0 0 -104z m-35 -623 c-11 -438 16 -948
65 -1212 20 -109 18 -120 -20 -121 -36 -1 -222 -54 -316 -91 -308 -120 -365
-260 -175 -431 86 -77 188 -128 321 -159 60 -14 258 -18 303 -6 l27 7 0 -62
c0 -169 52 -473 130 -759 28 -100 50 -183 50 -185 0 -14 -476 7 -730 31 -687
67 -1376 242 -1682 427 -199 120 -417 312 -542 478 -72 95 -159 272 -186 375
-27 106 -36 250 -21 356 14 97 66 259 112 351 97 192 293 435 479 591 460 388
1178 630 1975 667 88 4 173 8 188 8 l29 2 -7 -267z"/>
<path d="M6540 12363 l0 -91 -32 -6 c-104 -18 -542 -60 -1228 -116 -201 -17
-386 -33 -412 -36 l-48 -7 0 -76 c0 -241 175 -1390 351 -2306 38 -196 133
-649 145 -687 5 -15 9 -15 61 3 105 36 372 98 510 119 181 27 493 37 673 21
74 -7 225 -25 335 -41 110 -15 230 -31 267 -35 80 -8 73 -18 118 165 37 151
53 247 90 525 16 127 35 267 41 313 7 45 10 85 7 87 -3 3 -45 -3 -94 -14 -108
-24 -306 -48 -471 -57 l-123 -7 0 34 c0 19 7 90 15 159 62 536 109 1421 104
1968 l-2 162 -47 0 c-26 0 -95 3 -153 7 l-107 6 0 -90z m-6 -610 c9 -289 -8
-672 -50 -1088 -17 -173 -81 -736 -89 -779 l-5 -28 183 6 c100 4 271 14 381
22 243 17 226 17 226 -3 0 -35 -72 -307 -95 -359 l-24 -54 -131 0 c-348 0
-867 -62 -1288 -154 -86 -19 -159 -33 -161 -31 -2 3 -19 80 -38 172 -92 456
-170 1081 -243 1958 -16 198 -32 370 -34 383 -2 13 2 25 8 27 6 2 218 22 471
45 253 23 541 52 640 64 99 13 194 24 211 25 l31 1 7 -207z"/>
<path d="M17752 8340 c-49 -46 -16 -124 53 -124 45 0 75 28 75 71 0 66 -79 98
-128 53z"/>
<path d="M22610 8265 l-64 -65 53 0 c49 0 58 4 132 61 43 34 79 63 79 65 0 2
-31 4 -68 4 l-68 0 -64 -65z"/>
<path d="M16550 7940 l0 -350 65 0 65 0 0 100 0 100 87 0 c240 0 358 74 371
233 5 72 -27 157 -76 197 -66 55 -140 70 -338 70 l-174 0 0 -350z m361 230
c115 -32 133 -190 27 -247 -24 -12 -63 -18 -145 -21 l-113 -4 0 141 0 141 98
0 c53 0 113 -5 133 -10z"/>
<path d="M20701 8119 c-123 -36 -199 -150 -189 -283 11 -133 92 -219 230 -245
92 -17 209 11 253 59 18 20 12 42 -23 73 -19 17 -21 17 -67 -8 -58 -30 -122
-33 -181 -6 -45 20 -84 63 -84 92 0 18 12 19 206 19 l207 0 -5 64 c-14 174
-176 284 -347 235z m148 -104 c37 -19 81 -71 81 -96 0 -18 -9 -19 -150 -19
l-150 0 10 26 c34 88 131 130 209 89z"/>
<path d="M21875 8114 c-22 -8 -52 -26 -67 -41 l-28 -27 0 37 0 37 -60 0 -60 0
0 -265 0 -265 65 0 65 0 0 156 c0 125 3 163 17 191 21 46 67 73 121 73 l42 0
0 60 c0 59 0 60 -27 59 -16 0 -46 -7 -68 -15z"/>
<path d="M23465 8123 c-44 -10 -111 -34 -128 -47 -17 -13 -17 -16 4 -52 13
-22 24 -41 25 -43 2 -2 23 6 46 17 42 19 88 26 155 23 41 -1 93 -52 93 -91 l0
-28 -117 -4 c-97 -3 -125 -8 -160 -26 -51 -26 -75 -68 -75 -128 0 -96 75 -157
191 -157 73 1 114 13 149 45 l22 21 0 -31 0 -32 60 0 60 0 0 173 c0 201 -11
255 -62 304 -18 17 -55 38 -81 47 -44 15 -136 20 -182 9z m195 -337 c0 -48 -8
-63 -43 -85 -52 -32 -136 -32 -167 -1 -36 36 -21 94 30 113 8 3 52 6 98 6 l82
1 0 -34z"/>
<path d="M17740 7855 l0 -265 65 0 65 0 0 265 0 265 -65 0 -65 0 0 -265z"/>
<path d="M18482 8073 l3 -48 138 -3 c75 -1 137 -5 137 -7 0 -3 -63 -81 -140
-174 -130 -157 -140 -172 -140 -210 l0 -41 230 0 230 0 0 50 0 49 -149 3 -149
3 144 175 c129 156 144 178 144 212 l0 38 -226 0 -225 0 3 -47z"/>
<path d="M19502 8073 l3 -48 138 -3 c75 -1 137 -5 137 -7 0 -3 -63 -81 -140
-174 -130 -157 -140 -172 -140 -210 l0 -41 230 0 230 0 0 50 0 49 -149 3 -149
3 144 175 c129 156 144 178 144 212 l0 38 -226 0 -225 0 3 -47z"/>
<path d="M22560 7855 l0 -265 65 0 65 0 0 265 0 265 -65 0 -65 0 0 -265z"/>
<path d="M10 8 c0 -5 6346 -7 14103 -6 7756 2 11803 4 8992 5 -13792 7 -23095
7 -23095 1z"/>
</g>
</svg>
