<?xml version="1.0" standalone="no"?>
<!DOCTYPE svg PUBLIC "-//W3C//DTD SVG 20010904//EN"
 "http://www.w3.org/TR/2001/REC-SVG-20010904/DTD/svg10.dtd">
<svg version="1.0" xmlns="http://www.w3.org/2000/svg"
 viewBox="0 0 2482 1820" preserveAspectRatio="xMidYMid meet">

<g transform="translate(0.000000,1820.000000) scale(0.100000,-0.100000)"
fill="#000000" stroke="none">
<path d="M0 9100 l0 -9100 12410 0 12410 0 0 9100 0 9100 -12410 0 -12410 0 0
-9100z m24795 0 l0 -9075 -12385 0 -12385 0 -3 9065 c-1 4986 0 9071 3 9078 3
10 2486 12 12387 10 l12383 -3 0 -9075z"/>
<path d="M10470 13860 l0 -210 -25 0 -25 0 0 -708 0 -708 618 -168 c339 -93
645 -177 680 -187 l62 -18 0 895 0 894 -400 0 -400 0 0 210 0 210 -70 0 -70 0
-2 -207 -3 -208 -112 -3 -113 -3 0 211 0 210 -70 0 -70 0 0 -210z m210 -420
l0 -121 -82 3 -83 3 -3 118 -3 117 86 0 85 0 0 -120z m230 0 l0 -120 -85 0
-85 0 0 120 0 120 85 0 85 0 0 -120z m220 0 l0 -120 -80 0 -80 0 0 120 0 120
80 0 80 0 0 -120z m230 0 l0 -120 -85 0 -85 0 0 120 0 120 85 0 85 0 0 -120z
m250 0 l0 -120 -85 0 -85 0 0 120 0 120 85 0 85 0 0 -120z"/>
<path d="M5946 13958 c-7 -129 -78 -2790 -74 -2793 2 -2 590 -5 1307 -7 l1304
-3 -7 140 c-3 77 -6 411 -6 743 l0 602 -305 0 -305 0 -2 164 -3 164 -229 -159
c-127 -87 -233 -159 -238 -159 -4 0 -8 72 -8 160 0 88 -3 160 -6 160 -3 0 -67
-53 -142 -118 -75 -64 -164 -140 -196 -167 l-59 -50 6 168 c4 92 4 167 1 167
-3 0 -102 -79 -220 -175 -159 -130 -214 -181 -215 -198 0 -12 -19 -276 -43
-587 l-42 -565 -7 135 c-4 74 -23 657 -43 1295 -19 638 -37 1166 -39 1173 -3
9 -55 12 -214 12 l-209 0 -6 -102z m1514 -1853 l0 -135 -95 0 -95 0 0 135 0
135 95 0 95 0 0 -135z m370 0 l0 -135 -95 0 -95 0 0 135 0 135 95 0 95 0 0
-135z m340 0 l0 -135 -95 0 -95 0 0 128 c0 71 3 132 7 135 3 4 46 7 95 7 l88
0 0 -135z m-712 -362 l3 -133 -96 0 -95 0 0 128 c0 71 3 132 7 136 4 4 46 5
93 4 l85 -3 3 -132z m370 0 l3 -133 -96 0 -95 0 0 128 c0 71 3 132 7 136 4 4
46 5 93 4 l85 -3 3 -132z m342 2 l0 -135 -95 0 -95 0 0 128 c0 71 3 132 7 135
3 4 46 7 95 7 l88 0 0 -135z"/>
<path d="M12625 14038 c-2 -7 -15 -537 -29 -1178 -14 -641 -27 -1217 -28
-1280 l-3 -115 208 -3 207 -2 0 62 c0 67 -95 2241 -106 2421 l-6 107 -119 0
c-87 0 -121 -3 -124 -12z"/>
<path d="M15360 13005 l0 -155 38 16 c20 8 110 45 199 82 90 36 160 69 155 73
-6 7 -377 139 -388 139 -2 0 -4 -70 -4 -155z"/>
<path d="M14620 13011 l0 -131 23 9 c78 30 303 125 309 130 4 4 -63 31 -150
61 -86 29 -163 55 -169 58 -10 3 -13 -26 -13 -127z"/>
<path d="M14960 12973 c-190 -79 -353 -145 -362 -149 -17 -5 -18 6 -18 130 0
75 -3 136 -7 136 -8 0 -713 -287 -718 -292 -2 -2 -7 -313 -11 -691 l-7 -687
-994 0 -993 0 0 -110 0 -110 538 0 c296 0 1053 -3 1682 -7 l1143 -6 -7 279 -7
279 450 209 450 208 3 467 c2 256 1 469 -2 472 -3 4 -178 -65 -389 -152 -211
-88 -388 -159 -392 -159 -5 0 -10 73 -11 163 l-3 163 -345 -143z m-532 -95
l-3 -52 -99 -43 c-55 -24 -101 -43 -103 -43 -2 0 -3 24 -1 52 l3 53 95 42 c52
23 99 42 103 42 4 1 7 -22 5 -51z m730 0 l-3 -52 -95 -42 c-52 -24 -99 -43
-103 -43 -4 -1 -7 22 -5 51 l3 52 95 42 c52 24 99 43 103 43 4 1 7 -22 5 -51z
m780 0 l-3 -52 -95 -42 c-52 -24 -99 -43 -103 -43 -4 -1 -7 22 -5 51 l3 52 95
42 c52 24 99 43 103 43 4 1 7 -22 5 -51z m-1768 -117 l0 -49 -94 -41 c-51 -23
-98 -41 -105 -41 -19 0 -14 88 7 101 27 17 166 77 180 78 8 1 12 -15 12 -48z
m728 -1 l-3 -51 -90 -39 c-49 -22 -93 -40 -98 -40 -4 0 -7 23 -5 51 l3 50 85
39 c47 21 91 39 98 39 9 1 12 -13 10 -49z m780 0 l-3 -51 -90 -39 c-49 -22
-93 -40 -98 -40 -4 0 -7 23 -5 51 l3 50 85 39 c47 21 91 39 98 39 9 1 12 -13
10 -49z"/>
<path d="M16180 12650 l0 -449 63 28 c34 16 136 63 227 106 l165 76 298 -56
c164 -32 301 -55 304 -52 3 4 2 76 -3 162 l-9 157 -520 239 c-286 131 -521
239 -522 239 -2 0 -3 -202 -3 -450z m196 223 l94 -38 0 -52 0 -53 -52 21 c-29
12 -73 29 -98 39 -44 17 -45 18 -48 69 -2 28 0 51 4 51 4 0 49 -17 100 -37z
m225 -97 l84 -34 3 -51 c4 -61 4 -61 -98 -18 l-75 33 -3 52 c-2 28 -1 52 1 52
2 0 41 -15 88 -34z m279 -116 c44 -17 45 -18 48 -69 2 -28 0 -51 -5 -51 -4 0
-49 17 -100 37 l-93 36 0 54 0 53 53 -21 c28 -12 72 -29 97 -39z m288 -169 c2
-28 1 -51 -2 -51 -3 0 -46 16 -96 36 l-90 36 0 53 0 54 93 -39 92 -39 3 -50z"/>
<path d="M8637 12783 c-4 -65 -14 -298 -22 -518 -9 -220 -18 -415 -21 -432 -4
-30 -8 -33 -39 -33 l-35 0 0 -320 0 -320 395 0 395 0 0 218 c0 119 3 226 6
238 4 15 79 60 267 162 l262 141 3 155 3 156 -83 0 -83 0 -100 126 -100 126
-5 -125 -5 -125 -107 124 -106 123 -7 -107 c-3 -59 -7 -113 -8 -119 -1 -7 -47
43 -102 112 -55 68 -102 124 -105 124 -3 1 -4 -154 -2 -344 l4 -345 -95 0 -96
0 -5 53 c-3 28 -17 261 -31 517 -14 256 -28 480 -31 498 l-5 32 -68 0 -68 0
-6 -117z m453 -1468 l0 -145 -230 0 -230 0 0 145 0 145 230 0 230 0 0 -145z"/>
<path d="M11822 12453 l3 -47 200 -41 200 -41 3 -432 2 -432 40 0 40 0 0 420
c0 393 1 420 18 420 9 0 55 -9 102 -20 115 -26 110 -28 110 28 l0 47 -353 73
c-193 40 -356 73 -360 72 -4 0 -7 -21 -5 -47z"/>
<path d="M16685 11913 c3 -246 8 -512 11 -591 l6 -143 1227 6 c674 3 1349 8
1499 11 l272 6 0 288 0 288 -22 5 c-13 3 -682 132 -1488 286 -806 155 -1475
283 -1488 286 l-23 6 6 -448z m845 103 l635 -112 9 -97 c5 -54 7 -99 5 -102
-3 -2 -304 42 -669 98 l-665 102 -3 117 -3 118 28 -6 c15 -3 314 -56 663 -118z
m1385 -216 c352 -55 650 -102 663 -105 21 -5 22 -11 22 -85 l0 -80 -37 5 c-38
6 -1290 155 -1299 155 -2 0 -4 47 -4 105 0 58 3 105 7 105 4 0 296 -45 648
-100z"/>
<path d="M15930 12035 c-360 -167 -661 -308 -668 -312 -11 -6 -13 -58 -12
-246 0 -131 3 -251 6 -266 l6 -29 372 -6 c204 -3 507 -8 674 -10 l302 -5 0
303 c0 369 -11 876 -19 876 -3 0 -301 -137 -661 -305z"/>
<path d="M12995 12213 c4 -27 8 -49 10 -51 2 -2 51 -13 109 -25 l106 -22 0
-327 0 -328 40 0 40 0 2 318 3 319 225 -48 c124 -26 233 -48 243 -49 15 0 18
7 15 47 l-3 46 -395 83 c-217 46 -397 83 -399 84 -2 0 0 -21 4 -47z"/>
<path d="M10460 11688 l0 -495 657 -6 c361 -4 658 -5 661 -3 4 5 3 628 -1 633
-2 1 -292 81 -646 178 -354 97 -649 179 -657 182 -12 4 -14 -69 -14 -489z
m303 266 c78 -19 159 -39 180 -45 l37 -10 0 -339 0 -340 -190 0 -190 0 0 385
c0 262 3 385 11 385 5 0 74 -16 152 -36z m595 -159 c9 -3 12 -70 12 -285 l0
-280 -155 0 -155 0 0 319 0 318 143 -33 c78 -19 148 -36 155 -39z m237 -73
l110 -28 3 -232 2 -232 -125 0 -125 0 0 260 c0 201 3 260 13 260 6 0 62 -13
122 -28z"/>
<path d="M9880 11889 c-278 -149 -506 -272 -507 -273 0 0 -4 -103 -9 -228 l-7
-228 517 0 516 0 0 500 c0 275 -1 500 -2 500 -2 0 -230 -122 -508 -271z m380
-7 l0 -77 -145 -73 -145 -72 0 78 0 77 143 72 c78 40 143 72 145 72 1 1 2 -34
2 -77z m-480 -235 l0 -62 -125 -63 c-69 -34 -127 -62 -130 -62 -3 0 -5 29 -5
65 l0 65 118 59 c64 33 123 60 130 60 8 1 12 -18 12 -62z"/>
<path d="M18836 10718 c-6 -108 -107 -3876 -106 -3987 l0 -64 433 8 c237 4
433 8 434 9 1 0 -31 930 -70 2066 l-72 2065 -307 3 -306 2 -6 -102z"/>
<path d="M5900 8740 l0 -2070 985 0 985 0 0 385 0 385 -645 0 -645 0 0 545 0
545 645 0 645 0 0 380 0 380 -645 0 -645 0 0 375 0 375 645 0 645 0 0 385 0
385 -985 0 -985 0 0 -2070z"/>
<path d="M14006 10733 c-251 -768 -1316 -4047 -1316 -4053 0 -6 132 -10 343
-10 l343 0 18 58 c10 31 72 222 138 425 l119 367 716 -2 715 -3 94 -295 c52
-162 113 -352 135 -422 l40 -128 344 0 c190 0 345 1 345 3 0 1 -301 931 -669
2067 l-668 2065 -336 3 -335 2 -26 -77z m597 -1738 c125 -379 227 -696 227
-702 0 -10 -100 -13 -465 -13 -256 0 -465 3 -465 8 -1 21 465 1411 470 1405 4
-5 109 -318 233 -698z"/>
<path d="M16210 8741 l0 -2071 395 0 395 0 0 798 0 799 223 6 c334 10 493 40
666 126 268 133 448 409 515 791 41 234 46 605 11 805 -77 432 -275 650 -685
755 -178 45 -291 52 -922 57 l-598 5 0 -2071z m1450 839 l0 -560 -330 0 -330
0 0 560 0 560 330 0 330 0 0 -560z"/>
<path d="M8836 10743 c-11 -51 -696 -4050 -696 -4062 0 -8 102 -11 368 -11
l369 0 15 93 c9 50 116 716 239 1479 123 763 224 1386 225 1385 2 -1 102 -650
224 -1442 121 -792 223 -1457 227 -1478 l6 -37 283 2 284 3 733 1477 c402 812
733 1476 734 1474 1 -1 -117 -661 -263 -1466 -145 -806 -264 -1471 -264 -1477
0 -10 80 -13 365 -13 l365 0 5 23 c10 43 695 4046 695 4061 0 15 -47 16 -492
14 l-491 -3 -736 -1482 c-404 -816 -737 -1483 -740 -1483 -3 0 -107 656 -230
1458 -123 801 -226 1469 -228 1485 l-5 27 -493 0 -493 0 -6 -27z"/>
</g>
</svg>
