<?xml version="1.0" standalone="no"?>
<!DOCTYPE svg PUBLIC "-//W3C//DTD SVG 20010904//EN"
 "http://www.w3.org/TR/2001/REC-SVG-20010904/DTD/svg10.dtd">
<svg version="1.0" xmlns="http://www.w3.org/2000/svg"
 viewBox="0 0 2975 2100" preserveAspectRatio="xMidYMid meet">

<g transform="translate(0.000000,2100.000000) scale(0.100000,-0.100000)"
fill="#000000" stroke="none">
<path d="M12 10503 l-2 -10493 14870 0 14870 0 -2 10493 -3 10492 -2 -10487
-3 -10488 -14860 0 -14860 0 -3 10488 -2 10487 -3 -10492z"/>
<path d="M14865 15885 c-1348 -59 -2652 -247 -3809 -551 -115 -30 -210 -53
-212 -51 -2 2 9 103 24 225 l28 222 -35 0 c-63 0 -5954 -339 -5957 -343 -4 -3
167 -3087 181 -3289 l6 -88 -857 -2 -857 -3 1 -185 c6 -672 24 -1900 28 -1927
l5 -33 899 0 900 0 0 -27 c0 -16 9 -165 19 -333 11 -168 66 -1131 122 -2140
56 -1009 104 -1837 106 -1840 3 -3 4688 270 5091 297 l82 6 -6 105 c-7 101 -6
105 12 98 32 -12 248 -72 454 -125 1013 -262 2166 -442 3300 -516 829 -53
1822 -53 2630 0 490 33 1291 118 1603 170 l27 5 0 -270 0 -270 2773 2 2772 3
-2767 2 -2768 3 -2 713 c-2 488 -4 577 -5 282 -2 -236 -7 -432 -11 -436 -18
-19 -634 -99 -1059 -139 -653 -62 -1154 -84 -1883 -84 -1029 0 -1844 57 -2800
195 -737 106 -1654 300 -2197 465 l-81 25 -6 122 c-10 192 -46 1200 -44 1203
3 2 338 -181 554 -301 l62 -35 547 710 c301 391 550 710 553 710 4 0 252 -569
551 -1265 300 -695 548 -1269 551 -1275 5 -7 486 215 1326 611 725 342 1323
625 1327 629 5 4 -57 108 -139 231 -81 123 -542 882 -1025 1687 l-879 1463
1331 1717 c732 944 1336 1722 1341 1727 6 6 7 -230 2 -647 -7 -642 -7 -658 12
-658 10 0 383 12 827 26 444 15 811 24 814 20 3 -3 33 -1278 66 -2833 32
-1556 60 -2829 61 -2830 1 -1 240 38 531 87 667 113 753 126 1283 199 239 33
437 62 440 65 3 3 -26 1218 -65 2699 -39 1480 -70 2694 -68 2696 2 2 289 27
637 57 348 29 634 53 636 54 1 0 2 371 2 825 l0 825 -52 0 c-95 0 -4891 -140
-4995 -146 l-103 -6 0 -74 c0 -41 -4 -74 -9 -74 -6 0 -11 -19 -13 -43 l-3 -42
-1320 91 c-726 51 -1357 95 -1401 98 l-82 7 -558 -905 c-308 -497 -562 -901
-566 -898 -4 4 -243 428 -532 942 -366 652 -530 936 -543 938 -10 1 -227 -46
-483 -106 l-465 -109 -3 26 c-2 27 112 979 119 986 18 17 676 176 1059 255
1601 330 3440 445 5190 325 2799 -191 5355 -985 7000 -2174 270 -195 622 -493
801 -678 752 -777 1114 -1592 1086 -2448 -14 -416 -109 -793 -303 -1190 -470
-967 -1499 -1865 -2919 -2547 -298 -143 -666 -304 -775 -338 -21 -7 -19 -8 16
-9 22 -1 44 3 50 7 5 5 41 21 79 37 2013 819 3388 2039 3759 3335 84 293 111
486 110 795 0 368 -46 630 -171 975 -208 574 -602 1120 -1188 1649 -1570 1415
-4400 2390 -7560 2606 -653 45 -1577 57 -2210 30z m-4465 -1135 c-39 -316 -87
-705 -106 -865 -19 -159 -37 -296 -39 -302 -3 -10 -316 -13 -1520 -13 l-1515
0 1 -87 c0 -49 12 -398 27 -778 l27 -690 -904 -3 c-497 -1 -905 -1 -906 0 -2
3 -173 3022 -171 3025 3 5 5171 298 5174 293 1 -3 -30 -264 -68 -580z m11140
-1020 c0 -408 -3 -522 -12 -525 -7 -2 -296 -27 -643 -56 -346 -28 -631 -52
-631 -53 -1 0 31 -1218 70 -2706 40 -1488 72 -2706 71 -2707 -2 -4 -1455 -203
-1481 -203 -13 0 -24 6 -24 13 1 97 -142 5613 -145 5616 -3 2 -368 -4 -812
-13 -445 -9 -834 -16 -865 -16 l-58 0 0 520 0 520 38 1 c20 0 975 29 2122 63
1147 35 2149 64 2228 65 l142 1 0 -520z m-9407 -697 c398 -709 605 -1069 612
-1062 5 5 298 476 651 1047 574 928 644 1037 665 1035 13 -1 502 -34 1087 -74
584 -41 1061 -77 1060 -81 -2 -3 -583 -754 -1291 -1668 -864 -1113 -1287
-1666 -1283 -1676 3 -9 427 -718 942 -1576 515 -858 932 -1563 928 -1568 -13
-11 -1866 -952 -1868 -948 -2 2 -279 604 -616 1338 -337 734 -616 1341 -620
1348 -5 10 -217 -226 -669 -743 l-662 -756 -42 24 c-23 13 -162 86 -309 162
-148 76 -268 142 -268 146 0 4 298 456 662 1006 363 549 743 1122 843 1273
l181 276 -691 1694 c-381 932 -691 1696 -690 1698 5 6 750 180 763 179 7 -1
284 -484 615 -1074z m-1807 140 c-3 -16 -29 -283 -58 -595 l-53 -568 -1281 0
-1282 0 -6 118 c-3 64 -13 302 -21 527 -8 226 -17 438 -19 472 l-4 62 57 4
c31 2 645 4 1364 5 l1309 2 -6 -27z m798 -1146 c485 -1037 656 -1417 656
-1453 0 -24 -422 -651 -864 -1284 -225 -322 -417 -594 -427 -605 -19 -19 -19
-2 -19 713 l0 732 -3398 0 -3399 0 -6 408 c-4 224 -10 586 -14 805 l-6 397
3406 0 3405 0 6 28 c3 15 33 330 68 700 34 369 65 672 68 672 3 0 239 -501
524 -1113z m-3761 -2304 c3 -76 22 -570 43 -1098 20 -528 39 -962 40 -964 4
-5 2459 56 2626 64 l107 6 5 -43 c6 -54 59 -1509 54 -1513 -6 -5 -4422 -264
-4427 -259 -3 3 -27 384 -53 847 -90 1603 -157 2823 -164 2960 l-7 137 885 0
885 0 6 -137z m2837 -706 l0 -842 -24 -36 -25 -36 -198 -7 c-370 -12 -2145
-57 -2148 -54 -3 4 -53 1297 -62 1601 l-6 217 1231 0 1232 0 0 -843z"/>
<path d="M23110 13114 c-398 -46 -710 -139 -1006 -299 -624 -339 -1088 -932
-1265 -1614 -53 -204 -70 -337 -76 -573 -7 -286 11 -462 72 -708 113 -451 376
-901 715 -1223 412 -391 927 -632 1495 -698 221 -25 563 -10 795 37 571 115
1114 446 1486 907 523 648 697 1523 463 2334 -68 237 -179 475 -318 684 -114
172 -196 272 -327 403 -395 395 -889 645 -1444 731 -100 16 -507 29 -590 19z
m560 -553 c724 -128 1326 -632 1576 -1321 86 -235 118 -426 118 -700 0 -218
-12 -325 -59 -510 -199 -788 -859 -1387 -1673 -1517 -149 -24 -487 -24 -632 0
-440 74 -819 268 -1131 579 -267 268 -448 586 -538 948 -47 188 -56 268 -56
500 0 232 9 311 56 500 143 579 542 1073 1084 1343 170 84 424 162 610 186 44
6 94 13 110 15 80 11 425 -3 535 -23z"/>
<path d="M23150 12039 c-531 -59 -995 -400 -1210 -888 -323 -735 -18 -1590
698 -1954 356 -182 768 -214 1147 -91 232 75 468 224 628 397 272 293 409 640
410 1032 0 172 -12 267 -54 414 -75 263 -201 476 -395 666 -324 319 -772 474
-1224 424z m268 -600 c629 -70 988 -741 696 -1299 -114 -217 -304 -372 -550
-446 -78 -24 -106 -27 -234 -28 -157 -1 -235 15 -365 71 -247 109 -435 330
-506 598 -31 116 -31 307 -1 428 60 240 206 435 422 563 115 68 238 103 428
123 7 0 56 -4 110 -10z"/>
<path d="M15710 12443 c0 -106 111 -4357 114 -4361 6 -5 2008 87 2014 92 3 4
-50 914 -117 2024 -68 1109 -125 2076 -128 2147 -2 72 -6 140 -9 153 l-4 22
-935 0 -935 0 0 -77z m1574 -365 c18 -387 95 -3433 86 -3438 -10 -6 -1239 -74
-1244 -69 -2 4 -97 3552 -96 3612 l0 27 624 0 624 0 6 -132z"/>
<path d="M21327 6250 c-92 -24 -169 -88 -209 -175 -19 -42 -23 -67 -23 -150 0
-89 3 -106 28 -157 51 -104 141 -158 262 -158 46 0 74 6 111 25 27 14 51 25
52 25 2 0 2 -43 0 -95 -3 -90 -4 -96 -33 -125 -77 -76 -205 -26 -205 80 0 20
-5 21 -97 18 -96 -3 -98 -4 -102 -28 -7 -54 20 -131 62 -177 50 -54 93 -77
175 -93 179 -36 347 44 387 183 14 50 16 98 13 325 -3 263 -4 268 -29 322 -37
79 -72 115 -143 150 -70 35 -178 47 -249 30z m148 -174 c46 -20 69 -66 69
-141 0 -101 -46 -155 -132 -155 -73 0 -122 61 -122 152 0 67 25 117 71 140 41
22 69 22 114 4z"/>
<path d="M23337 6250 c-92 -24 -169 -88 -209 -175 -19 -42 -23 -67 -23 -150 0
-89 3 -106 28 -157 51 -104 141 -158 262 -158 46 0 74 6 111 25 27 14 51 25
52 25 2 0 2 -43 0 -95 -3 -90 -4 -96 -33 -125 -77 -76 -205 -26 -205 80 0 20
-5 21 -97 18 -96 -3 -98 -4 -102 -28 -7 -54 20 -131 62 -177 50 -54 93 -77
175 -93 179 -36 347 44 387 183 14 50 16 98 13 325 -3 263 -4 268 -29 322 -37
79 -72 115 -143 150 -70 35 -178 47 -249 30z m148 -174 c46 -20 69 -66 69
-141 0 -101 -46 -155 -132 -155 -73 0 -122 61 -122 152 0 67 25 117 71 140 41
22 69 22 114 4z"/>
<path d="M19040 5745 l0 -506 98 3 97 3 3 207 2 208 163 2 162 3 3 83 3 82
-166 0 -165 0 0 125 0 125 245 0 246 0 -3 83 -3 82 -342 3 -343 2 0 -505z"/>
<path d="M19847 6243 c-4 -3 -7 -231 -7 -505 l0 -499 98 3 97 3 5 328 5 327
79 -125 80 -125 57 0 57 0 81 127 81 126 0 -315 c0 -174 3 -323 6 -332 5 -13
24 -16 100 -16 l94 0 0 505 0 505 -95 0 -96 0 -76 -117 c-42 -65 -93 -145
-114 -177 l-37 -59 -100 154 c-55 85 -107 164 -117 177 -14 20 -24 22 -104 22
-48 0 -91 -3 -94 -7z"/>
<path d="M22115 6221 c-8 -16 -69 -154 -135 -306 -115 -265 -120 -279 -120
-345 l0 -70 230 0 229 0 3 -127 3 -128 95 0 95 0 3 127 3 127 42 3 42 3 0 80
0 80 -42 3 -42 3 -3 102 -3 102 -95 0 -95 0 -3 -102 -3 -103 -115 0 c-107 0
-115 1 -110 18 4 10 58 137 121 281 63 145 115 267 115 272 0 5 -45 9 -100 9
l-99 0 -16 -29z"/>
<path d="M22793 5450 c-58 -35 -65 -125 -13 -175 59 -57 155 -35 180 41 35
106 -72 192 -167 134z"/>
</g>
</svg>
