<svg width="168" height="60" viewBox="0 0 168 60" fill="none" xmlns="http://www.w3.org/2000/svg">
<path fill-rule="evenodd" clip-rule="evenodd" d="M30.2252 32.5832C31.7913 33.3475 33.5015 33.7859 35.2485 33.8709H35.9048C38.0155 33.8709 40.093 33.3642 41.9574 32.3949L42.5342 32.073C43.7819 31.3361 44.8943 30.3983 45.8247 29.2989L46.2356 28.7876C47.666 26.9076 48.5352 24.6743 48.7457 22.3374C48.9562 20.0005 48.4999 17.6522 47.4277 15.5552C46.3556 13.4582 44.71 11.6953 42.675 10.4636C40.64 9.23197 38.2958 8.58013 35.9048 8.58106H35.2617C32.9597 8.69077 30.7297 9.40426 28.8044 10.6472C26.879 11.8901 25.3286 13.6169 24.3148 15.6477C23.3009 17.6785 22.8607 19.9389 23.0401 22.1934C23.2194 24.4478 24.0118 26.6138 25.3345 28.4657C26.1934 27.5282 27.178 26.7095 28.2614 26.0321C27.3151 24.602 26.8107 22.9339 26.8092 21.2289C26.8185 18.9831 27.687 16.8225 29.2428 15.1752C30.7985 13.5278 32.9279 12.5137 35.2095 12.3337L35.5553 12.3116H35.9048C37.5643 12.311 39.1923 12.7562 40.6122 13.599C42.032 14.4418 43.1894 15.65 43.9591 17.0925C44.7287 18.535 45.0811 20.1568 44.978 21.7819C44.8748 23.407 44.3202 24.9733 43.3741 26.311C43.3089 26.4063 43.2437 26.5004 43.1727 26.5899L42.9548 26.8607C42.1029 27.889 41.0281 28.7181 39.8085 29.2877C38.589 29.8572 37.2554 30.1529 35.9048 30.1531H35.2617C33.3366 30.3038 31.54 31.1607 30.23 32.553" fill="#111111"/>
<path fill-rule="evenodd" clip-rule="evenodd" d="M35.9046 25.1302C33.7944 25.1291 31.7164 25.638 29.8543 26.612C29.7619 26.655 29.6742 26.7061 29.5913 26.7538L29.2763 26.9292C28.0268 27.6671 26.9129 28.6061 25.9811 29.7068L25.807 29.9264L25.5702 30.217C24.3515 31.8228 23.5388 33.6896 23.1989 35.6637C22.859 37.6378 23.0015 39.6629 23.6149 41.5724C24.2283 43.4819 25.2949 45.2213 26.727 46.6474C28.1592 48.0736 29.916 49.1457 31.8528 49.7758C33.7897 50.4058 35.8513 50.5757 37.8681 50.2715C39.8849 49.9672 41.7993 49.1976 43.4538 48.0258C45.1084 46.854 46.4558 45.3136 47.3852 43.5312C48.3146 41.7489 48.7994 39.7755 48.7998 37.7734C48.8044 35.1848 47.9926 32.6582 46.4759 30.5401C45.6244 31.4751 44.6488 32.2936 43.5752 32.9736C44.4789 34.3587 44.9751 35.9619 45.0089 37.6062C45.0426 39.2505 44.6126 40.872 43.7664 42.2917C42.9203 43.7114 41.6908 44.8741 40.2136 45.6514C38.7365 46.4288 37.0691 46.7906 35.3957 46.6969C33.7222 46.6032 32.1076 46.0576 30.7302 45.1204C29.3528 44.1832 28.2661 42.8908 27.5901 41.3859C26.914 39.881 26.6749 38.222 26.8991 36.5921C27.1233 34.9623 27.8021 33.4249 28.8606 32.1497C30.196 30.5294 32.0675 29.4191 34.1503 29.0118C34.5009 28.9456 34.8539 28.9003 35.2093 28.8747C35.4189 28.8747 35.6475 28.848 35.8394 28.8445H35.8962C36.9633 28.8455 38.0191 28.6307 38.9978 28.2134C39.9764 27.796 40.8568 27.1852 41.584 26.419C39.8134 25.5685 37.8676 25.1275 35.8962 25.1302M79.423 35.5327V35.5711L79.6327 37.6281H81.8737V29.4151H75.634V31.7975H79.2656C79.1534 32.6904 78.7387 33.5204 78.0882 34.1544C77.6087 34.5926 77.0445 34.9323 76.4292 35.1535C75.8139 35.3746 75.1597 35.4727 74.5052 35.4421C73.8042 35.4546 73.1076 35.3314 72.4552 35.0796C71.8028 34.8277 71.2074 34.4521 70.7031 33.9743C69.6086 32.8969 69.0318 31.3478 69.0318 29.493C69.0318 27.6382 69.6358 26.0576 70.7811 25.007C71.7998 24.0657 73.1501 23.5462 74.549 23.559C75.704 23.5327 76.8342 23.8898 77.7565 24.5724C78.5418 25.179 79.1152 26.0104 79.397 26.9513L82.0217 25.9763C81.5622 24.5821 80.663 23.3672 79.4538 22.5072C78.0147 21.5105 76.2875 20.9931 74.5264 21.0313C73.4607 21.0267 72.4038 21.2199 71.4113 21.6007C70.4005 21.9794 69.4785 22.5552 68.7008 23.2932C67.9231 24.0313 67.306 24.9163 66.8867 25.8949C66.4144 27.0296 66.178 28.2454 66.1913 29.4709C66.1913 32.0044 67.036 34.1672 68.6421 35.7222C70.1651 37.1706 72.209 37.9712 74.3299 37.95C76.0806 37.95 78.3156 37.319 79.3922 35.5455L79.423 35.5327Z" fill="#111111"/>
<path fill-rule="evenodd" clip-rule="evenodd" d="M74.3394 37.9723C72.2179 37.9934 70.1736 37.1924 68.6505 35.7432C67.0455 34.1894 66.201 32.0255 66.201 29.4931C66.1875 28.2672 66.4239 27.051 66.8963 25.916C67.3158 24.9376 67.9329 24.0528 68.7106 23.3149C69.4883 22.5771 70.4103 22.0015 71.4209 21.623C72.4089 21.2354 73.4625 21.0343 74.5265 21.0303C76.2878 20.9925 78.0149 21.5102 79.4539 22.5074C80.6582 23.3693 81.5527 24.5839 82.0088 25.9764L79.3841 26.9515C79.1023 26.0106 78.5289 25.1791 77.7436 24.5725C76.8213 23.8899 75.691 23.5328 74.5361 23.5591C73.1372 23.5461 71.7874 24.0646 70.7694 25.006C69.6264 26.0799 69.0189 27.629 69.0189 29.492C69.0189 31.3561 69.5956 32.8971 70.6889 33.9744C71.1923 34.4596 71.7889 34.8419 72.444 35.0993C73.0991 35.3566 73.7997 35.4838 74.5053 35.4736C75.1599 35.5041 75.8141 35.4058 76.4294 35.1845C77.0448 34.9631 77.6089 34.6232 78.0883 34.1848C78.7398 33.5514 79.1543 32.7204 79.2657 31.8279H75.6341V29.4153H81.8774V37.6283H79.6387L79.4279 35.5712V35.5329L79.4054 35.5677C78.3299 37.34 76.0854 37.9711 74.343 37.9711M90.2836 30.725H97.035V28.2438H90.2836V23.8903H97.7386V21.3405H87.4917V37.6283H97.7386V35.0738H90.2836V30.725Z" fill="#111111"/>
<path fill-rule="evenodd" clip-rule="evenodd" d="M97.7397 37.6285H87.4917V21.3408H97.7385V23.8906H90.2836V28.2441H97.0349V30.7253H90.2836V35.0741H97.7385L97.7397 37.6285ZM103.383 21.3408V37.6285H106.171V25.2422L106.197 25.2771L114.4 37.6285H117.311V21.3408H114.522V32.945L114.496 32.9055L106.949 21.3408H103.383Z" fill="#111111"/>
<path fill-rule="evenodd" clip-rule="evenodd" d="M114.524 32.9442V21.34H117.311V37.6277H114.401L106.197 25.2763L106.171 25.2414V37.6277H103.383V21.34H106.949L114.497 32.9047L114.524 32.9442ZM130.467 28.5175L137.179 21.34H133.507L126.341 29.1835V21.3389H123.55V37.6277H126.341V32.9349L128.56 30.5525L128.568 30.5653L133.744 37.6277H137.254L130.463 28.5257L130.467 28.5175Z" fill="#111111"/>
<path fill-rule="evenodd" clip-rule="evenodd" d="M137.254 37.6277H133.744L128.568 30.5653L128.56 30.5525L126.341 32.9349V37.6277H123.554V21.34H126.341V29.1835L133.507 21.3389H137.179L130.467 28.5175L130.463 28.5257L137.254 37.6277ZM142.009 21.34H144.84V37.6277H142.009V21.34Z" fill="#111111"/>
<path fill-rule="evenodd" clip-rule="evenodd" d="M142.009 21.3408H144.84V37.6285H142.009V21.3408Z" fill="#111111"/>
</svg>
