<svg fill="none" height="60" viewBox="0 0 168 60" width="168" xmlns="http://www.w3.org/2000/svg" xmlns:xlink="http://www.w3.org/1999/xlink"><clipPath id="a"><path d="m23 20.8115h121.179v24.4528h-121.179z"/></clipPath><g clip-path="url(#a)" fill="#111"><path d="m142.885 30.0124c-.369-.3467-.875-.6447-1.494-.8879-.606-.2372-1.206-.4196-1.775-.5412-.562-.1156-1.262-.2311-2.081-.3406-.469-.0669-.831-.1155-1.075-.1459s-.538-.0791-.881-.146c-.332-.0608-.582-.1338-.738-.2128-.162-.0791-.337-.1886-.512-.3223-.163-.1217-.269-.2615-.332-.4197-.062-.1641-.1-.3709-.1-.6081 0-.6203.269-1.0946.819-1.4534.563-.3649 1.325-.5534 2.269-.5534s1.688.225 2.294.675c.594.444.944 1.0399 1.044 1.7697l.018.1338h3.563l-.013-.1642c-.106-1.6906-.8-3.0285-2.068-3.9772-1.263-.9426-2.907-1.4169-4.894-1.4169-1.932-.0244-3.525.4561-4.75 1.423-1.232.973-1.85 2.2683-1.85 3.8555 0 .8392.168 1.569.493 2.165.332.602.832 1.0885 1.488 1.4351.644.3345 1.312.596 2 .7724.675.1702 1.537.3284 2.562.4561h.019c.031 0 .1.006.213.0304h.012c.707.0851 1.232.1642 1.55.225.313.0608.663.1702 1.025.3162.338.1338.575.3223.7.5534.132.2432.2.5656.2.9426 0 .6142-.281 1.0885-.862 1.4473-.594.371-1.394.5534-2.381.5534-1.119 0-2.026-.2615-2.688-.7723-.663-.5108-1.019-1.1737-1.075-2.019l-.013-.1459h-3.562v.1581c.044 1.8.744 3.2352 2.087 4.2569 1.332 1.0156 3.1 1.5325 5.251 1.5325 1.968 0 3.612-.4865 4.881-1.4535 1.281-.973 1.931-2.2683 1.931-3.8555 0-.7237-.125-1.3744-.362-1.9278-.244-.5534-.557-1.0094-.925-1.3561z"/><path d="m122.216 21.3838c-2.394 0-4.194.8757-5.35 2.6089-.95-1.7332-2.581-2.6089-4.857-2.6089-1.925.0182-3.687.7237-4.8 1.9034v-1.721h-3.206v16.8209h3.631v-9.5659c-.006-1.5994.2-2.4994.857-3.2535.737-.8453 1.575-1.0946 2.656-1.0946 2.119 0 3.15 1.2831 3.15 3.9285v9.9794h3.663v-9.651c0-1.3257.325-2.3839.956-3.138.631-.7419 1.5-1.1189 2.588-1.1189 2.1 0 3.118 1.2831 3.118 3.9285v9.9794h3.632v-10.399c0-2.317-.563-3.8373-1.669-4.938-1.113-1.1007-2.581-1.6602-4.375-1.6602z"/><path d="m97.7462 23.1032c-1.4438-1.0642-3.2126-1.6237-5.1439-1.6237-2.3876 0-4.5501.9-6.0752 2.5298-1.4813 1.5811-2.3 3.7461-2.3 6.0934 0 4.9441 3.5251 8.5382 8.3752 8.5382 1.8813 0 3.6376-.5291 5.1002-1.5447h.025c-.0375.5595-.1563 1.1068-.3438 1.6176 0 .0122-.0125.0304-.0187.0487-.7813 1.9886-2.5063 3.2048-4.6314 3.2535-.0125 0-.025 0-.0438 0h-.0062c-2.0188 0-3.7001-1.0521-4.5689-2.8339h-3.5501c.4687 1.7149 1.4 3.1744 2.7188 4.2508 1.4563 1.1919 3.2939 1.8183 5.3127 1.8183h.0937.1313c1.9688-.0243 3.7626-.6568 5.1814-1.8183 1.9438-1.5872 3.0625-4.0684 3.0625-6.8049v-15.0634h-3.325v1.5386zm0 7.0543c0 .6568-.1 1.3075-.325 1.9277-.7437 2.0373-2.5438 3.3204-4.8189 3.3204-1.4813 0-2.7563-.5351-3.6813-1.5446-.8813-.9669-1.3688-2.2987-1.3688-3.7522 0-1.4534.4937-2.8156 1.3938-3.8129.925-1.0156 2.225-1.5812 3.6563-1.5812 2.4126 0 4.3002 1.4839 4.9439 3.7826.1375.4926.2 1.0034.2 1.5142z"/><path d="m68.9578 20.8115c-4.4127 0-8.1191 2.9555-9.1378 6.9388-1.0188-3.9894-4.7252-6.9388-9.1378-6.9388-4.4127 0-8.1191 2.9555-9.1378 6.9388-1.0126-3.9833-4.7127-6.9388-9.1253-6.9388-5.2065 0-9.4191 4.0988-9.4191 9.1645s4.2126 9.1645 9.4191 9.1645c4.4126 0 8.119-2.9555 9.1378-6.9387 1.0187 3.9893 4.7251 6.9387 9.1378 6.9387 4.4126 0 8.119-2.9555 9.1378-6.9387 1.0187 3.9893 4.7251 6.9387 9.1378 6.9387 5.2001 0 9.419-4.0988 9.419-9.1645s-4.2314-9.1645-9.4315-9.1645z"/></g></svg>