<svg width="236" height="60" viewBox="0 0 236 60" fill="none" xmlns="http://www.w3.org/2000/svg">
<path fill-rule="evenodd" clip-rule="evenodd" d="M108.636 24.4821C109.271 24.4821 109.801 24.2758 110.235 23.8604C110.666 23.4478 110.883 22.9227 110.883 22.2875C110.883 21.6873 110.669 21.1808 110.235 20.7682C109.804 20.3555 109.271 20.1465 108.636 20.1465C108.001 20.1465 107.446 20.3528 107.023 20.7682C106.6 21.1808 106.388 21.69 106.388 22.2875C106.388 22.9227 106.6 23.4451 107.023 23.8604C107.446 24.2731 107.982 24.4821 108.636 24.4821ZM57.4875 23.2816C58.3795 23.3326 58.993 23.4961 59.3252 23.7668C59.6574 24.04 59.8236 24.5143 59.8236 25.1976V30.0802H51.8962V25.1976C51.8962 24.5143 52.0624 24.04 52.3946 23.7668C52.7267 23.4961 53.3322 23.3326 54.2056 23.2818V22.1536H45.9648V23.2816C46.8382 23.3326 47.4384 23.4961 47.7624 23.7668C48.0867 24.04 48.2501 24.5143 48.2501 25.1976V36.7765C48.2501 37.3177 48.0839 37.7304 47.7518 38.0092C47.4196 38.2906 46.8248 38.4727 45.9675 38.5611V39.6892H54.2083V38.5611C53.351 38.4727 52.7508 38.2906 52.4107 38.0092C52.0703 37.7304 51.8989 37.3177 51.8989 36.7765V31.342H59.8261V36.7765C59.8261 37.3177 59.6547 37.7304 59.3146 38.0092C58.9742 38.2906 58.3634 38.4727 57.49 38.5611V39.6892H65.7843V38.5611C64.9272 38.4727 64.327 38.2906 63.9867 38.0092C63.6465 37.7304 63.4751 37.3177 63.4751 36.7765V25.1976C63.4751 24.5143 63.6411 24.04 63.9733 23.7668C64.3055 23.4961 64.9111 23.3326 65.7843 23.2818V22.1536H57.49V23.2816H57.4875ZM74.786 36.3478C74.5126 36.8756 74.1779 37.2937 73.7759 37.5911C73.3473 37.9047 72.8596 38.0627 72.3186 38.0627C71.7774 38.0627 71.3647 37.8725 71.0325 37.4866C70.7003 37.1007 70.5343 36.6291 70.5343 36.069C70.5343 35.5438 70.6388 35.0936 70.8477 34.7158C71.0595 34.3406 71.3889 34.0164 71.847 33.743C72.2998 33.4725 72.9052 33.242 73.658 33.049L74.786 32.7597V36.3478ZM78.5661 37.3284C78.3543 37.0658 78.2527 36.6022 78.2527 35.9377V31.0795C78.2527 29.5226 77.7891 28.2874 76.8596 27.3789C75.9326 26.4677 74.6119 26.0122 72.8972 26.0122C71.7934 26.0122 70.8021 26.1971 69.9181 26.5643C69.034 26.9314 68.3429 27.4218 67.8445 28.0328C67.3463 28.6463 67.0971 29.3269 67.0971 30.0801C67.0971 30.6213 67.2552 31.1921 67.5686 31.7869L70.6146 30.7634C70.3173 30.2567 70.17 29.7745 70.17 29.319C70.17 28.7429 70.3521 28.2552 70.7219 27.8639C71.0889 27.47 71.5871 27.2717 72.2168 27.2717C73.0043 27.2717 73.6312 27.5906 74.0947 28.231C74.5582 28.8714 74.7913 29.7397 74.7913 30.8438V31.5458L73.2936 31.8673L72.873 31.9718C71.5792 32.2693 70.5237 32.5801 69.7118 32.9044C68.8975 33.2286 68.225 33.6787 67.6919 34.2549C67.1588 34.831 66.8908 35.5598 66.8908 36.4362C66.8908 37.4866 67.2364 38.3521 67.9277 39.0354C68.6188 39.7187 69.5242 40.059 70.6441 40.059C71.6407 40.059 72.4873 39.8393 73.1784 39.4025C73.843 38.9819 74.3788 38.3226 74.794 37.4304V40.059H75.528L80.1467 38.8238V37.7224H79.8574C79.2091 37.7224 78.7804 37.5911 78.5715 37.3284H78.5661ZM102.503 30.5034V36.9613L102.511 36.9695C102.511 37.4973 102.635 37.8617 102.878 38.0734C103.125 38.2824 103.57 38.4486 104.218 38.5719V39.6999H97.5498V38.5719C98.091 38.4486 98.4715 38.2824 98.6912 38.0734C98.9081 37.8617 99.0179 37.4946 99.0179 36.9695V30.7981C99.0179 29.9916 98.8465 29.3725 98.5062 28.9331C98.1633 28.4962 97.6436 28.2767 96.9444 28.2767C96.4541 28.2767 95.9612 28.4293 95.4601 28.7347C95.0342 28.9975 94.5921 29.4155 94.1368 29.9755C94.1502 30.1497 94.1608 30.3238 94.1608 30.5088V36.9667C94.1608 37.4946 94.284 37.8591 94.5279 38.0707C94.7744 38.2797 95.219 38.4459 95.8673 38.5692V39.6974H89.1725V38.5692C89.7323 38.4459 90.1209 38.2797 90.3405 38.0707C90.5574 37.8591 90.6674 37.4919 90.6674 36.9667V30.7954C90.6674 29.9889 90.4932 29.37 90.1423 28.9304C89.7913 28.4937 89.277 28.274 88.5938 28.274C88.1036 28.274 87.6052 28.4266 87.0989 28.7322C86.6676 28.992 86.2309 29.4101 85.7861 29.9674V36.964C85.7861 37.4919 85.9121 37.8564 86.1665 38.0681C86.4211 38.277 86.8631 38.4432 87.4927 38.5665V39.6947H80.6156V38.5665C81.2639 38.4432 81.7087 38.277 81.9552 38.0681C82.1989 37.8564 82.3221 37.4893 82.3221 36.964V29.6915C82.3221 29.2358 82.2257 28.8848 82.0328 28.6411C81.84 28.3944 81.4809 28.2284 80.9559 28.14L80.6156 28.0355V27.0894L85.0521 26.0124H85.7861V28.834C86.3273 28.0087 86.8792 27.3682 87.439 26.9314C88.2267 26.3177 89.1028 26.0122 90.0645 26.0122C90.9218 26.0122 91.656 26.1891 92.2694 26.5375C92.8802 26.8885 93.3491 27.4004 93.6733 28.0729C93.8126 28.3677 93.9198 28.6919 93.9974 29.0376C94.5814 28.1078 95.1789 27.403 95.7843 26.9314C96.572 26.3177 97.4453 26.0122 98.4098 26.0122C99.2671 26.0122 100.001 26.1891 100.615 26.5375C101.225 26.8885 101.694 27.4004 102.018 28.0729C102.34 28.7483 102.503 29.5575 102.503 30.5034ZM139.292 36.4496C139.072 37.1597 138.753 37.709 138.333 38.1029C137.915 38.4969 137.417 38.6924 136.838 38.6924C136.139 38.6924 135.52 38.3869 134.987 37.7732C134.454 37.1597 134.046 36.3478 133.768 35.3321C133.486 34.3166 133.347 33.2233 133.347 32.0496C133.347 31.1223 133.457 30.305 133.674 29.5949C133.891 28.8875 134.207 28.3355 134.62 27.9416C135.03 27.5478 135.525 27.3521 136.101 27.3521C136.819 27.3521 137.443 27.6628 137.979 28.2819C138.512 28.9036 138.92 29.7182 139.198 30.7258C139.477 31.7306 139.619 32.8213 139.619 33.9951C139.619 34.9222 139.509 35.7395 139.292 36.4496ZM140.066 26.9046C139.07 26.3097 137.888 26.0124 136.522 26.0124C135.263 26.0124 134.116 26.3231 133.085 26.942C132.053 27.5637 131.239 28.432 130.644 29.5414C130.049 30.6535 129.752 31.9075 129.752 33.309C129.752 34.5871 130.02 35.7368 130.553 36.7604C131.086 37.7841 131.852 38.5906 132.849 39.1748C133.845 39.7616 135.019 40.0538 136.367 40.0538C137.644 40.0538 138.799 39.7482 139.831 39.1346C140.862 38.5209 141.682 37.6635 142.284 36.5621C142.887 35.458 143.19 34.2012 143.19 32.781C143.19 31.503 142.919 30.3533 142.376 29.3296C141.832 28.306 141.063 27.4968 140.066 26.9019V26.9046ZM157.116 30.5034V36.9613L157.118 36.9695C157.118 37.4973 157.242 37.8617 157.485 38.0734C157.732 38.2824 158.176 38.4486 158.825 38.5719V39.6999H152.157V38.596C152.698 38.4566 153.078 38.2797 153.298 38.0707C153.515 37.8591 153.625 37.4919 153.625 36.9667V30.7954C153.625 29.9889 153.451 29.37 153.1 28.9304C152.749 28.4937 152.234 28.274 151.551 28.274C151.061 28.274 150.563 28.4266 150.056 28.7322C149.625 28.992 149.188 29.4101 148.744 29.9674V36.964C148.744 37.4919 148.869 37.8564 149.124 38.0681C149.379 38.277 149.821 38.4432 150.45 38.5665V39.6947H143.573V38.5665C144.221 38.4432 144.666 38.277 144.913 38.0681C145.156 37.8564 145.28 37.4893 145.28 36.964V29.6915C145.28 29.2358 145.183 28.8848 144.99 28.6411C144.797 28.3944 144.438 28.2284 143.913 28.14L143.573 28.0355V27.0894L148.009 26.0124H148.744V28.834C149.285 28.0087 149.837 27.3682 150.397 26.9314C151.184 26.3177 152.06 26.0122 153.022 26.0122C153.879 26.0122 154.613 26.1891 155.227 26.5375C155.838 26.8885 156.306 27.4004 156.631 28.0729C156.952 28.7483 157.116 29.5575 157.116 30.5034ZM177.653 37.2239C177.379 37.6635 177.064 37.9716 176.694 38.1564C176.328 38.3414 175.88 38.4325 175.354 38.4325H168.922L179.501 23.2843V22.1563H165.538L165.275 26.4865H166.379C166.642 25.664 166.913 25.0396 167.194 24.6108C167.472 24.182 167.794 23.8738 168.151 23.6916C168.51 23.5095 168.943 23.4156 169.45 23.4156H175.2L164.619 38.5638V39.692H179.269L179.531 35.3321H178.454C178.192 36.1574 177.927 36.7872 177.653 37.2239ZM187.383 37.5911C187.786 37.2937 188.121 36.8756 188.393 36.3478V32.7597L187.265 33.049C186.513 33.242 185.908 33.4725 185.455 33.743C184.996 34.0164 184.666 34.3406 184.455 34.7158C184.246 35.0936 184.142 35.5438 184.142 36.069C184.142 36.6291 184.308 37.1007 184.639 37.4866C184.972 37.8725 185.385 38.0627 185.927 38.0627C186.467 38.0627 186.954 37.9047 187.383 37.5911ZM191.86 35.9377C191.86 36.6022 191.962 37.0658 192.174 37.3284H192.178C192.387 37.5911 192.816 37.7224 193.464 37.7224H193.754V38.8238L189.135 40.059H188.401V37.4304C187.987 38.3226 187.45 38.9819 186.785 39.4025C186.092 39.8393 185.248 40.059 184.252 40.059C183.132 40.059 182.226 39.7187 181.536 39.0354C180.844 38.3521 180.499 37.4866 180.499 36.4362C180.499 35.5599 180.766 34.831 181.3 34.2549C181.832 33.6788 182.504 33.2286 183.319 32.9044C184.131 32.5801 185.186 32.2693 186.481 31.9718L186.902 31.8673L188.399 31.5458V30.8437C188.399 29.7396 188.165 28.8714 187.702 28.231C187.239 27.5905 186.612 27.2718 185.825 27.2718C185.195 27.2718 184.697 27.47 184.329 27.8639C183.959 28.2552 183.777 28.7429 183.777 29.319C183.777 29.7746 183.924 30.2569 184.222 30.7634L181.176 31.7869C180.862 31.1921 180.704 30.6213 180.704 30.0801C180.704 29.3269 180.954 28.6463 181.451 28.0328C181.95 27.4218 182.641 26.9314 183.526 26.5643C184.41 26.1972 185.401 26.0122 186.505 26.0122C188.219 26.0122 189.54 26.4679 190.467 27.3789C191.396 28.2874 191.86 29.5226 191.86 31.0795V35.9377ZM207.763 36.9613V30.5034C207.763 29.5575 207.599 28.7481 207.277 28.0729C206.954 27.4004 206.486 26.8885 205.874 26.5375C205.26 26.1891 204.526 26.0122 203.669 26.0122C202.708 26.0122 201.832 26.3177 201.043 26.9315C200.484 27.3681 199.933 28.0085 199.391 28.8338V26.0122H198.656L194.221 27.0894V28.0355L194.56 28.14C195.086 28.2284 195.445 28.3944 195.637 28.6411C195.83 28.8848 195.927 29.236 195.927 29.6915V36.964C195.927 37.4893 195.803 37.8564 195.559 38.0681C195.314 38.277 194.869 38.4432 194.221 38.5665V39.6947H201.097V38.5665C200.468 38.4432 200.025 38.277 199.772 38.0681C199.517 37.8564 199.391 37.4919 199.391 36.964V29.9674C199.835 29.4101 200.272 28.992 200.704 28.7322C201.21 28.4266 201.708 28.2738 202.198 28.2738C202.882 28.2738 203.396 28.4937 203.747 28.9304C204.096 29.3698 204.273 29.9889 204.273 30.7954V36.9667C204.273 37.4919 204.163 37.8591 203.946 38.0707C203.726 38.2797 203.345 38.4566 202.804 38.596V39.6999H209.473V38.5719C208.824 38.4486 208.378 38.2824 208.133 38.0734C207.889 37.8617 207.765 37.4973 207.765 36.9695L207.763 36.9613ZM211.751 30.6079H210.625L210.622 30.6106L210.833 26.3822H221.935V27.537L214.139 38.4057H218.024C218.602 38.4057 219.086 38.1699 219.481 37.6982C219.875 37.2241 220.23 36.3397 220.544 35.0455H221.672L221.358 39.692H210.019V38.5103L217.788 27.6684H214.351C213.948 27.6684 213.606 27.7433 213.327 27.8906C213.046 28.038 212.776 28.3221 212.513 28.7429C212.25 29.1635 211.995 29.7851 211.751 30.6079ZM227.135 28.3624C227.616 27.6709 228.26 27.3252 229.063 27.3252C229.868 27.3252 230.446 27.6709 230.848 28.3624C231.251 29.0537 231.488 30.0209 231.558 31.2645H226.256C226.361 30.0237 226.653 29.0562 227.135 28.3624ZM232.541 36.9346C231.866 37.3365 231.126 37.5374 230.323 37.5374C229.168 37.5374 228.22 37.098 227.475 36.2245C226.731 35.3509 226.315 34.1504 226.229 32.6284H235.049C235.033 31.3341 234.821 30.1871 234.42 29.1902C234.018 28.1935 233.409 27.4138 232.595 26.8536C231.781 26.2936 230.754 26.015 229.511 26.015C228.198 26.015 227.038 26.3124 226.034 26.9072C225.026 27.5022 224.25 28.357 223.697 29.4663C223.146 30.5784 222.87 31.878 222.87 33.3653C222.87 34.5578 223.108 35.659 223.59 36.6747C224.073 37.6902 224.785 38.5076 225.732 39.1292C226.676 39.7509 227.804 40.0617 229.117 40.0617C230.604 40.0617 231.861 39.6491 232.884 38.8264C233.908 38.0038 234.612 36.9722 234.998 35.7287L234.133 35.3348C233.747 35.9993 233.22 36.5353 232.544 36.9373L232.541 36.9346ZM110.38 30.2972V36.9425C110.38 37.4704 110.506 37.8402 110.763 38.0519C111.017 38.2635 111.462 38.4296 112.097 38.553V39.6891H105.174V38.553C105.825 38.4324 106.276 38.2635 106.522 38.0519C106.768 37.8402 106.892 37.4704 106.892 36.9425V29.4851L106.9 28.992C106.901 28.8727 106.926 28.7548 106.973 28.6453C107.021 28.5357 107.089 28.4368 107.176 28.3543L109.887 26.2963H110.382V30.297H110.38V30.2972ZM118.436 20.1465V36.94L118.433 36.9427C118.433 37.4705 118.559 37.8403 118.816 38.052C119.071 38.2636 119.515 38.4298 120.15 38.5531V39.6892H113.228V38.5531C113.879 38.4325 114.329 38.2636 114.575 38.052C114.822 37.8403 114.945 37.4705 114.945 36.9427V25.0448C114.945 24.5839 114.848 24.3884 114.656 24.1418C114.511 23.9543 114.23 23.7988 113.873 23.689C113.713 23.638 113.667 23.4344 113.785 23.3165L117.945 20.1465H118.436ZM128.643 38.0493C128.396 38.1539 128.115 38.2074 127.796 38.2074C127.215 38.2074 126.749 38.0065 126.395 37.5991C126.044 37.1946 125.867 36.6131 125.867 35.8547V27.5827H129.305V26.2883H125.867V22.1536H125.374L122.682 24.2116C122.51 24.3798 122.411 24.6088 122.406 24.8494L122.376 26.2883H119.971V27.5825H122.376V35.9887C122.376 37.3098 122.698 38.32 123.341 39.014C123.984 39.7108 124.895 40.0563 126.076 40.0563C126.711 40.0563 127.314 39.9064 127.887 39.6062C128.461 39.3061 129.01 38.9363 129.54 38.4969C129.61 38.4085 129.68 38.3387 129.752 38.2851L129.436 37.6259C129.182 37.7868 128.917 37.9284 128.643 38.0493ZM28.0529 31.7574H35.5917C35.806 31.7574 35.9801 31.9342 35.9801 32.1514V39.2097C35.9801 39.4267 35.806 39.6035 35.5917 39.6035H20.9132C20.8964 39.6035 20.8789 39.6042 20.8611 39.605C20.7878 39.608 20.7088 39.6112 20.6506 39.5659C20.6113 39.5341 20.5786 39.4949 20.5545 39.4505C20.5304 39.406 20.5153 39.3573 20.5101 39.307C20.5048 39.2567 20.5096 39.2059 20.5241 39.1574C20.5385 39.109 20.5624 39.0639 20.5944 39.0247L28.3208 29.9996H20.8972C20.6828 29.9996 20.5086 29.8227 20.5086 29.6058V22.5475C20.5086 22.3305 20.6828 22.1536 20.8972 22.1536H35.5756C35.5933 22.1536 35.6119 22.1527 35.6307 22.1517C35.7032 22.148 35.7808 22.1444 35.8381 22.1911C36.0043 22.3223 36.0284 22.5663 35.8944 22.7323L28.0529 31.7574ZM18.3333 22.1482H10.6739C10.4381 22.1482 10.248 22.3681 10.248 22.6386V29.2358H8.56013V22.6383C8.56013 22.3678 8.3699 22.148 8.1341 22.148H0.474855C0.239059 22.148 0.0488281 22.3679 0.0488281 22.6384V30.0076H18.762V22.6386C18.762 22.3679 18.5718 22.1482 18.336 22.1482H18.3333ZM0.0488281 31.7227H18.7593V39.0916C18.7593 39.3623 18.5691 39.582 18.3333 39.582H10.6739C10.4381 39.582 10.248 39.3623 10.248 39.0916V32.4944H8.56013V39.0916C8.56013 39.3623 8.3699 39.582 8.1341 39.582H0.474855C0.239059 39.582 0.0488281 39.3623 0.0488281 39.0916V31.7227Z" fill="#111111"/>
</svg>
