<svg width="159" height="60" viewBox="0 0 159 60" fill="none" xmlns="http://www.w3.org/2000/svg">
<path d="M23.0281 31.1054C22.8562 32.1541 22.4379 33.1225 21.8419 33.9535L19.8076 31.9191C19.9508 31.6613 20.0654 31.3919 20.1514 31.1054H23.0281ZM23.0281 28.9049H20.1514C20.0654 28.6183 19.9508 28.349 19.8076 28.0911L21.8419 26.0568C22.4379 26.8877 22.8562 27.8562 23.0281 28.9049ZM20.2832 24.5038L18.2489 26.5382C17.991 26.3949 17.7217 26.2803 17.4351 26.1943V23.3176C18.4838 23.4895 19.4523 23.9078 20.2832 24.5038ZM15.2346 23.3176V26.1943C14.9481 26.2803 14.6787 26.3949 14.4209 26.5382L12.3865 24.5038C13.2175 23.9078 14.1859 23.4895 15.2346 23.3176ZM10.8335 26.0625L12.8679 28.0969C12.7246 28.3547 12.61 28.6241 12.5241 28.9106H9.64733C9.81925 27.8619 10.2376 26.8935 10.8335 26.0625ZM9.64733 31.1111H12.5241C12.61 31.3977 12.7246 31.667 12.8679 31.9249L10.8335 33.9592C10.2376 33.1283 9.81925 32.1598 9.64733 31.1111ZM12.3923 35.5179L14.4266 33.4836C14.6845 33.6268 14.9538 33.7357 15.2403 33.8274V36.7041C14.1916 36.5322 13.2232 36.1139 12.3923 35.5179ZM17.4409 36.7041V33.8274C17.7274 33.7414 17.9967 33.6268 18.2546 33.4836L20.2889 35.5179C19.458 36.1139 18.4895 36.5322 17.4409 36.7041ZM27.1885 30.8934V29.1341L26.9707 28.9163H25.2401C25.0338 27.2659 24.4035 25.7473 23.4235 24.4924L24.6384 23.2775V22.968L23.3949 21.7245H23.0854L21.8706 22.9394C20.6213 21.9595 19.1027 21.3291 17.4466 21.1228V19.375L17.2288 19.1572H15.4696L15.2518 19.375V21.1113C13.6014 21.3176 12.0828 21.948 10.8278 22.9279L9.61294 21.713H9.3035L8.05997 22.9566V23.266L9.27484 24.4809C8.29492 25.7302 7.66456 27.2487 7.45827 28.9049H5.72764L5.50415 29.1226V30.8819L5.72764 31.0997H7.45827C7.66456 32.7501 8.29492 34.2687 9.27484 35.5236L8.05997 36.7385V37.048L9.3035 38.2915H9.61294L10.8278 37.0766C12.0771 38.0565 13.5957 38.6869 15.2518 38.8932V40.6238L15.4696 40.8416H17.2288L17.4466 40.6238V38.8932C19.097 38.6869 20.6156 38.0565 21.8706 37.0766L23.0854 38.2915H23.3949L24.6384 37.048V36.7385L23.4235 35.5236C24.4035 34.2744 25.0338 32.7558 25.2401 31.0997H26.9707L27.1885 30.8819V30.8934Z" fill="#111111"/>
<path d="M52.3341 19.1514L52.0247 19.4608V28.1368L51.7152 28.4463H41.4862L41.1768 28.1368V19.4608L40.8673 19.1514H38.386L38.0765 19.4608V40.5377L38.386 40.8472H40.8673L41.1768 40.5377V31.5465L41.4862 31.2371H51.7152L52.0247 31.5465V40.5377L52.3341 40.8472H54.8154L55.1249 40.5377V19.4608L54.8154 19.1514H52.3341Z" fill="#111111"/>
<path d="M65.6692 19.1514L65.3597 19.4608V40.5377L65.6692 40.8472H79.6173L79.9268 40.5377V38.3659L79.6173 38.0564H68.7694L68.46 37.747V31.5465L68.7694 31.2371H78.9984L79.3079 30.9276V28.7557L78.9984 28.4463H68.7694L68.46 28.1368V22.2459L68.7694 21.9364H79.6173L79.9268 21.627V19.4608L79.6173 19.1514H65.6692Z" fill="#111111"/>
<path d="M90.4709 19.1514L90.1615 19.4608V40.5377L90.4709 40.8472H103.8L104.11 40.5377V38.3659L103.8 38.0564H93.5712L93.2617 37.747V19.4608L92.9523 19.1514H90.4709Z" fill="#111111"/>
<path d="M131.776 19.1514L131.467 19.4608L124.338 36.8186H124.029L116.9 19.4608L116.59 19.1514H113.175L112.866 19.4608V40.5377L113.175 40.8472H115.656L115.966 40.5377V25.6613H116.275L122.476 40.5377L122.785 40.8472H125.576L125.885 40.5377L132.086 25.6613H132.395V40.5377L132.705 40.8472H135.186L135.495 40.5377V19.4608L135.186 19.1514H131.776Z" fill="#111111"/>
</svg>
