<svg width="168" height="60" viewBox="0 0 168 60" fill="none" xmlns="http://www.w3.org/2000/svg">
<path d="M41.2616 44H47.3296V37.9864H41.2616V44ZM24.2959 32H47.3159V25.9864H24.2959V32ZM24.2959 44H30.3639V37.9864H24.2959V44ZM30.3639 14H24.2959V20.0136H30.3639V14ZM41.2616 20.0136H47.3296V14H41.2616V20.0136ZM119.045 26.5045C118.66 25.8636 118.109 25.3727 117.38 25.0318C116.651 24.6909 115.853 24.5136 114.972 24.5136C113.321 24.5136 111.931 25.1136 110.831 26.3C109.73 27.4864 109.179 29.1909 109.179 31.4C109.179 33.6091 109.744 35.2864 110.858 36.4864C111.973 37.6864 113.362 38.2864 115.027 38.2864C115.977 38.2864 116.816 38.0818 117.532 37.6727C118.247 37.2636 118.784 36.6909 119.141 35.9545V37.9864H122.279V19.7136H119.073V26.5045H119.045ZM118.151 34.3045C117.49 35 116.692 35.3409 115.757 35.3409C114.821 35.3409 114.037 34.9864 113.39 34.3045C112.743 33.6091 112.427 32.6273 112.427 31.3455C112.427 30.0636 112.743 29.0818 113.39 28.3864C114.037 27.6909 114.821 27.35 115.757 27.35C116.692 27.35 117.49 27.7045 118.151 28.3864C118.811 29.0818 119.141 30.0636 119.141 31.3455C119.141 32.6273 118.811 33.6091 118.151 34.3045ZM139.327 24.7318L136.19 33.3636L133.052 24.7318H129.654L134.607 37.4409L132.874 42.2273H135.983L142.657 24.7318H139.354H139.327ZM125.113 37.9864H128.319V19.7136H125.113V37.9864ZM89.0352 31.1273C89.0352 32.4909 88.76 33.5136 88.1959 34.2227C87.6317 34.9318 86.8887 35.2727 85.9531 35.2727C84.4395 35.2727 83.6827 34.4136 83.6827 32.7091V24.7318H80.4767V32.9545C80.4767 34.6045 80.917 35.8727 81.8114 36.7727C82.692 37.6727 83.8616 38.1091 85.3064 38.1091C86.9988 38.1091 88.2647 37.4409 89.1178 36.0909V37.9591H92.255V24.7318H89.049V31.1273H89.0352ZM74.2573 27.3636H66.0428V20.0136H62.6854V38H66.0428V30.5H74.2573V38H77.6147V20.0136H74.2573V27.3773V27.3636ZM104.033 26.5045C103.648 25.8636 103.098 25.3727 102.368 25.0318C101.639 24.6909 100.841 24.5136 99.9604 24.5136C98.3093 24.5136 96.9195 25.1136 95.8188 26.3C94.718 27.4864 94.1676 29.1909 94.1676 31.4C94.1676 33.6091 94.7318 35.2864 95.8463 36.4864C96.9608 37.6864 98.3505 38.2864 100.015 38.2864C100.965 38.2864 101.804 38.0818 102.52 37.6727C103.235 37.2636 103.772 36.6909 104.13 35.9545V37.9864H107.267V19.7136H104.061V26.5045H104.033ZM103.139 34.3045C102.478 35 101.68 35.3409 100.745 35.3409C99.8091 35.3409 99.0248 34.9864 98.3781 34.3045C97.7314 33.6091 97.4149 32.6273 97.4149 31.3455C97.4149 30.0636 97.7314 29.0818 98.3781 28.3864C99.0248 27.6909 99.8091 27.35 100.745 27.35C101.68 27.35 102.478 27.7045 103.139 28.3864C103.799 29.0818 104.13 30.0636 104.13 31.3455C104.13 32.6273 103.799 33.6091 103.139 34.3045Z" fill="#111111"/>
</svg>
