<svg width="168" height="60" viewBox="0 0 168 60" fill="none" xmlns="http://www.w3.org/2000/svg">
<path d="M115.045 22.4966L115.647 21.1396L111.802 19.6464L109.856 22.7232L111.477 23.3565V34.3043L110.922 38.3315L114.999 39.3715L116.805 36.4308C116.805 36.4308 115.091 35.888 115.045 35.888V22.4966ZM115.693 16.7962L113.979 16.1629L113.145 18.877L113.655 19.0139L115.693 16.7962ZM129.081 16.5704L126.58 19.873L124.124 22.3613H125.468V35.2098L124.912 38.2859L128.989 39.3715L130.796 36.386L129.081 35.888V22.3613H131.12L132.603 19.6472H129.081V16.5704ZM97.3013 23.447L97.9957 21.2749L93.3168 19.6464L90.2129 25.3469V23.266L90.5834 21.23L85.8578 19.6016L82.662 24.8945V22.6776C82.662 21.909 83.0785 20.9138 83.0785 20.9138L79.4654 19.5559L77.4724 22.3613L79.0481 23.13V35.9785L78.5849 38.3763L82.2906 39.3267L83.8664 36.4757L82.7079 36.1145V26.5686L84.9321 22.9498L86.553 23.5823V35.5717L86.1365 38.3763L89.8423 39.3267L91.5099 36.4308L90.2129 36.0241V26.7488L92.5297 22.9042L93.7341 23.3565C93.7341 23.3565 93.78 33.354 93.7341 35.39L93.2242 38.1954L97.3013 39.2811L98.8762 36.3403L97.3013 35.888V23.447ZM65.104 36.1602L61.3983 35.2098V33.1282L66.0772 24.8945L66.6322 24.2156L62.0468 19.6008L59.8225 22.0899L57.3671 22.7232L57.7376 25.3917V35.888L57.3671 37.6518L64.3161 39.3267L66.6322 35.3452L65.4746 34.9833L65.104 36.1602ZM61.3515 23.8537L63.9456 26.7496L61.3515 31.4997V23.8537ZM41.8473 16.7962L40.087 16.1629L39.2532 18.9683L39.8091 19.1492L41.8473 16.7962ZM38.3727 16.7962L36.6592 16.1629L35.8246 18.9683L36.3805 19.1492L38.3727 16.7962ZM16.8778 16.1629V23.13H16.9237L18.174 19.6472H21.6953C22.6684 19.6472 25.2157 19.15 25.2157 19.15L25.3091 19.2404L23.2243 20.5975L23.4555 21.411V24.3973H20.5835V23.764H19.1946V29.9169H19.2873L20.399 26.7503H23.4103V39.5076L17.9436 32.7671C17.5263 32.2243 17.8969 31.41 17.8969 31.41H17.2024C17.0163 31.5446 15.8579 33.2635 15.8579 35.2098C15.8579 36.6118 16.3211 37.0649 16.6917 37.5165C18.0354 39.2362 21.51 43.5347 21.51 43.5347L24.9378 41.0464L27.8572 39.9607L27.6252 37.3363V19.6928C27.6252 17.8834 29.1535 17.4758 29.1535 17.4758V16.7049H18.3593L17.9428 16.1621L16.8778 16.1629ZM41.3381 35.9785V23.2212L41.9399 21.909L35.6393 19.6464L33.8332 21.6824L30.7292 23.2204C30.9604 23.9898 32.3042 25.1659 33.3232 25.6639L30.6366 26.6591L30.9604 28.0162V37.3811L30.6825 38.4668L35.1761 39.3715L37.7242 35.3452L37.4463 38.4668L40.9208 39.3715L42.8204 36.386L41.3381 35.9785ZM36.196 36.0697L34.667 35.5717V26.6591L37.6783 25.2108V33.5357L36.196 36.0697ZM36.0107 24.2612C34.9441 23.8537 34.8055 23.1756 34.667 22.8137L38.8827 24.0803C38.558 24.2156 37.0306 24.7584 36.0107 24.2612ZM47.2681 21.6824L44.3954 22.9042L44.8586 24.2612V36.2955L44.4421 38.241L48.3331 39.2811L48.3798 39.462C46.8975 39.6429 46.1556 40.4123 45.3685 41.181C44.5807 41.996 43.7936 43.4435 43.7936 43.4435L44.6733 43.7598C44.6733 43.7598 45.0906 42.9007 45.553 42.5836C47.1287 41.6333 50.8812 43.4884 50.8812 43.4884L52.9661 41.4075L55.2822 40.7286V23.0851L55.7921 21.9538L48.9816 19.7369L47.2681 21.6824ZM51.715 39.9592L48.8423 39.2811L51.715 34.4404V39.9592ZM51.715 26.4782V32.631L49.6768 36.2043L48.3798 35.8431V22.9946L52.2249 24.2612L51.3911 25.1659C51.3911 25.1659 51.715 25.9353 51.715 26.4782ZM75.203 19.6472H74.2765L71.5899 24.3061V21.8633L71.9137 20.7777L68.6712 19.6464L66.5863 22.5423L68.1153 23.0851V34.9377L67.698 38.0144L73.0255 39.4171L75.5276 35.4812L74.2306 35.0737L73.906 36.2955L71.5432 35.6622V26.1611L73.0255 23.7633C73.0255 23.7633 74.3232 27.4734 74.2765 28.1971C74.2298 28.6943 73.4427 29.5093 73.4427 29.5093L74.2298 30.278C74.2298 30.278 74.5545 30.0066 75.1103 29.4645C75.7588 28.7856 77.1026 27.0659 76.5467 24.7584L75.203 19.6472ZM140.478 36.1602L136.772 35.2098V33.1282L141.451 24.8945L142.007 24.2156L137.421 19.6008L135.197 22.0899L132.742 22.7232L133.112 25.3917V35.888L132.742 37.6518L139.691 39.3267L142.007 35.3452L140.849 34.9833L140.478 36.1602ZM136.772 23.8537L139.366 26.7496L136.772 31.4997V23.8537ZM150.624 19.6472H149.697L147.011 24.3061V21.8633L147.334 20.7777L144.092 19.6464L142.007 22.5423L143.536 23.0851V34.9377L143.119 38.0144L148.446 39.4171L150.948 35.4812L149.651 35.0737L149.327 36.2955L146.964 35.6622V26.1611L148.446 23.7633C148.446 23.7633 149.744 27.4734 149.697 28.1971C149.651 28.6943 148.863 29.5093 148.863 29.5093L149.651 30.278C149.651 30.278 149.975 30.0066 150.531 29.4645C151.18 28.7856 152.523 27.0659 151.967 24.7584L150.624 19.6472ZM107.818 36.1602L104.111 35.2098V33.1282L108.791 24.8945L109.347 24.2156L104.76 19.6008L102.536 22.0899L100.081 22.7232L100.451 25.3917V35.888L100.081 37.6518L107.03 39.3267L109.347 35.3452L108.188 34.9833L107.818 36.1602ZM104.111 23.853L106.706 26.7488L104.111 31.5446V23.853Z" fill="#111111"/>
<path d="M126.672 16.3442C125.561 17.8822 124.171 16.8421 124.171 16.8421L122.457 15.666L120.418 17.7469L117.685 18.5611L118.102 20.0543V43.3526H119.538C119.585 42.2214 120.511 41.3615 121.623 41.3615H121.761L121.808 19.2393C122.874 19.827 124.217 20.0079 125.375 19.3297L127.368 16.7509L126.672 16.3442Z" fill="#111111"/>
</svg>
