<svg width="197" height="60" viewBox="0 0 197 60" fill="none" xmlns="http://www.w3.org/2000/svg">
<mask id="mask0_10251_781" style="mask-type:luminance" maskUnits="userSpaceOnUse" x="18" y="10" width="159" height="36">
<path d="M176.58 10.459H18.5679V45.5407H176.58V10.459Z" fill="white"/>
</mask>
<g mask="url(#mask0_10251_781)">
<path d="M66.7778 35.9453C66.9383 35.9453 67.0197 36.0267 67.0197 36.1872V38.8745C67.0197 39.0349 66.9383 39.1165 66.7778 39.1165H57.3101C57.1496 39.1165 57.0681 39.0349 57.0681 38.8745V22.0965C57.0681 21.936 57.1496 21.8545 57.3101 21.8545H60.4099C60.5704 21.8545 60.6519 21.936 60.6519 22.0965V35.7058C60.6519 35.8663 60.7334 35.9478 60.8939 35.9478H66.7778V35.9453Z" fill="#111111"/>
<path d="M79.2155 22.0232C79.2639 21.9111 79.3607 21.8525 79.5058 21.8525H80.9348C81.08 21.8525 81.1768 21.9086 81.2252 22.0232L88.9736 38.8292C88.9889 38.8623 88.999 38.9031 88.999 38.9515C88.999 39.0636 88.9354 39.1221 88.8055 39.1221H85.3668C85.2216 39.1221 85.1249 39.0661 85.0764 38.9515L83.8666 36.3356C83.8182 36.2235 83.729 36.1648 83.5991 36.1648H76.8187C76.6735 36.1648 76.5767 36.221 76.5283 36.3356L75.3183 38.9515C75.27 39.0636 75.1808 39.1221 75.0509 39.1221H71.6122C71.5308 39.1221 71.4747 39.0941 71.4416 39.038C71.4085 38.982 71.4085 38.9132 71.4416 38.8317L79.2155 22.0257V22.0232ZM78.0285 32.7033C78.0132 32.7365 78.0031 32.7772 78.0031 32.8255C78.0031 32.9376 78.0667 32.9963 78.1966 32.9963H82.216C82.2975 32.9963 82.3536 32.9682 82.3867 32.9122C82.4198 32.8561 82.4198 32.7873 82.3867 32.7059L80.377 28.0319C80.3617 27.9503 80.3032 27.9096 80.2063 27.9096C80.1427 27.9096 80.0841 27.9503 80.0357 28.0319L78.026 32.7059L78.0285 32.7033Z" fill="#111111"/>
<path d="M107.226 38.877C107.226 39.0375 107.145 39.119 106.984 39.119H104.975C104.863 39.119 104.766 39.0706 104.684 38.9738L97.1549 29.1419C97.0912 29.0782 97.0326 29.0451 96.9842 29.0451C96.9027 29.0451 96.862 29.119 96.862 29.2642V38.877C96.862 39.0375 96.7804 39.119 96.62 39.119H93.5201C93.3596 39.119 93.2781 39.0375 93.2781 38.877V22.0965C93.2781 21.936 93.3596 21.8545 93.5201 21.8545H95.5298C95.6419 21.8545 95.7387 21.9029 95.8201 21.9997L103.35 31.8061C103.398 31.8877 103.446 31.9284 103.495 31.9284C103.592 31.9284 103.64 31.8469 103.64 31.6864V22.0965C103.64 21.936 103.721 21.8545 103.882 21.8545H106.982C107.142 21.8545 107.224 21.936 107.224 22.0965V38.877H107.226Z" fill="#111111"/>
<path d="M123.935 21.8545C124.096 21.8545 124.178 21.936 124.178 22.0965V24.7837C124.178 24.9441 124.096 25.0257 123.935 25.0257H120.158C119.997 25.0257 119.916 25.1072 119.916 25.2677V38.877C119.916 39.0375 119.834 39.119 119.674 39.119H116.6C116.439 39.119 116.357 39.0375 116.357 38.877V25.2677C116.357 25.1072 116.276 25.0257 116.116 25.0257H112.313C112.152 25.0257 112.071 24.9441 112.071 24.7837V22.0965C112.071 21.936 112.152 21.8545 112.313 21.8545H123.935Z" fill="#111111"/>
<path d="M139.193 35.9453C139.354 35.9453 139.434 36.0267 139.434 36.1872V38.8745C139.434 39.0349 139.354 39.1165 139.193 39.1165H128.926C128.765 39.1165 128.684 39.0349 128.684 38.8745V22.0965C128.684 21.936 128.765 21.8545 128.926 21.8545H138.951C139.111 21.8545 139.193 21.936 139.193 22.0965V24.7837C139.193 24.9441 139.111 25.0257 138.951 25.0257H132.509C132.349 25.0257 132.267 25.1072 132.267 25.2677V28.8031C132.267 28.9635 132.349 29.0451 132.509 29.0451H137.135C137.295 29.0451 137.376 29.1266 137.376 29.2871V31.9743C137.376 32.1347 137.295 32.2163 137.135 32.2163H132.509C132.349 32.2163 132.267 32.2977 132.267 32.4582V35.7033C132.267 35.8637 132.349 35.9453 132.509 35.9453H139.193Z" fill="#111111"/>
<path d="M144.646 39.119C144.486 39.119 144.404 39.0375 144.404 38.877V22.0965C144.404 21.936 144.486 21.8545 144.646 21.8545H151.742C152.889 21.8545 153.933 22.1092 154.878 22.6161C155.823 23.1255 156.569 23.8361 157.117 24.7481C157.664 25.6599 157.94 26.689 157.94 27.8352C157.94 28.9814 157.678 29.9672 157.153 30.8383C156.628 31.7093 155.89 32.4276 154.937 32.9931C154.873 33.0084 154.834 33.0542 154.827 33.1256C154.82 33.1969 154.832 33.2682 154.863 33.3319L157.792 38.8286L157.841 38.9509C157.841 38.9992 157.82 39.0401 157.779 39.0731C157.738 39.1062 157.688 39.1215 157.621 39.1215H154.28C154.135 39.1215 154.037 39.0655 153.989 38.9509L151.447 33.9865C151.398 33.8745 151.302 33.8158 151.157 33.8158H148.227C148.067 33.8158 147.986 33.8974 147.986 34.0579V38.877C147.986 39.0375 147.904 39.119 147.744 39.119H144.644H144.646ZM151.475 30.6446C151.974 30.6446 152.448 30.5275 152.891 30.2931C153.335 30.0588 153.694 29.7328 153.969 29.3125C154.244 28.8922 154.381 28.4007 154.381 27.8352C154.381 26.9641 154.086 26.2764 153.497 25.7771C152.909 25.2779 152.193 25.0257 151.355 25.0257H148.232C148.072 25.0257 147.99 25.1072 147.99 25.2677V30.4001C147.99 30.5606 148.072 30.6421 148.232 30.6421H151.477L151.475 30.6446Z" fill="#111111"/>
<path d="M176.58 38.877C176.58 39.0375 176.498 39.119 176.338 39.119H174.328C174.216 39.119 174.12 39.0706 174.038 38.9738L166.509 29.1419C166.445 29.0782 166.386 29.0451 166.337 29.0451C166.256 29.0451 166.216 29.119 166.216 29.2642V38.877C166.216 39.0375 166.134 39.119 165.974 39.119H162.874C162.713 39.119 162.631 39.0375 162.631 38.877V22.0965C162.631 21.936 162.713 21.8545 162.874 21.8545H164.883C164.995 21.8545 165.092 21.9029 165.174 21.9997L172.703 31.8061C172.751 31.8877 172.8 31.9284 172.848 31.9284C172.945 31.9284 172.993 31.8469 172.993 31.6864V22.0965C172.993 21.936 173.075 21.8545 173.236 21.8545H176.336C176.495 21.8545 176.577 21.936 176.577 22.0965V38.877H176.58Z" fill="#111111"/>
<path d="M22.1109 39.9166C22.1109 37.2956 23.9856 35.1153 26.4691 34.6415C27.0269 34.5345 27.4829 33.9716 27.4829 33.4036V29.3358C27.4829 28.5207 26.8232 27.9502 26.0183 28.0826C21.79 28.7805 18.5679 32.451 18.5679 36.8753C18.5679 41.0654 21.4589 44.5779 25.356 45.5305C25.5598 45.5815 25.7559 45.4312 25.7559 45.2224C25.7559 45.0899 25.6719 44.9727 25.547 44.9244C23.5373 44.1474 22.1109 42.2014 22.1109 39.9192V39.9166Z" fill="#111111"/>
<path d="M43.596 28.0323C43.596 19.2752 37.2868 11.9955 28.9678 10.4825C28.1501 10.3347 27.4802 10.9002 27.4802 11.7306V21.695C27.4802 22.2426 27.9158 22.7979 28.4481 22.9226C33.573 24.1376 37.3861 28.7429 37.3861 34.2396C37.3861 36.2366 36.8818 38.1138 35.9954 39.7542C34.5409 42.2581 32.5796 43.6055 30.9597 44.3314C30.4578 44.5301 29.9382 44.6931 29.4033 44.8205C29.2556 44.8562 29.1486 44.9861 29.1486 45.1389C29.1486 45.3452 29.3397 45.5031 29.5434 45.4598C37.5771 43.7226 43.596 36.583 43.596 28.0297V28.0323Z" fill="#111111"/>
</g>
</svg>
