<?xml version="1.0" standalone="no"?>
<!DOCTYPE svg PUBLIC "-//W3C//DTD SVG 20010904//EN"
 "http://www.w3.org/TR/2001/REC-SVG-20010904/DTD/svg10.dtd">
<svg version="1.0" xmlns="http://www.w3.org/2000/svg"
 viewBox="0 0 1600 1313" preserveAspectRatio="xMidYMid meet">

<g transform="translate(0.000000,1313.000000) scale(0.100000,-0.100000)"
fill="#000000" stroke="none">
<path d="M2040 12482 l0 -39 398 -7 c218 -3 611 -9 872 -12 261 -3 588 -7 725
-10 660 -12 5999 -16 6950 -5 561 6 1433 14 1938 18 l917 6 0 34 0 34 -487 -6
c-2645 -32 -5317 -41 -7378 -26 -874 6 -1684 14 -1800 16 -115 3 -554 9 -975
15 -421 5 -854 13 -962 16 l-198 6 0 -40z"/>
<path d="M2245 12171 c-196 -52 -284 -280 -177 -460 22 -39 55 -76 87 -99 83
-62 99 -67 204 -67 87 0 101 3 150 30 66 37 115 92 141 162 43 116 37 120
-175 125 l-170 3 2 -33 c0 -18 3 -35 5 -38 2 -2 44 -6 94 -9 120 -8 134 -12
134 -34 0 -28 -73 -88 -122 -101 -81 -22 -162 2 -220 66 -41 45 -56 85 -57
152 -1 62 21 112 72 160 27 26 48 36 100 45 86 14 134 0 197 -59 38 -35 54
-44 84 -44 26 0 36 4 36 15 0 48 -81 133 -158 167 -49 22 -176 33 -227 19z"/>
<path d="M13426 12172 c-3 -5 -6 -143 -7 -308 l-1 -299 138 -3 c77 -2 167 0
202 3 l63 7 -3 55 -3 55 -140 1 -140 2 3 248 4 247 -55 0 c-31 0 -58 -4 -61
-8z"/>
<path d="M4373 12148 c-6 -7 -20 -47 -32 -88 -37 -123 -91 -299 -122 -395 -16
-50 -29 -96 -29 -102 0 -9 16 -12 53 -10 l52 3 16 60 16 59 108 0 109 0 24
-62 24 -63 49 0 c27 0 49 4 49 10 0 24 -214 577 -228 588 -9 6 -30 12 -48 12
-17 0 -36 -6 -41 -12z m95 -256 c17 -42 34 -90 37 -105 l7 -27 -70 0 c-39 0
-73 4 -76 9 -10 16 50 201 64 201 5 0 22 -35 38 -78z"/>
<path d="M11238 12152 l-38 -3 0 -295 0 -294 220 0 221 0 -3 56 -3 56 -167 -1
-167 -2 -7 26 c-3 14 -3 45 0 70 l7 45 135 0 134 0 0 53 0 52 -132 0 -133 0
-3 63 -3 62 64 0 c35 0 112 3 170 7 l107 6 0 55 0 54 -182 -3 c-101 -2 -200
-5 -220 -7z"/>
<path d="M6049 12143 c-3 -36 4 -588 8 -599 8 -21 283 -20 323 1 101 52 121
201 40 289 l-39 42 24 37 c35 51 35 124 -1 167 -44 52 -73 61 -220 67 -74 2
-134 1 -135 -4z m216 -83 c67 -15 86 -70 40 -115 -19 -20 -34 -25 -74 -25 -77
0 -81 4 -81 71 0 52 3 61 23 69 29 11 43 11 92 0z m60 -242 c62 -48 68 -137
13 -183 -25 -21 -40 -25 -97 -25 -39 0 -72 5 -79 12 -8 8 -12 48 -12 115 l0
103 74 0 c60 0 78 -4 101 -22z"/>
<path d="M9630 11845 l0 -305 55 0 55 0 0 78 c0 43 3 181 7 305 l6 227 -61 0
-62 0 0 -305z"/>
<path d="M7899 12134 c-3 -22 3 -579 7 -583 2 -2 24 -6 49 -8 l45 -5 0 136 0
136 38 0 c49 0 64 -17 132 -145 29 -55 60 -106 68 -112 18 -15 88 -17 96 -4 3
5 -28 67 -69 137 l-76 129 40 35 c49 43 63 71 63 124 1 55 -24 100 -74 133
-39 26 -49 28 -180 31 -76 3 -139 0 -139 -4z m275 -106 c22 -31 20 -91 -3
-112 -15 -13 -34 -16 -92 -14 l-74 3 -3 73 -3 72 80 0 c71 0 82 -2 95 -22z"/>
<path d="M12510 11318 c-531 -3 -1185 -9 -1455 -12 -1207 -14 -5743 -18 -7345
-7 -916 7 -1669 13 -1675 14 -10 2 -15 -197 -5 -206 19 -17 6888 -31 8740 -17
597 4 1520 9 2053 10 945 1 967 2 977 21 6 10 9 61 8 112 l-3 92 -165 0 c-91
0 -599 -3 -1130 -7z"/>
<path d="M13015 10989 c-418 -3 -1052 -10 -1410 -13 -357 -4 -1761 -11 -3120
-17 -1358 -5 -2474 -10 -2480 -11 -55 -2 -3251 13 -3563 18 l-412 6 0 -23 c0
-13 4 -29 8 -35 9 -15 4246 -24 6367 -14 836 4 2387 11 3448 15 1553 7 1929
11 1938 21 12 15 8 57 -6 59 -5 1 -352 -2 -770 -6z"/>
<path d="M14026 10636 c-70 -92 -136 -113 -272 -84 -241 50 -545 62 -709 29
-238 -47 -485 -247 -600 -485 -67 -139 -88 -239 -83 -411 3 -131 6 -145 35
-213 46 -107 116 -204 205 -286 171 -155 178 -157 973 -357 88 -22 170 -47
182 -55 64 -41 67 -124 6 -187 -53 -55 -101 -74 -237 -92 -321 -42 -563 10
-753 162 -36 29 -133 158 -145 193 -3 9 -29 8 -103 -5 -162 -26 -145 -14 -145
-103 0 -245 -150 -510 -385 -677 -154 -110 -293 -154 -510 -162 -207 -8 -339
19 -534 108 -132 61 -243 143 -403 296 -82 78 -185 168 -230 199 -100 71 -261
153 -367 189 l-81 27 0 266 c0 147 4 445 10 662 5 217 12 513 15 658 l7 262
-553 0 -554 0 -70 -70 -70 -70 -82 41 c-171 85 -143 83 -886 86 l-657 4 -22
-38 c-13 -21 -46 -73 -74 -115 -46 -69 -51 -82 -44 -111 4 -21 24 -50 53 -76
25 -24 60 -65 78 -92 34 -53 69 -154 69 -198 0 -26 35 -71 55 -71 5 0 20 12
33 28 l23 27 -6 -450 c-3 -247 -8 -457 -11 -465 -10 -36 -301 -173 -549 -258
-246 -85 -825 -222 -937 -222 l-28 0 0 448 c0 422 1 450 18 465 26 24 59 21
77 -7 9 -13 37 -86 64 -162 27 -77 65 -184 86 -239 37 -99 37 -100 26 -177
-10 -61 -9 -81 1 -97 23 -37 57 -29 216 52 17 9 31 39 59 127 l36 115 -2 480
c-1 264 -6 484 -11 489 -5 5 -44 -9 -92 -35 -258 -135 -322 -163 -371 -164
-41 0 -53 4 -73 28 -23 27 -24 35 -24 168 l0 139 268 0 268 0 45 -28 c57 -38
72 -55 106 -127 27 -59 28 -64 28 -235 -1 -155 -4 -186 -26 -270 -25 -92 -27
-120 -8 -120 4 0 28 -13 51 -30 24 -16 57 -33 74 -36 29 -6 33 -3 54 43 28 58
98 170 122 197 22 24 21 21 53 206 14 85 37 214 50 285 14 72 29 162 34 200 6
39 19 123 31 188 11 65 18 122 15 127 -4 6 -454 10 -1188 10 l-1182 0 -65 -80
c-36 -44 -71 -80 -79 -80 -7 0 -39 16 -71 35 -85 52 -175 82 -307 104 -109 18
-187 20 -1023 26 -748 6 -908 4 -921 -7 -9 -7 -50 -52 -91 -99 l-76 -86 15
-59 c17 -64 16 -64 118 -109 248 -110 425 -281 425 -411 0 -45 12 -54 77 -54
28 0 36 7 67 58 20 31 51 74 70 94 28 31 35 35 38 20 8 -30 -9 -533 -18 -542
-5 -4 -56 -23 -114 -43 -203 -69 -189 -61 -258 -161 -34 -50 -71 -102 -82
-116 -20 -25 -20 -29 -6 -89 8 -35 16 -65 19 -67 2 -2 35 5 73 16 121 35 204
23 285 -40 74 -60 76 -71 60 -467 -34 -845 -34 -855 -48 -860 -26 -10 -267 56
-348 95 -134 65 -234 161 -299 290 -35 69 -35 140 -1 209 24 47 85 103 112
103 22 0 25 21 7 39 -19 17 -483 403 -518 431 -17 13 -21 11 -50 -22 -73 -83
-98 -121 -152 -231 l-58 -117 60 -57 c84 -81 121 -132 169 -232 47 -97 63
-139 100 -263 34 -115 121 -288 185 -365 57 -69 124 -122 220 -175 164 -90
318 -121 605 -122 222 0 373 13 545 50 658 141 1063 352 1364 714 116 139 192
273 239 425 67 215 67 512 -1 685 -78 199 -216 344 -405 424 -37 16 -67 32
-67 37 0 4 19 18 43 32 68 40 177 163 216 242 30 61 35 83 39 167 6 115 -5
167 -55 265 -20 40 -34 75 -31 79 11 11 76 -27 117 -69 50 -50 81 -139 81
-233 l0 -63 43 -26 c24 -14 50 -25 58 -24 8 0 37 27 64 59 28 33 55 58 60 56
11 -3 14 -1026 5 -1511 -6 -314 7 -278 -137 -387 -51 -38 -121 -98 -157 -133
-77 -76 -188 -231 -241 -336 l-39 -77 36 -53 c19 -30 45 -73 57 -96 11 -23 25
-44 30 -48 6 -3 33 6 60 20 133 67 270 105 379 105 l78 0 37 45 38 45 -20 38
c-41 80 -35 166 15 242 29 44 136 117 255 175 114 55 358 131 499 155 30 5 93
15 140 24 47 8 157 19 245 25 198 14 291 27 369 52 91 29 217 94 304 156 80
58 239 192 281 237 14 14 28 26 33 26 9 0 9 -346 -1 -460 -6 -73 -7 -75 -45
-101 -38 -25 -102 -51 -158 -63 -21 -5 -34 -19 -54 -59 -38 -75 -124 -218
-146 -243 -11 -12 -34 -25 -51 -28 -17 -4 -94 -32 -172 -62 -618 -248 -1093
-636 -1424 -1166 -75 -118 -257 -497 -324 -673 -74 -193 -143 -441 -169 -609
l-12 -80 -71 -70 c-172 -174 -390 -207 -618 -95 -199 98 -334 268 -401 504
-90 318 -98 742 -19 1040 8 33 38 107 66 164 84 175 210 283 375 321 129 30
205 -28 246 -187 20 -77 21 -267 2 -383 -12 -75 -100 -362 -126 -409 -6 -12
-5 -41 2 -84 12 -73 -5 -59 147 -121 35 -15 72 -24 82 -21 10 4 38 36 62 73
50 77 150 203 196 246 17 17 31 35 31 41 0 21 112 290 167 399 31 61 89 165
131 230 93 147 160 231 294 372 l38 40 -71 77 c-39 42 -75 77 -80 77 -5 0 -35
-18 -67 -39 -142 -98 -258 -133 -434 -132 -118 0 -296 27 -382 57 -261 93
-557 62 -844 -87 -324 -168 -573 -497 -671 -887 -28 -111 -51 -291 -51 -402 0
-295 118 -668 291 -921 75 -109 236 -277 329 -342 198 -138 411 -209 630 -209
236 0 420 59 607 194 46 32 87 57 92 53 5 -3 15 -31 21 -63 84 -420 251 -825
485 -1182 67 -101 194 -276 235 -324 14 -16 45 -52 69 -80 157 -183 445 -436
646 -568 423 -278 846 -434 1368 -503 101 -14 177 -16 365 -12 246 5 348 17
542 67 223 57 593 198 608 233 2 4 12 7 22 7 11 0 42 13 70 30 28 17 54 30 57
30 19 0 290 172 383 244 177 136 216 171 365 320 272 273 405 458 579 801 92
180 122 246 132 290 4 17 10 35 14 40 8 10 44 121 79 240 27 92 67 263 81 347
l12 66 62 11 c35 6 88 11 119 11 42 0 61 5 72 17 8 10 60 78 115 152 l100 134
0 166 c0 91 -5 292 -10 446 -7 224 -15 858 -11 899 1 15 43 -45 128 -181 42
-68 80 -123 84 -123 4 0 11 -9 14 -21 6 -18 169 -280 440 -709 134 -211 159
-251 239 -382 38 -62 72 -115 76 -118 3 -3 28 -34 55 -70 192 -253 468 -422
775 -475 143 -25 303 -10 475 46 127 40 200 78 287 148 108 87 174 174 288
380 28 52 71 126 94 165 67 112 90 155 84 161 -3 3 -43 12 -89 21 -183 33
-268 81 -308 174 -21 50 -22 55 -21 693 0 694 -1 688 54 781 34 57 98 113 157
133 44 16 47 19 53 61 3 25 6 69 6 100 0 65 19 66 -197 -9 -84 -29 -156 -49
-160 -45 -4 3 4 30 16 59 86 197 93 219 89 292 -6 131 -100 269 -224 329 -75
37 -214 47 -295 22 -111 -35 -211 -129 -239 -224 -38 -127 -50 -185 -50 -255
0 -65 5 -88 28 -135 37 -77 132 -177 193 -204 27 -11 49 -24 49 -29 0 -5 -1
-9 -2 -9 -2 -1 -66 -22 -143 -48 l-139 -48 -112 -125 -112 -125 25 -60 c35
-86 45 -104 58 -104 6 0 48 16 92 35 45 19 91 35 103 35 12 0 37 -15 56 -34
41 -41 39 -16 19 -401 -9 -154 -22 -394 -29 -532 -8 -145 -18 -258 -24 -266
-11 -12 -82 -40 -134 -51 -15 -4 -51 -34 -89 -76 -34 -38 -68 -70 -75 -70 -17
0 -70 97 -88 161 -17 64 -23 253 -32 1049 -6 557 -5 565 15 597 26 42 64 66
114 73 l40 5 22 86 c23 91 22 109 -2 109 -17 0 -237 68 -505 157 -92 30 -173
53 -181 51 -7 -2 -55 -50 -106 -107 l-93 -104 7 -46 c4 -25 9 -50 12 -54 3 -4
24 -5 47 -2 89 14 172 -31 213 -114 l27 -54 4 -424 c3 -261 1 -423 -5 -423
-11 0 -549 875 -679 1105 -33 59 -44 70 -74 77 -19 5 -163 6 -320 3 l-285 -6
-30 -28 c-70 -67 -248 -207 -353 -278 -62 -42 -116 -81 -121 -87 -4 -6 -27
-72 -50 -146 -24 -74 -46 -139 -51 -144 -4 -4 -15 2 -23 15 -8 13 -49 77 -91
142 -42 65 -76 123 -76 130 0 7 21 20 48 29 108 40 280 172 372 290 73 92 155
266 135 286 -3 3 -27 -14 -53 -39 -107 -102 -212 -165 -357 -214 -68 -23 -97
-27 -200 -28 -199 -1 -315 38 -459 153 -82 65 -165 161 -251 290 -57 86 -83
138 -161 322 -13 31 -37 86 -54 123 -16 36 -30 72 -30 79 0 17 87 75 155 103
72 30 127 43 224 53 153 16 302 -17 501 -111 195 -93 303 -173 535 -399 256
-248 383 -334 590 -400 90 -29 116 -32 266 -37 290 -10 457 36 653 180 85 63
200 193 244 278 19 35 77 142 130 236 127 227 129 228 296 121 238 -152 437
-212 706 -211 135 0 168 4 258 27 267 69 482 214 623 419 163 235 191 563 69
808 -73 148 -167 242 -315 317 -59 29 -76 35 -208 68 -37 9 -66 22 -64 28 2 5
41 37 87 71 80 57 84 62 97 115 32 128 111 354 164 468 16 35 29 65 29 68 0 3
20 45 45 95 25 50 45 96 45 102 -1 10 -113 94 -140 105 -4 1 -19 -13 -34 -32z
m82 -52 c12 -8 22 -22 22 -30 0 -8 -24 -69 -54 -137 -99 -224 -134 -311 -180
-447 -26 -74 -50 -138 -54 -142 -4 -4 -18 -1 -30 8 -19 13 -22 24 -22 87 0
197 -102 361 -277 445 l-78 37 -135 0 c-112 -1 -145 -4 -191 -22 -158 -58
-260 -213 -246 -372 8 -89 22 -130 57 -179 50 -70 99 -91 345 -146 72 -16 314
-74 535 -127 159 -39 238 -81 340 -179 87 -85 139 -170 177 -288 35 -109 36
-275 3 -382 -89 -293 -283 -487 -577 -577 -80 -24 -103 -27 -253 -27 -174 -1
-221 6 -345 51 -110 40 -200 94 -340 202 -116 90 -163 97 -270 45 -61 -30 -66
-38 -256 -374 -131 -232 -151 -262 -224 -336 -122 -123 -271 -200 -465 -240
-117 -23 -345 -16 -454 16 -183 52 -329 133 -450 249 -38 36 -128 140 -201
231 -214 269 -347 386 -560 493 -165 82 -314 117 -505 117 -114 0 -165 -7
-295 -39 -45 -11 -48 -10 -64 38 -14 42 -14 61 0 61 19 0 123 77 171 127 89
91 89 93 99 527 16 788 19 1066 9 1066 -6 0 -42 -29 -81 -65 -39 -36 -76 -65
-82 -65 -7 0 -25 25 -41 55 -52 100 -177 185 -271 185 -50 0 -65 9 -65 40 0
22 5 29 28 33 53 11 997 -5 1005 -17 4 -6 5 -76 3 -156 -11 -286 -29 -1647
-23 -1663 4 -10 17 -17 32 -17 67 0 282 -95 421 -186 53 -34 128 -97 184 -154
172 -175 292 -267 458 -349 175 -88 286 -119 482 -136 148 -13 371 30 505 97
216 108 392 294 475 503 30 75 70 255 70 315 0 25 4 28 46 34 101 13 104 12
157 -65 81 -116 229 -223 367 -263 92 -27 276 -38 434 -27 202 16 305 48 371
115 51 52 68 93 73 172 4 61 1 78 -22 127 -31 65 -90 119 -157 142 -40 15
-465 121 -699 175 -115 27 -205 66 -279 122 -145 109 -227 216 -277 363 -33
97 -39 247 -12 330 69 215 223 384 443 487 117 54 193 69 385 75 178 5 280 -4
461 -42 108 -23 157 -20 225 15 33 16 71 41 84 55 27 29 38 31 68 9z m-10318
-74 c261 -19 465 -100 597 -236 102 -104 156 -266 133 -396 -17 -98 -86 -225
-156 -288 -51 -46 -162 -120 -180 -120 -8 0 -14 -8 -14 -18 0 -14 19 -25 83
-47 215 -72 330 -171 417 -360 56 -120 73 -207 73 -360 0 -158 -15 -261 -55
-374 -65 -184 -156 -321 -318 -479 -235 -229 -532 -375 -962 -472 -483 -108
-856 -115 -1137 -20 -164 55 -314 164 -398 290 -47 69 -112 204 -150 310 -79
219 -169 408 -251 528 -24 36 -46 71 -49 78 -3 8 11 34 32 59 29 36 40 43 53
36 16 -9 219 -175 337 -276 28 -23 63 -54 80 -67 l29 -26 -38 -42 c-101 -112
-103 -254 -5 -396 36 -52 107 -126 161 -167 54 -41 187 -105 284 -136 110 -35
358 -84 405 -79 l34 3 2 115 c2 63 10 407 18 764 17 741 27 662 -83 719 -84
44 -171 67 -259 68 -89 2 -107 9 -120 54 l-12 37 52 23 c68 29 320 111 372
119 22 4 46 10 53 15 9 5 14 122 22 460 5 249 7 457 4 462 -19 31 -146 -14
-202 -72 -30 -31 -82 -124 -82 -148 0 -21 -18 -11 -101 57 -128 103 -243 187
-334 242 -83 50 -95 65 -95 122 0 17 6 28 17 30 41 8 1622 -3 1743 -12z m2994
-10 c8 -8 -19 -198 -80 -545 -13 -77 -32 -187 -42 -245 l-18 -105 -45 0 -44 0
-6 118 c-7 127 -22 223 -46 302 -21 69 -54 145 -63 145 -4 0 -12 11 -18 24
-15 33 -107 102 -163 121 -29 11 -92 18 -189 21 -80 2 -211 6 -291 9 -146 5
-147 5 -153 -17 -3 -13 -6 -118 -6 -233 0 -199 1 -213 23 -255 27 -54 64 -75
132 -74 42 0 78 15 233 92 124 63 184 88 187 80 2 -7 6 -195 9 -418 2 -223 7
-418 10 -435 7 -28 4 -32 -43 -62 -27 -18 -54 -33 -60 -33 -5 0 -16 21 -24 48
-16 50 -148 430 -165 473 -24 60 -111 99 -177 80 -65 -18 -103 -63 -119 -136
-8 -40 -12 -992 -4 -1000 10 -11 269 36 503 91 559 131 995 316 1313 556 51
39 95 68 98 65 8 -8 -14 -45 -69 -117 -206 -264 -443 -490 -646 -611 -166
-100 -240 -119 -459 -119 -158 0 -433 -19 -552 -39 -188 -30 -407 -90 -547
-150 -249 -107 -433 -291 -433 -433 0 -41 -3 -50 -22 -57 -58 -23 -376 -121
-391 -121 -14 0 -12 9 15 58 89 162 211 311 329 402 191 148 280 265 324 429
13 47 16 196 22 968 l6 912 -35 17 c-74 35 -170 -19 -183 -104 -13 -80 -17
-81 -67 -11 -64 89 -160 176 -248 224 -79 43 -97 62 -86 90 6 17 55 18 1144
11 638 -4 1141 -11 1146 -16z m1586 -6 c157 -36 320 -150 378 -265 27 -53 35
-81 39 -146 13 -193 -85 -375 -271 -501 -75 -51 -173 -102 -194 -102 -23 0
-12 -18 28 -45 99 -69 226 -246 275 -385 7 -19 56 -139 110 -265 178 -420 306
-720 326 -762 10 -24 19 -45 19 -48 0 -16 89 -211 124 -270 172 -295 364 -468
596 -537 94 -28 294 -35 384 -14 90 21 189 61 254 102 28 19 52 30 52 25 0
-18 -78 -107 -153 -177 -149 -137 -337 -211 -557 -221 -354 -15 -643 106 -907
379 -139 144 -295 407 -356 603 -23 70 -41 161 -76 365 -37 216 -61 418 -76
645 -15 227 -28 285 -95 396 -48 78 -101 129 -169 160 -25 11 -54 25 -64 30
-9 5 -38 12 -62 16 -25 3 -48 9 -50 13 -3 5 3 28 14 52 18 43 20 44 82 56 164
30 359 177 409 307 71 186 9 338 -162 398 -63 22 -96 27 -245 32 l-171 6 -6
-93 c-4 -51 -8 -496 -9 -988 l-2 -895 23 -44 c13 -24 37 -56 53 -72 16 -15 29
-32 29 -37 0 -4 -35 -16 -77 -26 -139 -32 -470 -150 -648 -231 -103 -47 -169
-75 -176 -75 -7 0 -69 94 -69 105 0 3 7 5 16 5 33 0 162 69 222 119 81 67 117
124 131 205 6 34 11 169 11 300 l0 236 38 43 c122 133 289 414 263 440 -5 5
-24 -6 -46 -28 -106 -102 -231 -203 -240 -193 -3 3 -1 241 4 529 9 513 9 524
-11 551 -27 39 -92 53 -123 28 -16 -13 -29 -1 -60 57 -15 29 -55 79 -88 112
-52 53 -58 64 -52 88 3 15 12 31 18 35 7 4 291 5 632 2 497 -4 633 -9 685 -20z
m561 -248 c53 -36 84 -104 84 -188 0 -61 2 -68 28 -88 l28 -22 41 32 c32 26
42 30 49 19 8 -13 5 -588 -6 -1064 -5 -209 -5 -210 -30 -232 -14 -12 -47 -30
-73 -39 -39 -14 -52 -25 -67 -57 -23 -47 -53 -87 -65 -87 -4 0 -24 39 -45 88
-21 48 -42 96 -48 107 -14 26 -92 213 -123 295 -57 153 -134 278 -236 386
l-58 61 72 43 c144 85 262 200 318 310 60 118 67 302 14 417 -8 17 -14 37 -14
43 0 20 89 3 131 -24z m4389 14 c81 -15 165 -58 209 -105 67 -73 76 -98 76
-210 0 -89 -3 -105 -27 -150 -26 -50 -72 -105 -86 -105 -10 0 -352 87 -420
106 -99 29 -151 100 -152 207 0 132 74 217 222 252 66 17 111 18 178 5z
m-5070 -112 c58 -30 90 -78 90 -134 0 -89 -72 -228 -163 -311 -48 -44 -147
-83 -213 -83 -27 0 -37 -5 -46 -25 -26 -57 -31 -24 -25 157 4 99 7 232 7 294
l0 113 53 4 c28 2 97 4 152 5 87 2 107 -1 145 -20z m-208 -829 c66 -42 116
-113 156 -221 20 -55 32 -140 52 -373 19 -226 81 -549 147 -765 53 -171 52
-164 12 -157 -19 3 -115 16 -214 28 -154 18 -219 21 -452 17 -150 -2 -273 -1
-273 3 0 20 312 99 391 99 33 0 39 5 56 38 44 87 78 149 101 185 13 22 22 40
20 41 -97 59 -137 110 -150 189 -9 55 -9 431 0 761 l5 198 51 -7 c30 -4 70
-18 98 -36z m5439 -1508 c77 -27 117 -51 158 -95 77 -84 106 -174 89 -282 -17
-113 -78 -192 -183 -241 -49 -22 -74 -27 -140 -28 -67 0 -90 5 -142 29 -73 33
-147 107 -183 181 -35 70 -35 199 -1 265 79 153 247 225 402 171z m-5236 -36
c66 -8 145 -20 175 -26 l55 -11 45 -91 c25 -50 78 -141 118 -201 40 -61 69
-112 63 -114 -5 -2 -40 13 -78 32 -330 170 -914 230 -1378 141 -230 -44 -367
-90 -569 -191 -314 -158 -592 -397 -760 -654 -170 -260 -312 -612 -391 -975
-64 -293 -82 -805 -40 -1120 20 -149 66 -380 99 -495 135 -483 454 -964 836
-1261 47 -36 96 -72 110 -79 14 -7 27 -16 30 -20 21 -28 274 -150 424 -205
229 -82 389 -114 624 -122 347 -12 665 59 1019 229 446 213 775 554 1036 1074
78 156 154 379 206 609 64 284 68 728 10 1075 -83 492 -235 889 -485 1265 -40
61 -105 148 -143 194 -39 47 -69 86 -68 88 2 2 57 -14 123 -36 65 -21 161 -45
212 -51 111 -15 361 -8 439 13 51 14 53 13 76 -12 13 -14 44 -57 69 -96 299
-470 486 -1046 534 -1643 5 -53 12 -86 20 -89 21 -8 100 33 149 78 26 24 58
66 72 93 l25 50 -1 745 -2 746 -24 37 c-32 49 -65 69 -119 75 -45 5 -77 -6
-208 -73 -26 -13 -54 -24 -62 -24 -8 0 -28 21 -46 47 -36 55 -46 40 85 133
111 79 214 160 289 228 l65 59 98 6 c120 8 427 7 468 -2 34 -7 25 7 378 -579
133 -221 249 -415 258 -430 14 -22 97 -161 284 -474 l20 -33 6 185 c3 102 5
379 4 615 l-2 430 -26 72 c-40 112 -114 211 -205 275 -42 29 -43 32 -37 67 4
20 9 38 11 40 2 2 39 -8 81 -22 43 -14 166 -53 273 -87 107 -34 204 -66 215
-71 11 -5 33 -13 48 -19 26 -9 28 -13 22 -43 -9 -39 -10 -41 -60 -55 -51 -15
-110 -64 -135 -112 -19 -36 -19 -59 -15 -611 7 -857 11 -985 36 -1065 35 -113
96 -202 209 -307 280 -259 688 -285 920 -58 60 59 128 176 117 204 -5 13 -94
45 -202 72 -112 28 -358 47 -545 42 -96 -3 -159 -2 -140 2 100 22 171 86 228
209 31 68 36 88 38 167 4 118 42 794 49 866 8 80 -3 134 -39 187 -40 59 -109
95 -185 97 l-56 2 -3 36 c-3 34 0 37 35 53 50 21 927 314 942 314 12 0 15 -39
3 -56 -4 -6 -32 -24 -62 -41 -82 -47 -112 -82 -164 -188 -26 -54 -47 -193 -27
-181 7 4 11 -1 11 -13 0 -12 -5 -21 -10 -21 -7 0 -10 -194 -8 -602 l3 -603 27
-50 c28 -53 96 -123 144 -148 16 -8 71 -25 122 -38 54 -14 92 -29 92 -36 0 -7
-10 -29 -22 -50 -12 -21 -33 -58 -46 -83 -61 -110 -158 -270 -196 -324 -91
-131 -287 -259 -446 -292 -101 -21 -294 -21 -385 1 -309 73 -507 221 -708 530
-92 141 -202 309 -399 610 -46 72 -112 176 -146 233 -34 56 -83 135 -108 175
-26 39 -57 88 -69 107 -12 19 -49 78 -82 130 -79 124 -331 521 -369 582 -16
27 -33 48 -38 48 -6 0 -7 -185 -3 -462 21 -1427 21 -1487 6 -1492 -8 -2 -117
-23 -242 -47 -126 -24 -233 -47 -239 -50 -5 -4 -16 -51 -23 -105 -13 -93 -43
-245 -64 -324 -66 -238 -103 -349 -166 -505 -166 -411 -451 -827 -736 -1073
-94 -82 -303 -243 -340 -262 -13 -8 -47 -31 -76 -52 -29 -21 -57 -38 -64 -38
-6 0 -23 -8 -37 -19 -48 -34 -245 -128 -367 -176 -226 -89 -445 -154 -650
-196 -155 -31 -534 -39 -715 -15 -466 61 -902 236 -1355 544 -240 164 -411
324 -610 572 -257 320 -453 696 -583 1115 -59 189 -122 470 -122 539 0 20 -3
36 -6 36 -4 0 -26 -17 -48 -37 -179 -161 -279 -216 -484 -264 -105 -24 -299
-26 -410 -3 -229 46 -421 152 -592 325 -210 212 -332 444 -427 814 -14 56 -18
110 -18 275 0 189 2 213 27 307 15 56 39 131 54 165 29 66 144 266 166 290 7
7 25 29 40 49 42 57 171 178 240 226 92 65 270 148 373 175 75 19 115 23 245
23 139 0 166 -3 260 -28 409 -111 672 -98 877 41 34 23 68 42 75 42 7 0 28
-19 47 -41 38 -45 42 -33 -44 -129 -145 -163 -235 -296 -357 -530 -68 -129
-158 -331 -158 -354 0 -32 -26 -36 -96 -15 -93 29 -96 32 -77 77 24 58 62 240
69 332 11 143 -27 253 -119 343 -66 65 -138 97 -245 110 -170 21 -328 -43
-459 -186 -157 -171 -243 -484 -243 -887 0 -236 60 -548 140 -725 112 -247
340 -410 591 -423 181 -9 309 37 449 160 139 123 137 119 149 228 35 294 114
547 281 895 41 86 157 300 203 375 38 63 185 258 236 312 27 29 62 67 78 84
60 66 221 209 300 268 154 114 198 144 323 215 439 252 859 381 1390 427 187
16 543 11 715 -11z m-215 -399 c125 -17 243 -46 360 -88 47 -16 94 -33 105
-36 46 -12 259 -131 380 -211 224 -148 450 -394 584 -635 34 -60 61 -110 61
-112 0 -1 21 -46 46 -99 194 -413 294 -888 294 -1398 0 -264 -67 -612 -171
-892 -23 -60 -50 -127 -60 -147 -11 -21 -19 -43 -19 -49 0 -7 -6 -20 -13 -28
-8 -9 -35 -56 -62 -106 -40 -77 -101 -174 -172 -275 -186 -266 -444 -482 -772
-647 -217 -109 -421 -170 -651 -193 -58 -6 -124 -15 -148 -20 -59 -14 -126
-12 -277 5 -397 47 -645 136 -957 341 -174 115 -260 191 -408 363 -293 338
-535 872 -594 1309 -34 255 -41 347 -40 557 2 410 63 749 202 1115 79 209 132
303 270 488 149 199 401 412 609 516 242 120 515 205 778 240 137 19 522 19
655 2z m5707 -628 c-3 -8 -6 -5 -6 6 -1 11 2 17 5 13 3 -3 4 -12 1 -19z
m-3083 -224 c9 -3 20 -22 25 -43 5 -20 12 -324 15 -676 3 -441 2 -621 -5 -580
-6 33 -19 119 -30 190 -20 129 -81 391 -121 515 -11 36 -45 130 -75 210 -30
80 -57 157 -60 172 -8 44 51 119 141 179 57 38 79 45 110 33z m2924 -1515 c53
-11 101 -25 106 -30 19 -17 -46 -68 -126 -99 -109 -42 -217 -56 -323 -42 -128
17 -308 94 -280 120 9 9 139 40 250 61 95 17 268 13 373 -10z"/>
<path d="M3427 10123 c-4 -137 -7 -335 -7 -440 0 -185 1 -193 20 -193 33 0
332 50 395 66 113 29 230 128 288 244 28 56 32 76 35 160 4 94 3 96 -38 177
-48 96 -95 142 -190 186 -73 33 -175 46 -381 47 l-116 0 -6 -247z m364 82 c62
-21 146 -97 178 -161 33 -64 40 -172 17 -242 -20 -60 -90 -142 -150 -176 -56
-32 -229 -79 -296 -80 l-55 -1 2 324 c2 197 7 328 13 336 16 20 231 20 291 0z"/>
<path d="M3425 9285 c-2 -5 -6 -235 -10 -510 -4 -275 -10 -651 -14 -835 -4
-184 -4 -339 0 -344 11 -12 148 103 284 239 193 193 345 406 405 567 12 32 19
62 15 68 -3 6 0 17 8 25 20 20 31 146 23 253 -12 155 -75 291 -182 391 -122
115 -226 155 -408 155 -71 1 -120 -3 -121 -9z m299 -192 c62 -31 165 -133 195
-192 47 -91 63 -160 63 -276 0 -112 -14 -186 -52 -280 -4 -11 -18 -46 -30 -78
-54 -138 -219 -375 -348 -499 -70 -68 -89 -79 -97 -55 -9 25 21 1387 30 1396
29 29 169 19 239 -16z"/>
<path d="M11849 10593 c-1 -5 -1 -11 0 -15 0 -5 -3 -8 -7 -8 -8 0 -35 -70 -36
-94 -1 -6 -15 -13 -33 -18 -23 -6 -40 -21 -58 -52 l-25 -43 -16 -844 c-13
-658 -20 -849 -30 -865 -41 -67 -208 -91 -309 -46 -58 27 -119 82 -144 132
-43 83 -44 104 -36 898 3 416 8 798 10 849 3 69 0 93 -10 96 -23 10 -995 -6
-995 -15 0 -8 -63 -120 -128 -229 -15 -25 -15 -30 3 -70 26 -61 27 -61 68 -44
42 17 145 20 199 5 48 -14 133 -81 154 -123 15 -28 16 -61 12 -292 -3 -143 -3
-431 1 -640 7 -358 9 -384 30 -450 94 -287 322 -518 601 -608 234 -75 503 -54
690 56 71 42 206 177 249 249 39 68 74 152 97 234 18 68 29 329 42 1049 l9
450 26 52 c44 85 173 163 271 163 29 0 35 8 91 108 33 59 62 110 63 115 2 4
-174 7 -392 7 -218 0 -397 -3 -397 -7z m691 -56 c0 -7 -15 -37 -33 -67 -32
-54 -33 -55 -90 -62 -106 -13 -213 -94 -259 -196 -22 -49 -24 -83 -33 -687 -8
-512 -21 -796 -39 -860 -74 -261 -240 -448 -453 -510 -123 -36 -395 -28 -512
15 -193 70 -389 270 -467 475 -48 127 -50 172 -41 805 4 322 6 610 3 641 -6
81 -48 169 -108 225 -64 60 -125 86 -217 92 -72 5 -73 5 -87 39 -8 19 -17 47
-21 64 l-6 29 459 -2 459 -3 -4 -801 c-3 -859 -1 -908 46 -1001 35 -70 106
-141 173 -172 82 -38 196 -42 278 -8 72 29 118 65 160 127 66 98 64 69 78 905
6 418 15 806 19 863 l8 102 343 0 c275 0 344 -3 344 -13z"/>
<path d="M9427 266 c-5 -15 -6 -31 -3 -34 8 -8 18 25 14 45 -3 13 -6 10 -11
-11z"/>
</g>
</svg>
