<svg width="172" height="60" viewBox="0 0 172 60" fill="none" xmlns="http://www.w3.org/2000/svg">
<path d="M39.4047 20.5691C36.5516 21.1312 34.7405 22.9247 33.8597 26.0833C33.5992 27.0202 33.5868 27.3146 33.5372 33.7791L33.5 40.5112H34.7405H35.9934V34.1137C35.9934 27.221 36.0182 26.9265 36.6632 25.5346C37.0726 24.6646 38.189 23.5939 39.0326 23.2593C41.588 22.2287 44.4659 23.3262 45.5451 25.7353C46.1406 27.047 46.1654 27.3414 46.1654 34.1137V40.5112H47.4058H48.6463V34.2475C48.6463 27.4886 48.6835 27.0202 49.3286 25.6416C49.7752 24.7048 50.383 24.0222 51.2141 23.5537C52.5911 22.7641 54.2905 22.657 55.7791 23.2593C56.6103 23.5939 57.6523 24.5843 58.1112 25.481C58.7687 26.806 58.8183 27.3013 58.8183 34.1806V40.5112H60.0712H61.3117L61.2745 33.846C61.2249 27.5556 61.2125 27.1406 60.9644 26.177C60.5922 24.7717 60.0216 23.6073 59.2897 22.7641C58.4834 21.8406 57.7515 21.3454 56.5234 20.8903C55.6427 20.5557 55.345 20.5156 53.9804 20.5156C52.6159 20.5156 52.3182 20.5691 51.4622 20.877C49.7752 21.506 48.4975 22.6303 47.778 24.1025C47.6043 24.4371 47.4431 24.7182 47.4058 24.7182C47.3686 24.7182 47.1826 24.4237 46.9965 24.049C46.2274 22.5633 44.8008 21.3722 43.1882 20.8234C42.2578 20.5156 40.3351 20.3817 39.4047 20.5691Z" fill="black"/>
<path d="M79.2195 20.5691C76.1183 21.1045 74.0591 23.1255 73.4016 26.2841C73.2403 27.1005 73.2031 28.2783 73.2031 33.8728V40.5112H74.3692H75.5476L75.5849 33.7925C75.6221 27.85 75.6593 26.98 75.8454 26.3644C76.3043 24.8788 77.2595 23.808 78.624 23.2325C79.5668 22.8444 81.6012 22.8042 82.6308 23.1388C84.6156 23.7947 85.7072 25.4409 85.9305 28.0775L86.0173 29.001H87.1958H88.3743L88.2998 27.8902C88.0393 24.1159 86.253 21.6131 83.189 20.7699C82.2587 20.5156 80.1995 20.4085 79.2195 20.5691Z" fill="black"/>
<path d="M127.047 20.5823C125.98 20.7563 124.367 21.3719 123.474 21.9207C123.089 22.175 122.283 22.8977 121.688 23.5267C120.795 24.4904 120.534 24.8785 120.05 25.9359C119.281 27.6624 119.07 28.693 119.07 30.7407C119.07 32.7885 119.281 33.819 120.05 35.5455C120.534 36.6029 120.795 36.991 121.688 37.9547C122.916 39.2663 123.759 39.8418 125.211 40.3905C129.106 41.8226 133.77 40.6582 136.152 37.6602C136.772 36.8839 137.591 35.4786 137.591 35.1976C137.591 35.0637 137.281 35.0236 136.325 35.0236L135.048 35.037L134.614 35.7195C133.845 36.9509 132.406 37.9413 130.768 38.383C130.371 38.49 129.503 38.5703 128.659 38.5569C127.456 38.5436 127.084 38.49 126.265 38.1822C125.732 37.9948 125 37.6334 124.653 37.3792C123.747 36.7635 122.655 35.4385 122.209 34.4213C121.824 33.5647 121.415 31.865 121.539 31.6508C121.576 31.5973 125.409 31.5437 130.049 31.5437H138.496L138.422 30.2321C138.124 25.4139 135.581 21.9742 131.45 20.8366C130.284 20.5154 128.2 20.3949 127.047 20.5823ZM130.359 23.0449C132.17 23.4197 133.845 24.5841 134.8 26.1366C135.283 26.9263 135.842 28.4387 135.854 28.9606V29.2685H128.721C122.903 29.2685 121.588 29.2417 121.588 29.0945C121.588 29.0008 121.675 28.5859 121.787 28.1844C122.841 24.3699 126.389 22.2285 130.359 23.0449Z" fill="black"/>
<path d="M66.0156 30.7409V40.5112H67.2561H68.4966V30.7409V20.9706H67.2561H66.0156V30.7409Z" fill="black"/>
<path d="M89.7351 21.0775C89.7599 21.1444 91.5834 25.5478 93.8039 30.8612L97.8231 40.5244L99.3117 40.4843L100.788 40.4441L104.795 30.8077C107.003 25.5076 108.814 21.131 108.814 21.0641C108.814 21.0106 108.231 20.9704 107.524 20.9704H106.246L102.797 29.4826C99.659 37.2186 99.3365 37.9681 99.2 37.687C99.1132 37.513 97.5502 33.6718 95.7267 29.1614L92.4022 20.9704H91.05C90.3057 20.9704 89.7103 21.024 89.7351 21.0775Z" fill="black"/>
<path d="M98.5195 21.091C96.8077 21.6933 95.9393 23.46 96.4355 25.307C96.634 26.0431 97.6636 27.154 98.3459 27.3681C100.244 27.9704 102.092 26.6855 102.328 24.611C102.526 22.8042 101.236 21.1446 99.5491 21.0241C99.1522 20.9974 98.6932 21.0241 98.5195 21.091Z" fill="black"/>
<path d="M112.664 30.7409V40.5112H113.843H115.021V30.7409V20.9706H113.843H112.664V30.7409Z" fill="black"/>
</svg>
