<svg width="168" height="60" viewBox="0 0 168 60" fill="none" xmlns="http://www.w3.org/2000/svg">
<path fill-rule="evenodd" clip-rule="evenodd" d="M75.6864 40.4821C74.4161 40.4821 70.2702 39.9907 70.2702 33.6699C70.2702 27.5279 74.0579 26.8597 75.6864 26.8597C76.9577 26.8597 81.1026 27.3501 81.1026 33.6709C81.1026 38.6971 78.1851 40.4821 75.6864 40.4821ZM82.1812 25.8258C80.4726 24.2307 78.1665 23.3522 75.6864 23.3522C73.2063 23.3522 70.9003 24.2298 69.1926 25.8258C67.2085 27.6777 66.1606 30.3895 66.1606 33.6699C66.1606 36.9504 67.2085 39.6603 69.1926 41.5141C70.9003 43.1092 73.2063 43.9877 75.6864 43.9877C78.1665 43.9877 80.4726 43.1101 82.1812 41.5141C84.1653 39.6603 85.2132 36.9504 85.2132 33.669C85.2132 30.3895 84.1653 27.6786 82.1812 25.8258ZM104.182 39.7599C103.633 39.2062 103.639 38.1806 103.644 37.5664V26.9295H108.064V23.6695H103.644V18.8555H99.7466V23.6695H92.3714V18.8555H88.475V23.6695H84.9237V26.9267H91.2054L88.475 28.6362V38.068C88.475 42.0948 91.09 43.5233 93.3291 43.5233H96.5266V40.1601H94.0428C93.5468 40.1601 93.1755 40.0289 92.9093 39.7599C92.3594 39.2062 92.3668 38.1806 92.3696 37.5664V26.9276H102.521L99.7466 28.6372V38.068C99.7466 42.0948 102.362 43.5233 104.602 43.5233H107.802V40.1601H105.315C104.818 40.1601 104.448 40.0289 104.182 39.7599Z" fill="black"/>
<path fill-rule="evenodd" clip-rule="evenodd" d="M117.378 40.4834C116.108 40.4834 111.962 39.992 111.962 33.6713C111.962 27.5292 115.749 26.861 117.378 26.861C118.648 26.861 122.794 27.3514 122.794 33.6722C122.794 38.6984 119.876 40.4834 117.378 40.4834ZM123.873 25.8271C122.164 24.232 119.858 23.3535 117.378 23.3535C114.898 23.3535 112.591 24.2311 110.888 25.8271C108.904 27.6809 107.855 30.3908 107.855 33.6713C107.855 36.9517 108.908 39.6616 110.889 41.5154C112.595 43.1105 114.902 43.989 117.377 43.989C119.852 43.989 122.163 43.1114 123.872 41.5154C125.855 39.6616 126.904 36.9517 126.904 33.6703C126.904 30.3908 125.856 27.68 123.873 25.8271Z" fill="black"/>
<mask id="mask0_10251_737" style="mask-type:luminance" maskUnits="userSpaceOnUse" x="125" y="18" width="7" height="7">
<path d="M125.986 18.8574H131.423V24.3164H125.986V18.8574Z" fill="black"/>
</mask>
<g mask="url(#mask0_10251_737)">
<path fill-rule="evenodd" clip-rule="evenodd" d="M128.625 20.513H128.238V21.3766H128.659C129.116 21.3766 129.299 21.2314 129.299 20.9485C129.299 20.5967 129.029 20.5093 128.623 20.5093L128.625 20.513ZM128.793 21.8391H128.238V22.9391H127.643V20.043H128.529C129.378 20.043 129.893 20.1956 129.893 20.9439C129.893 21.2631 129.74 21.546 129.367 21.7135L130.035 22.9419H129.378L128.793 21.8391ZM128.705 23.8288C129.952 23.8288 130.882 22.9354 130.882 21.5999C130.882 20.2496 129.953 19.3488 128.704 19.3488C127.485 19.3488 126.52 20.2496 126.52 21.5999C126.52 22.9354 127.485 23.8288 128.705 23.8288ZM128.705 18.8574C130.207 18.8574 131.423 19.9686 131.423 21.5953C131.423 23.2081 130.212 24.3164 128.705 24.3164C127.198 24.3164 125.986 23.2118 125.986 21.5999C125.986 19.9732 127.198 18.8621 128.705 18.8621V18.8574Z" fill="black"/>
</g>
<path fill-rule="evenodd" clip-rule="evenodd" d="M56.6218 17L50.2675 37.762L43.9124 17H36.5V43.5235H40.3239L40.3174 18.1242L48.1029 43.5235H52.4312L60.2168 18.1242L60.2102 43.5235H64.0341V17H56.6218Z" fill="black"/>
</svg>
