<svg width="168" height="60" viewBox="0 0 168 60" fill="none" xmlns="http://www.w3.org/2000/svg">
<path d="M38.7137 23.6829C38.8418 23.7714 38.9492 23.8915 39.0273 24.0337C39.1056 24.1759 39.1524 24.3361 39.1641 24.5017V34.9685C39.1575 35.1355 39.1128 35.298 39.0341 35.4411C38.9554 35.5841 38.8452 35.7032 38.7137 35.7874L30.5488 41.063C30.4135 41.1306 30.2666 41.1656 30.1179 41.1656C29.9693 41.1656 29.8224 41.1306 29.6871 41.063L21.1167 35.56V32.6472L29.6871 38.4713C29.8224 38.5389 29.9693 38.5739 30.1179 38.5739C30.2666 38.5739 30.4135 38.5389 30.5488 38.4713L36.7022 34.5583C36.8303 34.4699 36.9379 34.3498 37.0163 34.2076C37.0948 34.0654 37.1419 33.9052 37.154 33.7395V25.8214C37.1469 25.6546 37.1017 25.4924 37.0228 25.3497C36.9439 25.2069 36.8337 25.0882 36.7022 25.0042L30.5488 21.0896C30.4135 21.022 30.2666 20.987 30.1179 20.987C29.9693 20.987 29.8224 21.022 29.6871 21.0896L23.5323 25.0042C23.4041 25.0926 23.2966 25.2128 23.2181 25.3549C23.1397 25.4971 23.0925 25.6574 23.0805 25.823V31.3291C21.0298 29.7391 22.4374 30.8998 21.0298 29.7391V24.5017C21.0364 24.3348 21.0812 24.1723 21.1599 24.0293C21.2385 23.8862 21.3487 23.7671 21.4802 23.6829L29.6871 18.4503C29.8224 18.3826 29.9693 18.3477 30.1179 18.3477C30.2666 18.3477 30.4135 18.3826 30.5488 18.4503L38.7137 23.6829Z" fill="#111111"/>
<path d="M30.5424 45.4094C30.402 45.476 30.2497 45.5104 30.0955 45.5104C29.9414 45.5104 29.7891 45.476 29.6487 45.4094L23.2826 41.5605C23.0279 41.4262 22.8164 41.5152 22.8164 41.8277V44.1045L20.6939 43.5217V38.0649C20.6939 37.7524 20.9054 37.618 21.1601 37.7977L29.6502 42.895C29.7906 42.9618 29.9429 42.9963 30.097 42.9963C30.2512 42.9963 30.4035 42.9618 30.5439 42.895L40.647 36.7679C40.7795 36.6814 40.8909 36.5636 40.9721 36.4238C41.0533 36.2841 41.1022 36.1263 41.1147 35.9631V23.6181C41.1073 23.4536 41.0605 23.2937 40.9788 23.1531C40.8971 23.0125 40.783 22.8957 40.647 22.8134L30.5424 16.6565C30.402 16.5899 30.2497 16.5554 30.0955 16.5554C29.9414 16.5554 29.7891 16.5899 29.6487 16.6565L19.547 22.7775C19.4155 22.8644 19.3052 22.9825 19.225 23.1223C19.1448 23.262 19.097 23.4195 19.0853 23.5822V42.1106L17 41.5605V22.3289C17.0072 22.1646 17.0536 22.0047 17.1351 21.8641C17.2165 21.7234 17.3304 21.6065 17.4662 21.5242L29.6502 14.1C29.7908 14.0341 29.943 14 30.097 14C30.251 14 30.4033 14.0341 30.5439 14.1L42.7278 21.5242C42.8599 21.611 42.9708 21.729 43.0518 21.8687C43.1327 22.0084 43.1814 22.166 43.194 22.3289V37.1742C43.187 37.3386 43.1406 37.4985 43.0591 37.6392C42.9777 37.7798 42.8637 37.8967 42.7278 37.9789L30.5424 45.4094Z" fill="#111111"/>
<path d="M55.3619 36.8973C58.7311 36.9421 61.3397 33.988 61.2974 30.271C61.3118 29.0911 61.0538 27.9262 60.5468 26.8834C60.0496 25.894 59.3092 25.0754 58.4081 24.5194C57.4845 23.943 56.4366 23.6449 55.3722 23.6557C54.6429 23.6428 53.9189 23.7922 53.2444 24.0948C52.57 24.3973 51.9592 24.8466 51.4497 25.4151V23.9212H49.2388V41.163H51.4497V35.3315C52.5428 36.341 53.9289 36.8958 55.3619 36.8973ZM55.2372 26.0085C57.4069 26.0085 59.0745 27.8622 59.0745 30.2822C59.0745 32.7021 57.4069 34.567 55.2372 34.5446C54.12 34.5334 53.2025 34.1351 52.4831 33.329C51.7418 32.5101 51.3865 31.5089 51.366 30.271C51.3575 29.7126 51.4516 29.158 51.6427 28.6398C51.8338 28.1217 52.118 27.6503 52.4787 27.2535C52.8393 26.8567 53.2691 26.5425 53.7429 26.3292C54.2166 26.1159 54.7246 26.008 55.2372 26.0117V26.0085ZM74.0704 36.5135H76.4079V23.9212H74.1647V25.3975C73.0899 24.2507 71.7541 23.6829 70.1892 23.6589C69.3968 23.6433 68.6095 23.8027 67.8754 24.1273C67.141 24.4519 66.4746 24.9351 65.916 25.5478C65.3579 26.1605 64.919 26.89 64.6264 27.6924C64.3333 28.4948 64.193 29.3534 64.2128 30.2166C64.2065 31.3853 64.4754 32.5362 64.9938 33.5593C65.497 34.5439 66.2361 35.361 67.1325 35.9233C68.0619 36.4934 69.1122 36.7874 70.1786 36.7758C70.9004 36.7933 71.618 36.6502 72.2873 36.3551C72.9562 36.06 73.5634 35.6192 74.0704 35.0596V36.5135ZM70.3152 25.9893C70.8247 25.9845 71.3296 26.0909 71.8006 26.302C72.2717 26.5132 72.6992 26.8249 73.0577 27.2189C73.4167 27.6128 73.6992 28.081 73.8894 28.5958C74.0793 29.1106 74.1732 29.6617 74.1647 30.2166C74.1647 32.6157 72.4746 34.4678 70.3152 34.4455C69.1981 34.423 68.2805 34.036 67.5511 33.2411C66.8213 32.4461 66.4661 31.4225 66.4543 30.2166C66.4458 29.6607 66.5397 29.1085 66.7308 28.5928C66.9215 28.0772 67.2052 27.6084 67.5651 27.2143C67.9253 26.8202 68.3541 26.5087 68.8264 26.2982C69.2987 26.0879 69.8053 25.9828 70.3152 25.9893ZM85.9559 36.5023H87.4164V34.2295H86.1847C84.7973 34.2295 84.0164 33.4298 84.0164 31.9439V26.4211H87.4164V24.1931H84.0164V21.2726L81.8557 21.2614V24.1931H79.947V26.4211H81.8557V32.0015C81.8557 34.7525 83.4954 36.5023 85.9559 36.5023ZM99.0211 36.5023H101.212V28.945C101.212 25.7158 99.4588 23.507 96.7251 23.5342C95.3074 23.5454 94.0668 23.9772 93.1801 24.9097V19.4428H90.9822V36.5023H93.1843V29.604C93.1843 27.4672 94.5923 25.7654 96.282 25.7845C98.0435 25.8069 99.0258 27.0353 99.0258 29.3993L99.0211 36.5023ZM105.607 36.5023H107.705V19.4316H105.607V36.5023ZM122.824 33.5705C123.344 32.5417 123.617 31.3863 123.617 30.2118C123.617 29.0372 123.344 27.8818 122.824 26.853C122.298 25.8626 121.529 25.0516 120.603 24.5114C119.652 23.9381 118.58 23.6443 117.494 23.6589C116.409 23.6459 115.339 23.9356 114.386 24.5002C113.459 25.0442 112.689 25.8589 112.163 26.853C111.639 27.8796 111.37 29.0372 111.381 30.2118C111.34 33.8904 114.083 36.8158 117.494 36.7694C118.583 36.7764 119.656 36.4831 120.613 35.9169C121.538 35.3769 122.304 34.5636 122.824 33.5705ZM117.494 25.8933C118.017 25.8893 118.536 25.9979 119.021 26.213C119.506 26.428 119.947 26.7452 120.32 27.1464C120.692 27.5476 120.987 28.0249 121.19 28.5509C121.393 29.0769 121.498 29.6413 121.5 30.2118C121.5 32.6221 119.696 34.6229 117.494 34.5878C116.466 34.5766 115.543 34.1447 114.705 33.2363C114.325 32.8487 114.023 32.3802 113.816 31.8598C113.61 31.3396 113.504 30.7785 113.505 30.2118C113.477 27.819 115.283 25.8981 117.494 25.8981V25.8933ZM132.519 36.7694C135.232 36.7694 137.434 35.1204 138.226 32.0399H136.014C135.326 33.6665 134.116 34.4167 132.519 34.439C130.443 34.4614 128.764 32.5517 128.776 30.2101C128.784 25.5718 134.408 24.4602 136.035 28.3356H138.205C137.412 25.2967 135.252 23.6525 132.519 23.6525C131.453 23.6407 130.403 23.9347 129.474 24.505C128.562 25.0563 127.81 25.8753 127.303 26.869C126.788 27.8925 126.523 29.0429 126.532 30.2101C126.521 31.3797 126.79 32.5323 127.315 33.5529C127.819 34.5442 128.567 35.3628 129.474 35.9169C130.402 36.4894 131.453 36.7857 132.519 36.7758V36.7694ZM149.164 36.4959H152L145.593 29.8983L151.591 23.7965H148.823L144.134 28.4444V19.4428H141.954V36.5023H144.134V31.3537L149.164 36.4959Z" fill="#111111"/>
</svg>
