<svg width="197" height="60" viewBox="0 0 197 60" fill="none" xmlns="http://www.w3.org/2000/svg">
<path fill-rule="evenodd" clip-rule="evenodd" d="M55.5858 24.985C55.0237 25.6998 54.0971 26.0743 53.415 26.6771C52.3971 25.6655 51.2645 24.4711 49.4219 24.2597C47.3869 24.0272 45.041 24.7301 44.9912 26.1926C44.9331 27.9548 47.4231 28.0913 48.9873 28.3685C52.1775 28.9342 55.61 29.3998 56.0197 32.4774C56.5977 36.8158 52.213 38.6143 47.7725 38.118C44.718 37.775 42.3035 36.0632 41.3459 33.7669C41.899 33.0724 42.926 32.8169 43.6028 32.2358C44.3521 34.3872 47.9121 36.9908 51.5912 35.3771C52.4145 35.0173 53.4407 34.0869 52.9811 32.7196C52.5677 31.4839 50.467 31.2711 48.6387 30.947C45.284 30.3519 41.4372 29.7799 42.1269 25.5485C42.4997 23.2543 45.2168 21.85 48.2923 21.7625C51.8531 21.6595 53.7916 22.9799 55.5858 24.985Z" fill="#111111"/>
<path fill-rule="evenodd" clip-rule="evenodd" d="M133.824 27.5629C133.015 27.7505 131.83 27.5902 130.871 27.6427C129.972 25.9877 128.746 24.6008 126.529 24.3397C117.421 23.2699 117.493 36.4246 126.357 35.5391C128.408 35.3339 130.1 34.0346 130.784 32.2353H133.824C132.74 35.9619 129.752 38.1917 125.575 38.1973C120.855 38.2043 116.661 34.9195 116.63 30.0594C116.607 25.7784 119.896 21.9741 125.054 21.762C129.929 21.561 132.613 24.143 133.824 27.5629Z" fill="#111111"/>
<path fill-rule="evenodd" clip-rule="evenodd" d="M73.8206 22.084V24.5007H64.8785V28.3673C67.1066 28.5557 69.7099 28.3946 72.0837 28.4478V30.7854H64.8785V35.3759C67.7133 35.5642 70.9262 35.4046 73.9082 35.4585V37.8746H61.9244C61.9825 32.6379 61.8082 27.187 62.0112 22.084H73.8206Z" fill="#111111"/>
<path fill-rule="evenodd" clip-rule="evenodd" d="M83.0256 22.084C85.5111 25.847 87.8993 29.7017 90.4081 33.4436V22.084H93.3585V37.8746H90.2354C87.6888 34.031 85.2621 30.0797 82.6786 26.2733C82.4755 29.9796 82.6506 34.0338 82.5917 37.8746H79.7268C79.7848 32.6379 79.612 27.187 79.8135 22.084H83.0256Z" fill="#111111"/>
<path fill-rule="evenodd" clip-rule="evenodd" d="M112.03 22.084V24.5007H103.085V28.3673C105.315 28.5557 107.919 28.3946 110.294 28.4478V30.7854H103.085V35.3759C105.921 35.5642 109.136 35.4046 112.114 35.4585V37.8746H100.131C100.19 32.6379 100.018 27.187 100.221 22.084H112.03Z" fill="#111111"/>
<path fill-rule="evenodd" clip-rule="evenodd" d="M142.422 31.51H147.371C146.529 29.2571 145.841 26.8607 144.854 24.7422C144.025 26.9825 143.212 29.2375 142.422 31.51ZM146.762 22.084C148.755 27.2724 150.576 32.6176 152.58 37.7955C151.799 37.981 150.643 37.8206 149.715 37.8746C149.191 36.5877 148.8 35.1799 148.239 33.9267H141.641C140.97 35.1057 140.622 36.5815 140.077 37.8746H137.212C139.233 32.6617 140.984 27.1947 143.114 22.084H146.762Z" fill="#111111"/>
</svg>
