<svg width="168" height="60" viewBox="0 0 168 60" fill="none" xmlns="http://www.w3.org/2000/svg">
<path d="M28.4579 33.6531H30.566C30.829 33.6531 31.0805 33.8658 31.1346 34.1249C31.4905 35.9114 33.2891 37.1527 36.2288 37.1527C39.536 37.1527 41.3811 35.6137 41.3811 33.5758C41.3811 31.2711 38.9597 31.0004 36.2288 30.6524C32.8056 30.2309 28.9221 29.6895 28.9221 25.4977C28.9221 21.9246 31.7303 19.5 36.1902 19.5C40.65 19.5 43.3847 21.9594 43.4582 25.1922H41.4236C41.1451 25.1922 40.9131 24.995 40.855 24.7243C40.503 23.0731 38.8243 21.8473 36.1476 21.8473C33.2234 21.8473 31.4944 23.309 31.4944 25.2695C31.4944 27.6168 33.9544 27.8836 36.6466 28.2316C39.6095 28.6145 43.992 29.0785 43.992 33.3863C43.992 37.0019 40.9517 39.5 36.2211 39.5C31.4905 39.5 28.5662 37.0019 28.4502 33.657L28.4579 33.6531Z" fill="#111111"/>
<path d="M91.6191 29.9246V20.002H93.6151C93.9361 20.002 94.1953 20.261 94.1953 20.582V29.9246C94.1953 34.5766 96.8874 37.1133 101.003 37.1133C105.119 37.1133 107.811 34.5766 107.811 29.9246V20.582C107.811 20.261 108.07 20.002 108.391 20.002H110.387V29.9246C110.387 36.2317 106.619 39.4992 101.003 39.4992C95.3866 39.4992 91.6191 36.2317 91.6191 29.9246Z" fill="#111111"/>
<path d="M113.497 24.209H115.493C115.814 24.209 116.073 24.4681 116.073 24.789V38.9963H113.497V24.209Z" fill="#111111"/>
<path d="M116.073 20.002H113.497V22.442H116.073V20.002Z" fill="#111111"/>
<path d="M119.141 29.0785C119.141 22.7715 122.912 19.5 128.525 19.5C134.137 19.5 137.908 22.7676 137.908 29.0746V38.9934H135.913C135.591 38.9934 135.332 38.7343 135.332 38.4134V29.0785C135.332 24.3879 132.64 21.8898 128.525 21.8898C124.409 21.8898 121.717 24.3879 121.717 29.0785V38.4172C121.717 38.7382 121.458 38.9973 121.137 38.9973H119.141V29.0785Z" fill="#111111"/>
<path d="M140.326 33.6531H142.434C142.697 33.6531 142.948 33.8658 143.002 34.1249C143.358 35.9114 145.157 37.1527 148.097 37.1527C151.404 37.1527 153.249 35.6137 153.249 33.5758C153.249 31.2711 150.827 31.0004 148.097 30.6524C144.673 30.2309 140.79 29.6895 140.79 25.4977C140.786 21.9246 143.594 19.5 148.058 19.5C152.522 19.5 155.252 21.9594 155.326 25.1922H153.291C153.028 25.1922 152.781 24.9795 152.723 24.7243C152.371 23.0731 150.692 21.8473 148.015 21.8473C145.091 21.8473 143.362 23.309 143.362 25.2695C143.362 27.6168 145.822 27.8836 148.514 28.2316C151.477 28.6145 155.86 29.0785 155.86 33.3863C155.86 37.0019 152.819 39.5 148.089 39.5C143.358 39.5 140.434 37.0019 140.318 33.657L140.326 33.6531Z" fill="#111111"/>
<path d="M65.8233 29.4995C65.8233 23.6101 60.702 18.8924 54.6756 19.5614C50.0881 20.0718 46.3902 23.7648 45.8796 28.3549C45.2066 34.3797 49.9256 39.4995 55.8205 39.4995C59.7273 39.4995 63.1157 37.2528 64.7596 33.9736H62.0674C61.8895 33.9736 61.727 34.0548 61.6149 34.194C60.2456 35.88 58.1568 36.9589 55.8205 36.9589C52.1381 36.9589 49.0708 34.2791 48.4674 30.7679H65.8233V29.4995ZM55.8205 22.0401C59.5029 22.0401 62.5703 24.72 63.1737 28.2312H48.4635C49.0669 24.72 52.1343 22.0401 55.8167 22.0401H55.8205Z" fill="#111111"/>
<path d="M89.4223 36.7609C88.3393 36.6564 87.2988 36.3084 86.3859 35.7477C86.5019 35.5969 86.6218 35.4422 86.7302 35.2837C86.7882 35.1986 86.8462 35.1135 86.9042 35.0246C86.9738 34.9163 87.0357 34.808 87.0976 34.6959C87.9718 33.2071 88.4669 31.4438 88.4669 29.4987C88.4669 26.088 86.97 23.2303 84.5099 21.4631C82.8466 20.2605 80.7424 19.5605 78.3249 19.5605H78.2978C75.8803 19.5605 73.7722 20.2605 72.1128 21.4631C69.6527 23.2303 68.1558 26.088 68.1558 29.4987C68.1558 31.4438 68.6509 33.2071 69.5251 34.6959C69.5869 34.808 69.6527 34.9163 69.7185 35.0246C69.7765 35.1135 69.8306 35.1986 69.8925 35.2837C70.0395 35.5002 70.1981 35.7129 70.3644 35.9179H70.3683C71.7569 37.6155 73.7567 38.7988 76.1549 39.2396C76.1781 39.2435 76.2013 39.2473 76.2245 39.2512C76.5224 39.3053 76.8241 39.344 77.1335 39.3749C77.1877 39.3788 77.2418 39.3865 77.296 39.3904C77.6248 39.4175 77.9613 39.4368 78.3017 39.4368H78.3287C78.6691 39.4368 79.0057 39.4175 79.3344 39.3904C79.3886 39.3865 79.4427 39.3788 79.4969 39.3749C79.8063 39.344 80.108 39.3053 80.4059 39.2512C80.4291 39.2473 80.4523 39.2435 80.4755 39.2396C82.0073 38.9573 83.3765 38.3695 84.5292 37.542C86.0997 38.6557 87.9834 39.286 89.9484 39.3131V37.3332C89.9484 37.0393 89.724 36.7879 89.43 36.7609H89.4223ZM73.5865 23.5087C74.8514 22.5923 76.4489 22.1012 78.2088 22.0857H78.4022C80.1622 22.1012 81.7597 22.5923 83.0323 23.5126C84.9044 24.8544 85.9333 26.9813 85.9333 29.4948C85.9333 30.9411 85.5891 32.2597 84.9006 33.4353C84.8541 33.5126 84.8116 33.5938 84.7729 33.6557C84.7342 33.7175 84.6917 33.7794 84.6375 33.8606C84.5872 33.9341 84.537 34.0037 84.4905 34.0694L84.3397 33.8877C81.369 30.3146 76.9672 28.2496 72.3178 28.2496H70.7628C71.0491 26.2814 72.0238 24.6263 73.5826 23.5049L73.5865 23.5087ZM80.0191 36.7531L79.9765 36.7609H79.9533C79.7251 36.8073 79.4892 36.8382 79.2377 36.8614L79.172 36.8691L79.1178 36.8769C78.8277 36.9001 78.584 36.9117 78.3597 36.9155H78.2514C78.027 36.9155 77.7872 36.9039 77.5048 36.8807L77.4391 36.873L77.3656 36.8653C77.1258 36.8421 76.886 36.8111 76.6616 36.7686L76.6307 36.7609H76.6075C74.8475 36.4322 73.3738 35.6008 72.3371 34.3479L72.3178 34.3208C72.2056 34.1816 72.0934 34.0308 71.9658 33.8452C71.9232 33.7833 71.8846 33.7214 71.8536 33.675C71.8033 33.5977 71.7608 33.5203 71.7028 33.4198C71.2309 32.6155 70.9253 31.7299 70.7822 30.7786H72.3487C76.2323 30.7786 79.9146 32.5072 82.3941 35.4964L82.6223 35.7709C81.8603 36.2349 80.99 36.5714 80.0229 36.7531H80.0191Z" fill="#111111"/>
<path d="M18.6449 28.0332H1.50559C0.971521 28.0332 0.538574 28.466 0.538574 28.9999V30.0131C0.538574 30.547 0.971521 30.9798 1.50559 30.9798H18.6449C19.179 30.9798 19.6119 30.547 19.6119 30.0131V28.9999C19.6119 28.466 19.179 28.0332 18.6449 28.0332Z" fill="#111111"/>
<path d="M18.6449 20.002H14.6841C14.15 20.002 13.717 20.4348 13.717 20.9687V21.9818C13.717 22.5158 14.15 22.9486 14.6841 22.9486H18.6449C19.179 22.9486 19.612 22.5158 19.612 21.9818V20.9687C19.612 20.4348 19.179 20.002 18.6449 20.002Z" fill="#111111"/>
<path d="M5.46647 36.0645H1.50559C0.971521 36.0645 0.538574 36.4973 0.538574 37.0312V38.0443C0.538574 38.5783 0.971521 39.0111 1.50559 39.0111H5.46647C6.00054 39.0111 6.43349 38.5783 6.43349 38.0443V37.0312C6.43349 36.4973 6.00054 36.0645 5.46647 36.0645Z" fill="#111111"/>
<path d="M11.7365 39.0117H18.6487C19.1828 39.0117 19.6157 38.5789 19.6157 38.045V37.0318C19.6157 36.4979 19.1828 36.0651 18.6487 36.0651H11.7365C11.2024 36.0651 10.7695 36.4979 10.7695 37.0318V38.045C10.7695 38.5789 11.2024 39.0117 11.7365 39.0117Z" fill="#111111"/>
<path d="M1.50554 22.9492H8.41775C8.95182 22.9492 9.38477 22.5164 9.38477 21.9825V20.9693C9.38477 20.4354 8.95182 20.0026 8.41775 20.0026H1.50554C0.971475 20.0026 0.538528 20.4354 0.538528 20.9693V21.9825C0.538528 22.5164 0.971475 22.9492 1.50554 22.9492Z" fill="#111111"/>
<path d="M160.576 23.9932V20.7681H159.322V20.0527H162.548V20.7681H161.295V23.9932H160.579H160.576Z" fill="#111111"/>
<path d="M163.264 23.9932V20.0527H164.517L165.233 22.7403L165.948 20.0527H167.201V24.028H166.486V20.9499L165.588 23.9971H164.873L163.975 20.9499V23.9971H163.26L163.264 23.9932Z" fill="#111111"/>
</svg>
