<svg width="168" height="60" viewBox="0 0 168 60" fill="none" xmlns="http://www.w3.org/2000/svg">
<g clip-path="url(#clip0_10251_697)">
<mask id="mask0_10251_697" style="mask-type:luminance" maskUnits="userSpaceOnUse" x="26" y="0" width="115" height="60">
<path d="M140.5 0H26.5V60H140.5V0Z" fill="white"/>
</mask>
<g mask="url(#mask0_10251_697)">
<path fill-rule="evenodd" clip-rule="evenodd" d="M64.3066 41.837C69.3448 41.837 69.4364 44.5564 69.4381 45.8254V48.5914H65.9905V46.3647C65.9905 45.053 65.7498 44.3113 64.2261 44.3113C62.7031 44.3113 62.6227 45.424 62.6227 46.2159V55.5691C62.6227 56.6085 62.8096 57.5482 64.3602 57.5482C65.9343 57.5482 65.9885 56.5339 65.9905 55.506V53.1201H69.4381V55.5939C69.4381 57.0039 69.4381 60.0477 64.3066 60.0477C63.3177 60.0477 61.7411 59.874 60.6451 59.2063C59.1482 58.2914 59.1482 56.9305 59.1482 55.9655V46.464C59.1482 45.053 59.2286 44.0885 60.0834 43.2222C61.4468 41.8613 63.5847 41.837 64.3066 41.837ZM86.9294 42.2078V55.1981C86.9294 56.1383 86.9294 57.3012 88.5592 57.3012C90.1059 57.3012 90.1612 56.243 90.1632 55.2799L90.1633 42.2078H93.6646V55.7424C93.6646 58.0187 92.6227 60.0478 88.4794 60.0478C85.2192 60.0478 83.4281 58.5387 83.4281 55.6679V42.2078H86.9294ZM76.0514 42.2074V57.0295H81.183V59.6769H72.6032V42.2074H76.0514ZM102.987 42.2078C104.325 42.2078 105.126 42.2822 105.874 42.7278C107.077 43.4451 107.238 44.5834 107.238 45.7711V47.3294C107.238 49.6057 106.356 50.0264 105.019 50.2735C107.197 50.6579 107.413 51.5307 107.425 53.2979L107.425 55.9399C107.425 56.8806 107.425 58.3407 106.142 59.132C105.421 59.577 104.458 59.6768 103.095 59.6768H97.1345V42.2078H102.987ZM102.106 51.6354H100.61V57.153H102.052C103.495 57.153 104.03 57.004 104.03 55.3961V53.3421C104.03 51.9073 103.575 51.6354 102.106 51.6354ZM101.999 44.7068H100.61V49.1111L101.206 49.111C102.272 49.1101 102.602 49.104 102.854 49.0619C103.549 48.9131 103.79 48.3936 103.79 47.5031L103.79 46.9572C103.788 45.8307 103.773 45.6844 103.656 45.4248C103.442 44.8558 102.881 44.7068 101.999 44.7068ZM111.237 42.1791C111.987 42.1791 112.575 42.7167 112.575 43.417C112.575 44.0771 112.013 44.6492 111.237 44.6492C110.544 44.6492 109.907 44.1463 109.907 43.414C109.907 42.7027 110.521 42.1791 111.237 42.1791ZM111.238 42.3838C110.634 42.3838 110.129 42.835 110.129 43.414C110.129 43.9954 110.63 44.444 111.241 44.444C111.882 44.444 112.353 43.9669 112.353 43.4165C112.353 42.8454 111.879 42.3838 111.238 42.3838ZM111.223 42.6929C111.382 42.6929 111.492 42.696 111.584 42.727C111.752 42.7818 111.831 42.9239 111.831 43.0583C111.831 43.156 111.79 43.3312 111.516 43.3943C111.663 43.4522 111.708 43.5349 111.735 43.6935C111.765 43.8899 111.783 43.9923 111.851 44.1194H111.54C111.495 44.0368 111.488 43.983 111.457 43.8077C111.406 43.5054 111.385 43.4774 110.997 43.4774V44.1194H110.723V42.6929H111.223ZM111.263 42.8895L111 42.8893V43.2743H111.227C111.34 43.2743 111.557 43.2744 111.557 43.0774C111.557 43.0201 111.529 42.943 111.447 42.9084C111.392 42.8893 111.344 42.8893 111.176 42.8893L111.263 42.8895ZM81.3432 20.7449C83.0534 20.7449 84.39 21.1656 85.2722 21.8334C86.2079 22.5518 86.5284 23.4673 86.5284 25.1491V34.8491C86.5284 36.1355 86.2609 37.0261 85.5128 37.7192C84.39 38.8073 82.6263 38.9561 81.3694 38.9561C77.12 38.9561 76.0777 37.0758 76.0777 34.8491V25.0752C76.0777 24.3335 76.105 23.0217 77.0664 22.081C77.7884 21.3641 79.2048 20.7449 81.3432 20.7449ZM135.398 20.7453C137.429 20.7453 140.209 21.5127 140.209 24.5064V26.2384H136.761L136.76 24.788C136.753 24.0008 136.648 23.1951 135.237 23.1951C134.302 23.1951 133.634 23.5166 133.634 24.9272C133.634 26.3863 133.982 26.7083 134.73 27.1791L138.151 29.3313C138.819 29.7759 139.54 30.3951 139.942 31.038C140.39 31.7372 140.442 32.2427 140.449 33.321L140.449 33.7846C140.449 35.3435 140.449 36.3091 139.835 37.2238C138.792 38.7832 136.628 38.9564 135.345 38.9564C132.378 38.9564 130.106 37.9174 130.106 34.973V32.4242H133.581V34.4534C133.581 35.4676 133.581 36.4817 135.264 36.4817C136.975 36.4817 136.975 35.4427 136.975 33.8839C136.975 32.647 136.708 32.1276 135.799 31.558L132.485 29.5045C130.72 28.3912 130.239 27.1791 130.239 25.397C130.239 24.0361 130.373 22.7242 131.603 21.7846C132.298 21.2403 133.581 20.7453 135.398 20.7453ZM42.2134 21.1163L44.004 26.04L45.8218 21.1163H49.6174L45.8481 29.3804L50.0182 38.5854H46.1959L43.9772 32.5478L41.732 38.5854H37.9639L42.133 29.2818L38.4179 21.1163H42.2134ZM68.7278 21.1163V35.938H73.8593V38.5854H65.2795V21.1163H68.7278ZM35.6915 21.0921V23.7648H30.025V27.8717H35.3442V30.5187H30.025V35.8878H35.9327V38.5848H26.5505V21.0921H35.6915ZM59.4801 21.0916C62.588 21.0916 62.6586 23.2893 62.6603 24.9368V27.327C62.6603 30.1476 62.3398 31.3105 58.9184 31.3105H55.9782V38.5848H52.4769V21.0916H59.4801ZM96.8747 21.0916C99.8918 21.0916 100.227 22.7533 100.264 24.2523L100.268 24.4756C100.268 24.5126 100.268 24.5494 100.269 24.586L100.269 26.6836C100.269 28.9102 99.5213 29.3061 97.8367 29.653C98.6653 29.8508 100.403 30.3207 100.403 32.6714V36.2346C100.403 37.1253 100.483 38.0406 101.205 38.5848H97.3823C96.9814 37.9171 96.8747 37.1749 96.8747 36.6549L96.8742 32.6783C96.8662 31.6192 96.7494 30.8898 95.0569 30.8898H93.4008V38.5848H89.9253V21.0916H96.8747ZM113.253 21.0916V23.7638H107.588V27.8713H112.906V30.5187H107.588V35.8878H113.495V38.5848H104.112V21.0916H113.253ZM123.448 21.0916C126.465 21.0916 126.8 22.7533 126.837 24.2523L126.841 24.4756C126.841 24.5126 126.841 24.5494 126.841 24.586L126.842 26.6836C126.842 28.9102 126.094 29.3061 124.41 29.653C125.238 29.8508 126.976 30.3207 126.976 32.6714V36.2346C126.976 37.1253 127.056 38.0406 127.778 38.5848H123.955C123.554 37.9171 123.448 37.1749 123.448 36.6549L123.447 32.6783C123.439 31.6192 123.322 30.8898 121.63 30.8898H119.973V38.5848H116.498V21.0916H123.448ZM81.3432 23.1953C79.6118 23.1953 79.5541 24.4434 79.5521 25.3982V34.3042C79.5521 35.2941 79.6062 36.4322 81.317 36.4322C82.9092 36.4322 83.019 35.3816 83.0266 34.5575V25.1785C83.0191 24.2889 82.911 23.1953 81.3432 23.1953ZM57.6889 23.6898H55.9782V28.8115H57.6621C58.972 28.8115 59.2388 28.5887 59.2388 27.2526V25.471C59.2388 24.2832 59.2388 23.6898 57.6889 23.6898ZM95.304 23.6155L93.4008 23.6154V28.3913H95.2176C96.795 28.3913 96.8217 27.5989 96.8217 26.7084V25.0507C96.8217 23.6686 96.0529 23.6174 95.304 23.6155ZM121.877 23.6155L119.973 23.6154V28.3913H121.791C123.309 28.3913 123.39 27.6565 123.394 26.8069L123.394 25.0507C123.394 23.6686 122.626 23.6174 121.877 23.6155ZM75.3798 0.0255848V2.54892H71.9053V17.4941H68.4041V2.54892H64.9296V0.0255848H75.3798ZM81.6989 0.0255848V6.90349H84.8791V0.0255848H88.3542V17.4941H84.8791V9.50177H81.6989V17.4941H78.2233V0.0255848H81.6989ZM101.002 0V2.6727H95.3354V6.7797H100.655V9.42707H95.3354V14.7962H101.242V17.4933H91.8608V0H101.002Z" fill="#0C0C0C"/>
</g>
</g>
<defs>
<clipPath id="clip0_10251_697">
<rect width="114" height="60" fill="white" transform="translate(26.5)"/>
</clipPath>
</defs>
</svg>
