<svg width="168" height="60" viewBox="0 0 168 60" fill="none" xmlns="http://www.w3.org/2000/svg">
<path d="M126.839 39.9L125.917 38.9476C124.805 39.9353 123.217 40.1781 121.861 39.5677C120.504 38.9573 119.633 37.6075 119.635 36.1202V24.5313H122.781V20.2038H119.635V9.84863H115.309V36.1241C115.31 37.4407 115.633 38.7369 116.25 39.9C117.015 41.3411 118.194 42.5199 119.635 43.2842C122.001 44.5359 124.834 44.5359 127.2 43.2842C127.828 42.9493 128.409 42.5344 128.929 42.0498L127.2 40.273L126.839 39.9Z" fill="#111111"/>
<path d="M73.2671 25.8465V44.2226H77.5916V25.8465H73.2671ZM73.2671 23.8838H77.5916V19.5596H73.2671V23.8838Z" fill="#111111"/>
<path d="M81.7517 9.84863V21.98V36.1352V44.223H86.0762V42.465V36.1352V21.98V15.6509V9.84863H81.7517Z" fill="#111111"/>
<path d="M90.2363 25.847V44.2231H94.5608V25.847H90.2363ZM90.2363 23.6856H94.5615V19.3613H90.2363V23.6856Z" fill="#111111"/>
<path d="M111.317 13.5009C110.598 13.8821 110.006 14.4731 109.625 15.1929C109.326 15.7579 109.155 16.4014 109.155 17.0845C109.155 17.7675 109.326 18.4112 109.625 18.9759C110.006 19.6954 110.598 20.2861 111.317 20.6676C111.882 20.9675 112.526 21.1384 113.209 21.1384C113.891 21.1384 114.535 20.9675 115.101 20.6681C115.82 20.2866 116.411 19.6954 116.793 18.9759C117.091 18.4123 117.261 17.7697 117.263 17.0883C117.263 17.0883 117.263 17.0862 117.263 17.0845L117.263 17.0802C117.261 16.3987 117.091 15.7568 116.793 15.1929C116.411 14.4731 115.82 13.8821 115.101 13.5009C114.535 13.2013 113.891 13.0312 113.209 13.0312C112.526 13.0312 111.882 13.2013 111.317 13.5009ZM111.317 17.0845C111.317 16.0411 112.165 15.1929 113.209 15.1929C114.251 15.1929 115.099 16.04 115.101 17.0823V17.0867C115.099 18.1285 114.251 18.9759 113.209 18.9759C112.165 18.9759 111.317 18.1274 111.317 17.0845Z" fill="#111111"/>
<path d="M61.3243 44.2226V44.2122C62.5323 44.1655 63.7143 43.8475 64.7827 43.2818C66.224 42.5181 67.4029 41.3394 68.167 39.8983C68.7843 38.7357 69.1071 37.4394 69.1071 36.1231V19.5596H64.7827V36.1198C64.7814 38.2091 63.0866 39.9019 60.9971 39.9006C58.9077 39.8993 57.2149 38.2046 57.2161 36.1153C57.2161 36.112 57.2161 36.1101 57.2161 36.1068V19.5596H52.8897V36.1198C52.8897 36.1939 52.8832 36.2653 52.8793 36.3388C52.8509 36.8203 52.73 37.2919 52.5233 37.7278V37.7343C52.4745 37.8382 52.4206 37.9389 52.3628 38.0364L52.3524 38.0526C52.2965 38.1468 52.2374 38.2365 52.1724 38.3261L52.1523 38.3528C52.0906 38.4372 52.0256 38.5184 51.9574 38.5977C51.947 38.6107 51.9353 38.6211 51.9236 38.6347C51.8586 38.7088 51.7936 38.7796 51.7189 38.8478C51.702 38.864 51.6845 38.879 51.667 38.8946C51.602 38.9595 51.5292 39.0193 51.4571 39.0771C51.4337 39.0953 51.4097 39.1122 51.3856 39.1298C51.3161 39.183 51.2459 39.2344 51.1738 39.2818C51.1426 39.3013 51.1089 39.3195 51.079 39.339C51.0101 39.3818 50.9412 39.4228 50.8711 39.4611C50.8301 39.4819 50.7892 39.4994 50.7496 39.5189C50.6846 39.5514 50.6196 39.5839 50.5488 39.6118C50.5001 39.6313 50.4494 39.6489 50.4007 39.6664C50.3357 39.6904 50.2746 39.7138 50.2103 39.7314C50.146 39.7489 50.0895 39.7625 50.0303 39.7788C49.9712 39.795 49.9147 39.81 49.8562 39.8223C49.7828 39.8366 49.7074 39.8451 49.6327 39.8561C49.584 39.8619 49.5372 39.8717 49.4891 39.8775C49.3676 39.8879 49.2435 39.8951 49.1188 39.8957H49.1012C48.9752 39.8957 48.8531 39.8879 48.7316 39.8775C48.6828 39.8717 48.6367 39.8619 48.5886 39.8561C48.5126 39.8451 48.4379 39.8366 48.3638 39.8223C48.306 39.81 48.2495 39.7931 48.1923 39.7788C48.1351 39.7645 48.0702 39.7496 48.0091 39.7314C47.948 39.7132 47.8843 39.6885 47.822 39.6664C47.7713 39.6489 47.7206 39.6313 47.6712 39.6105C47.603 39.5839 47.5374 39.5508 47.4724 39.5196C47.4315 39.4994 47.3886 39.4812 47.349 39.4591C47.2788 39.4221 47.2106 39.3818 47.1417 39.3396C47.1099 39.3201 47.0767 39.3013 47.0456 39.2805C46.9741 39.2337 46.9039 39.1824 46.8364 39.1304C46.811 39.1129 46.7863 39.0953 46.7623 39.0758C46.6902 39.0187 46.62 38.9563 46.5524 38.8946L46.5011 38.8472C46.4296 38.7789 46.3608 38.7081 46.2951 38.6334C46.2847 38.6204 46.2724 38.61 46.2614 38.597C46.1964 38.5178 46.1314 38.4359 46.0664 38.3515C46.0612 38.3424 46.0541 38.3346 46.0489 38.3261C45.9839 38.2358 45.9229 38.1449 45.8657 38.05C45.864 38.045 45.8613 38.0404 45.8579 38.0364C45.8001 37.9383 45.7455 37.8363 45.6961 37.7317C45.4895 37.2954 45.369 36.8233 45.3414 36.3414C45.3368 36.2679 45.329 36.1965 45.329 36.1224V19.5596H41V36.1263C41.0008 37.4425 41.3233 38.7385 41.9395 39.9016C42.0285 40.0679 42.1227 40.2264 42.2228 40.3882C42.2786 40.4791 42.3404 40.5662 42.4001 40.6552C42.4391 40.7124 42.4774 40.7708 42.519 40.828C42.6054 40.9489 42.697 41.0664 42.7906 41.1827L42.8309 41.2341C42.9361 41.364 43.0453 41.4874 43.1557 41.6089C43.1557 41.6089 43.1557 41.6089 43.1596 41.6135C43.1635 41.618 43.1596 41.6167 43.1635 41.618C43.311 41.7772 43.4657 41.9318 43.6261 42.0786L43.6599 42.1105C43.8061 42.2404 43.9581 42.3703 44.1147 42.4931C44.142 42.5152 44.1693 42.5386 44.1966 42.5581C44.3376 42.666 44.4825 42.7673 44.6306 42.8661C44.6728 42.8933 44.7137 42.9245 44.7553 42.9505C44.9269 43.0603 45.1029 43.1643 45.2835 43.2604L45.3225 43.2838C45.3622 43.3052 45.4031 43.3234 45.4427 43.3436C45.5382 43.3923 45.6331 43.4404 45.7312 43.4852C45.8046 43.519 45.8813 43.5502 45.956 43.5813C46.0307 43.6125 46.0859 43.6372 46.1509 43.6639C46.2432 43.6989 46.3354 43.7288 46.4283 43.7646C46.4784 43.7814 46.5264 43.8009 46.5765 43.8165C46.683 43.8516 46.7909 43.8815 46.9013 43.914C46.9364 43.9231 46.9721 43.9348 47.0092 43.9439C47.1281 43.9763 47.2496 44.0088 47.3711 44.0322L47.4458 44.0485C47.5757 44.0751 47.7057 44.0998 47.8402 44.1206L47.8869 44.1277C48.0273 44.1498 48.1689 44.1674 48.3112 44.1816H48.3346C48.4834 44.1959 48.6328 44.2083 48.7809 44.2122H48.7855V44.2226H49.4352V44.2122H49.4397C49.5892 44.2083 49.7373 44.1959 49.8848 44.1816H49.9095C50.0518 44.1674 50.1928 44.1498 50.3324 44.1277L50.3812 44.1206C50.5111 44.0998 50.645 44.0751 50.7749 44.0485L50.8503 44.0322C50.972 44.0058 51.0926 43.9763 51.2122 43.9439C51.2479 43.9348 51.2836 43.9231 51.3194 43.914C51.4279 43.8828 51.5364 43.849 51.6442 43.8165C51.6929 43.8009 51.741 43.7814 51.7904 43.7659C51.884 43.7321 51.9775 43.7009 52.0691 43.6632C52.1341 43.6372 52.1991 43.6099 52.2608 43.582C52.3375 43.5495 52.4141 43.517 52.4895 43.4845C52.5856 43.4404 52.6792 43.3923 52.7734 43.3449C52.815 43.3241 52.8559 43.3059 52.8956 43.2838C52.9099 43.2766 52.9222 43.2675 52.9358 43.2604C53.1165 43.1643 53.2919 43.0603 53.4641 42.9505C53.5063 42.9245 53.5453 42.8946 53.5869 42.8667C53.7343 42.768 53.8812 42.666 54.0228 42.5568C54.0501 42.5373 54.0754 42.5146 54.104 42.4918C54.26 42.3697 54.4115 42.2415 54.5588 42.1072L54.5913 42.0773C54.7524 41.9292 54.9075 41.7742 55.0565 41.6122C56.5848 43.2779 58.742 44.2256 61.0027 44.2245L61.3243 44.2226Z" fill="#111111"/>
<path d="M105.178 21.0879C106.544 21.0879 107.832 21.4283 108.962 22.0273C110.4 22.79 111.583 23.9721 112.347 25.4112C112.943 26.539 113.284 27.823 113.286 29.1858L113.287 29.1945C113.287 29.1978 113.286 29.2002 113.286 29.2024C113.284 30.565 112.943 31.8502 112.347 32.9781C111.583 34.4161 110.4 35.599 108.962 36.3617C107.832 36.961 106.544 37.3025 105.178 37.3025C103.812 37.3025 102.525 36.961 101.394 36.3609C99.956 35.5982 98.7731 34.4161 98.0109 32.9781C97.4116 31.8481 97.0703 30.5609 97.0703 29.1945C97.0703 27.8285 97.4116 26.5409 98.0109 25.4112C98.7731 23.9721 99.956 22.79 101.394 22.0273C102.525 21.4283 103.812 21.0879 105.178 21.0879ZM105.178 25.4112C103.091 25.4112 101.394 27.1079 101.394 29.1945C101.394 31.2806 103.091 32.9781 105.178 32.9781C107.263 32.9781 108.959 31.2828 108.962 29.1989V29.1904C108.959 27.1054 107.263 25.4112 105.178 25.4112Z" fill="#111111"/>
</svg>
